<svg width="66" height="60" viewBox="0 0 66 60" fill="none" xmlns="http://www.w3.org/2000/svg">
<path fill-rule="evenodd" clip-rule="evenodd" d="M33.9732 55.3234C35.7316 54.9365 36.3822 57.6408 34.5465 58.0558C32.767 58.4567 32.1446 55.7243 33.9732 55.3234ZM48.782 53.558C49.5978 53.4314 50.2555 54.0187 50.3715 54.7396C50.4911 55.4781 49.9636 56.1955 49.1723 56.3221C48.374 56.4487 47.7059 55.8438 47.6039 55.1405C47.4808 54.307 48.0857 53.6635 48.782 53.558ZM19.3087 53.5615C20.1175 53.4103 20.7998 54.0222 20.9123 54.722C21.0424 55.559 20.4446 56.1885 19.7588 56.3151C18.5491 56.5401 17.6277 55.0983 18.4331 54.0714C18.63 53.8217 18.9078 53.6389 19.3087 53.5615ZM24.4395 42.5332C24.4395 45.0406 24.4431 48.2759 24.4466 48.3428C24.4571 48.7261 24.4642 48.8034 24.2426 49.018L22.319 50.9416C22.0974 51.1596 21.904 51.3565 21.6825 51.5746C21.5101 51.7504 21.2183 52.0845 21.0354 52.2076C20.6837 52.095 20.5782 51.9403 19.9558 51.8594C17.1882 51.5113 15.4298 54.5532 17.0088 56.7863L17.3112 57.152C17.7965 57.6444 18.528 57.989 19.2349 58.0488C20.7505 58.1789 22.1256 57.247 22.53 55.7735C22.7902 54.831 22.5968 54.2156 22.2698 53.4314L25.069 50.6216C25.8603 49.8198 26.1557 49.76 26.1522 48.916L26.1557 43.6339C25.5614 43.3034 24.9881 42.9341 24.4395 42.5332ZM33.4071 45.7193V53.6775C33.2769 53.7479 33.0448 53.8147 32.8901 53.8956C32.3943 54.1453 32.236 54.2824 31.8738 54.6798C31.7824 54.7748 31.7894 54.7783 31.7191 54.8803C30.221 57.1098 31.8386 59.8071 34.2581 59.8071C37.0187 59.8036 38.4359 56.4522 36.4349 54.4653C35.8652 53.8991 35.5804 53.9237 35.1056 53.6775V45.7193C34.8243 45.7334 34.5429 45.7404 34.2581 45.7404C33.9732 45.7404 33.6884 45.7334 33.4071 45.7193ZM42.3605 43.6339V48.9511C42.3605 49.6158 42.4379 49.6088 42.779 49.9499C43.0146 50.189 43.2256 50.4 43.4648 50.6391C44.3404 51.5113 45.3778 52.5909 46.2464 53.4173C46.1128 53.8077 45.9686 54.0222 45.9018 54.5004C45.6099 56.5296 47.2979 58.2563 49.313 58.0453C51.8133 57.7815 52.8859 54.8556 51.4757 53.0692C51.1206 52.6155 50.5966 52.1548 49.8159 51.9403C49.4044 51.8278 48.9578 51.8067 48.5288 51.8665C48.0329 51.9333 47.8676 52.0775 47.4808 52.2076C47.305 52.088 44.6147 49.352 44.2384 48.9828C44.0696 48.821 44.052 48.8527 44.0556 48.5291L44.0591 42.5473C43.5175 42.9411 42.9478 43.3069 42.3605 43.6339Z" fill="#2B2A29"/>
<path fill-rule="evenodd" clip-rule="evenodd" d="M65.1342 24.5207C64.2023 21.4894 61.7477 19.3512 58.8148 18.9398C58.8499 14.456 55.6427 10.556 51.6618 10.2395C51.1765 10.2008 50.6877 10.2114 50.213 10.2712C47.579 4.12051 42.0437 0.192383 35.9001 0.192383C30.2066 0.192383 25.0371 3.53322 22.1991 8.97704C20.9578 8.41085 19.6144 8.11545 18.2675 8.11545C12.9749 8.11545 8.51223 12.666 7.91792 18.451C6.16661 18.6303 4.53839 19.4638 3.2548 20.8564C1.74263 22.5022 0.90918 24.7071 0.90918 27.0633C0.90918 31.8284 4.37662 35.7073 8.63532 35.7073L17.8912 35.7284V33.5727L8.63532 33.5516C5.43866 33.5516 2.83632 30.6398 2.83632 27.0633C2.83632 25.2944 3.46229 23.6381 4.59817 22.4037C5.68834 21.2221 7.10908 20.575 8.62125 20.575C8.67752 20.575 8.73378 20.575 8.78653 20.5786L9.75714 20.6102L9.78175 19.5271C9.89429 14.4244 13.7028 10.2712 18.2675 10.2712C19.6249 10.2712 20.9753 10.6369 22.171 11.3332L23.0326 11.8361L23.4722 10.8655C25.8635 5.61158 30.6251 2.3481 35.9001 2.3481C41.5198 2.3481 46.5627 6.09336 48.7465 11.8888L49.0595 12.7153L49.8437 12.5218C50.3853 12.3882 50.9515 12.3425 51.5247 12.3882C54.4646 12.6238 56.9158 15.62 56.8876 18.9327C56.8841 19.2211 56.863 19.506 56.8278 19.7908L56.7259 21.0252H57.8406C60.341 21.0252 62.5389 22.7132 63.3126 25.2241C63.9526 27.306 63.7276 29.3632 62.6761 31.0125C61.614 32.6794 59.817 33.6747 57.8723 33.6747C56.6766 33.6747 52.4215 33.6852 50.9058 33.6571L50.6315 33.65V35.8058C50.7229 35.8093 50.8038 35.8093 50.8741 35.8093C50.948 35.8093 57.5452 35.8304 57.8723 35.8304C60.4395 35.8304 62.8203 34.4976 64.2445 32.2645C65.6477 30.063 65.9712 27.2391 65.1342 24.5207Z" fill="black"/>
<path fill-rule="evenodd" clip-rule="evenodd" d="M34.2585 44.6501C25.6637 44.6501 18.6726 37.6589 18.6726 29.0677C18.6726 20.4729 25.6637 13.4818 34.2585 13.4818C42.8533 13.4818 49.8444 20.4729 49.8444 29.0677C49.8444 37.6589 42.8533 44.6501 34.2585 44.6501ZM34.2585 12.3916C25.0624 12.3916 17.5859 19.8716 17.5859 29.0677C17.5859 38.2603 25.0624 45.7402 34.2585 45.7402C43.4546 45.7402 50.9311 38.2603 50.9311 29.0677C50.9311 19.8716 43.4546 12.3916 34.2585 12.3916Z" fill="white"/>
<path fill-rule="evenodd" clip-rule="evenodd" d="M44.8219 39.6702L44.203 39.0513C44.3401 38.9142 44.4773 38.7735 44.6109 38.6293L45.2404 39.2131C45.7081 38.7102 46.1477 38.1792 46.5415 37.613L45.8241 37.1171C45.9367 36.9554 46.0422 36.7936 46.1477 36.6283L46.8791 37.0925C47.2484 36.5158 47.579 35.9109 47.8673 35.2849L47.0726 34.9227C47.1534 34.7434 47.2308 34.5675 47.3047 34.3882L48.1205 34.7152C48.3773 34.0822 48.5847 33.4246 48.7571 32.7529L47.9095 32.5384C47.9552 32.352 48.001 32.1621 48.0396 31.9722L48.9118 32.1551C49.0525 31.4869 49.1333 30.8012 49.1826 30.1049L48.3034 30.0521C48.3139 29.8587 48.3245 29.6618 48.3315 29.4473L48.8379 29.4191L49.2142 29.4754C49.2177 29.3382 49.2353 29.2046 49.2353 29.0639C49.2353 28.4907 49.1931 27.9245 49.1298 27.3654L48.2401 27.4674C48.219 27.274 48.1944 27.0841 48.1627 26.8906L49.0384 26.7535C48.9294 26.0677 48.7887 25.389 48.5918 24.7384L47.7302 24.9987C47.6739 24.8123 47.6141 24.6294 47.5473 24.443L48.3913 24.1547C48.1627 23.497 47.8919 22.864 47.579 22.2557L46.7807 22.6636C46.6963 22.4878 46.6013 22.319 46.5064 22.1502L47.2871 21.7071C46.946 21.1057 46.5626 20.536 46.1442 19.9909L45.4338 20.5325C45.3177 20.3778 45.1947 20.2265 45.0716 20.0788L45.7679 19.4951C45.3283 18.9676 44.8395 18.4787 44.3296 18.0145L43.7282 18.6757C43.584 18.5456 43.4363 18.4154 43.2886 18.2924L43.8689 17.5961C43.3449 17.153 42.7822 16.7556 42.1949 16.3898L41.7167 17.153C41.5514 17.0475 41.3861 16.949 41.2138 16.8505L41.6674 16.0663C41.0696 15.7252 40.4471 15.4228 39.8036 15.166L39.466 16.01C39.2866 15.9397 39.1038 15.8694 38.9209 15.8061L39.2198 14.9515C38.5728 14.7229 37.9116 14.526 37.2294 14.3889L37.0465 15.2926C36.8566 15.254 36.6667 15.2188 36.4768 15.1907L36.6175 14.2939C35.9423 14.1849 35.2565 14.1181 34.5567 14.104L34.5462 15.0148H34.4336C34.2754 15.0148 34.1171 15.0148 33.9589 15.0183L33.9378 14.104C33.238 14.1181 32.5557 14.1884 31.884 14.2974L32.0212 15.1907C31.8313 15.2223 31.6414 15.254 31.4515 15.2926L31.2686 14.3889C30.5829 14.5295 29.9253 14.73 29.2782 14.9586L29.5806 15.8096C29.3978 15.8729 29.2149 15.9397 29.0355 16.0136L28.6979 15.1696C28.0544 15.4298 27.4354 15.7322 26.8411 16.0733L27.2877 16.8576C27.1189 16.9525 26.9537 17.0545 26.7884 17.1565L26.3101 16.3934C25.7263 16.7626 25.1637 17.16 24.6397 17.6031L25.2199 18.2994C25.0687 18.4225 24.9245 18.5526 24.7839 18.6827L24.179 18.0216C23.6691 18.4858 23.1838 18.9746 22.7442 19.5056L23.437 20.0859C23.3139 20.2336 23.1943 20.3848 23.0748 20.543L22.3679 19.998C21.9494 20.543 21.5626 21.1163 21.2215 21.7176L22.0022 22.1572C21.9072 22.3295 21.8158 22.4983 21.7244 22.6741L20.9296 22.2662C20.6201 22.8746 20.3493 23.5111 20.1208 24.1652L20.9612 24.4606C20.8979 24.6435 20.8382 24.8263 20.7819 25.0127L19.9203 24.7525C19.7234 25.4066 19.5827 26.0818 19.4772 26.7711L20.3493 26.9047C20.3212 27.0946 20.2931 27.288 20.272 27.4814L19.3823 27.383C19.319 27.9351 19.2803 28.4978 19.2803 29.0639C19.2803 29.1941 19.2979 29.3171 19.3014 29.4437L20.1841 29.4226C20.1911 29.6161 20.1981 29.8095 20.2087 30.0064L19.3295 30.0627C19.3787 30.7555 19.4561 31.4412 19.5933 32.1059L20.4689 31.93C20.5076 32.1199 20.5498 32.3098 20.5955 32.4997L19.748 32.7072C19.9168 33.3789 20.1208 34.0365 20.381 34.6695L21.1969 34.346C21.2672 34.5253 21.3446 34.7012 21.4219 34.877L20.6272 35.2392C20.912 35.8687 21.2426 36.4701 21.6083 37.0503L22.3433 36.5861C22.4488 36.7514 22.5543 36.9132 22.6633 37.0749L21.9424 37.5708C22.3363 38.137 22.7723 38.6645 23.2365 39.1709L23.8731 38.5941C24.0032 38.7348 24.1368 38.8755 24.274 39.0126L23.655 39.6316C24.1403 40.1169 24.6678 40.56 25.2129 40.9749L25.7334 40.2962C25.8881 40.4123 26.0464 40.5283 26.2046 40.6373L25.7123 41.3477C26.2749 41.7416 26.8657 42.0897 27.4812 42.4027L27.8715 41.6396C28.0438 41.7275 28.2197 41.8119 28.399 41.8928L28.0368 42.6735C28.6593 42.9583 29.2993 43.208 29.9639 43.4085L30.2136 42.5785C30.3965 42.6313 30.5864 42.684 30.7763 42.7333L30.5618 43.5632C31.2229 43.732 31.8946 43.8656 32.5874 43.943L32.6823 43.0779C32.8757 43.099 33.0692 43.1166 33.2661 43.1342L33.2028 43.9887C33.5545 44.0133 33.9026 44.0415 34.2578 44.0415C34.5989 44.0415 34.9295 44.0133 35.2636 43.9922L35.2038 43.1377C35.4007 43.1236 35.5941 43.106 35.7875 43.0849L35.879 43.95C36.5718 43.8762 37.2435 43.7425 37.9046 43.5737L37.6971 42.7438C37.887 42.6981 38.0734 42.6453 38.2598 42.5926L38.5059 43.419C39.1706 43.2221 39.8106 42.9759 40.4331 42.6946L40.0779 41.9104C40.2537 41.833 40.4296 41.7486 40.6019 41.6607L40.9887 42.4273C41.6041 42.1143 42.202 41.7697 42.7646 41.3793L42.2688 40.6655C42.4305 40.5564 42.5853 40.4439 42.74 40.3243L43.2605 41.0066C43.8091 40.5916 44.3366 40.152 44.8219 39.6702Z" fill="white"/>
<path fill-rule="evenodd" clip-rule="evenodd" d="M34.2572 45.7402C25.0611 45.7402 17.5847 38.2603 17.5847 29.0677C17.5847 19.8716 25.0611 12.3916 34.2572 12.3916C43.4533 12.3916 50.9298 19.8716 50.9298 29.0677C50.9298 38.2603 43.4533 45.7402 34.2572 45.7402ZM45.704 14.8111L44.3993 13.8475C41.7055 12.047 38.5089 10.9603 35.0696 10.8091H33.4449C30.0056 10.9603 26.8089 12.047 24.1151 13.8475L22.8104 14.8111C18.6397 18.1695 15.96 23.3073 15.96 29.0677C15.96 39.157 24.1679 47.3649 34.2572 47.3649C44.3466 47.3649 52.5545 39.157 52.5545 29.0677C52.5545 23.3073 49.8748 18.1695 45.704 14.8111Z" fill="black"/>
<path fill-rule="evenodd" clip-rule="evenodd" d="M43.2595 41.007L42.739 40.3247C42.5843 40.4443 42.4296 40.5568 42.2678 40.6658L42.7636 41.3797C42.201 41.7701 41.6031 42.1147 40.9877 42.4277L40.6009 41.6611C40.4286 41.749 40.2527 41.8334 40.0769 41.9107L40.4321 42.695C39.8096 42.9763 39.1696 43.2225 38.505 43.4194L38.2588 42.593C38.0724 42.6457 37.886 42.6985 37.6961 42.7442L37.9071 43.5741C37.246 43.7429 36.5708 43.8766 35.878 43.9504L35.7866 43.0853C35.5931 43.1064 35.3997 43.124 35.2028 43.1381L35.2626 43.9926C34.9285 44.0137 34.5979 44.0418 34.2568 44.0418C33.9016 44.0418 33.5535 44.0137 33.2018 43.9891L33.2651 43.1345C33.0682 43.117 32.8748 43.0994 32.6813 43.0783L32.5899 43.9434C31.8936 43.866 31.2219 43.7324 30.5608 43.5636L30.7753 42.7336C30.5854 42.6844 30.3955 42.6317 30.2126 42.5789L29.9629 43.4088C29.2983 43.2084 28.6583 42.9587 28.0358 42.6739L28.398 41.8932C28.2187 41.8123 28.0428 41.7279 27.8705 41.64L27.4802 42.4031C26.8648 42.0901 26.274 41.7419 25.7113 41.3481L26.2036 40.6377C26.0454 40.5287 25.8871 40.4126 25.7324 40.2966L25.2119 40.9753C24.6668 40.5603 24.1393 40.1172 23.654 39.6319L24.273 39.013C24.1358 38.8758 24.0022 38.7352 23.8721 38.5945L23.2355 39.1712C22.7713 38.6648 22.3353 38.1373 21.9414 37.5712L22.6623 37.0753C22.5533 36.9135 22.4478 36.7518 22.3423 36.5865L21.6073 37.0507C21.2416 36.4704 20.9145 35.8691 20.6262 35.2396L21.4209 34.8774C21.3436 34.7016 21.2662 34.5257 21.1959 34.3464L20.38 34.6699C20.1233 34.0369 19.9158 33.3793 19.747 32.7076L20.5945 32.5001C20.5488 32.3102 20.5066 32.1203 20.4679 31.9304L19.5923 32.1062C19.4551 31.4416 19.3778 30.7558 19.3285 30.0631L20.2077 30.0068C20.1971 29.8099 20.1901 29.6164 20.1831 29.423L19.3004 29.4441C19.2969 29.3175 19.2793 29.1944 19.2793 29.0643C19.2793 28.4981 19.318 27.9355 19.3813 27.3834L20.271 27.4818C20.2921 27.2884 20.3202 27.095 20.3484 26.9051L19.4727 26.7715C19.5817 26.0822 19.7224 25.407 19.9193 24.7529L20.7809 25.0131C20.8372 24.8267 20.897 24.6439 20.9603 24.461L20.1198 24.1656C20.3484 23.5115 20.6191 22.875 20.9286 22.2666L21.7234 22.6745C21.8148 22.4987 21.9062 22.3299 22.0012 22.1576L21.2205 21.718C21.5616 21.1166 21.9484 20.5434 22.3669 19.9983L23.0738 20.5434C23.1933 20.3852 23.3129 20.234 23.436 20.0863L22.7432 19.506C23.1828 18.975 23.6681 18.4862 24.178 18.022L24.7829 18.6831C24.9235 18.553 25.0677 18.4229 25.2189 18.2998L24.6387 17.6035C25.1627 17.1604 25.7254 16.763 26.3091 16.3937L26.7874 17.1569C26.9527 17.0549 27.1215 16.9529 27.2868 16.8579L26.8401 16.0737C27.4345 15.7326 28.0534 15.4302 28.6969 15.1699L29.0345 16.0139C29.2139 15.9401 29.3968 15.8733 29.5796 15.81L29.2772 14.9589C29.9243 14.7304 30.5819 14.5299 31.2676 14.3892L31.4505 15.293C31.6404 15.2543 31.8303 15.2227 32.0202 15.191L31.883 14.2978C32.5547 14.1888 33.237 14.1185 33.9368 14.1044L33.9579 15.0187C34.1161 15.0152 34.2744 15.0152 34.4326 15.0152H34.5417L34.5557 14.1044C35.2555 14.1185 35.9413 14.1853 36.6165 14.2943L36.4758 15.191C36.6657 15.2192 36.8556 15.2543 37.0455 15.293L37.2284 14.3892C37.9106 14.5264 38.5718 14.7233 39.2188 14.9519L38.9199 15.8065C39.1028 15.8698 39.2857 15.9401 39.465 16.0104L39.8026 15.1664C40.4462 15.4231 41.0686 15.7256 41.6629 16.0667L41.2128 16.8509C41.3851 16.9494 41.5504 17.0478 41.7157 17.1533L42.1939 16.3902C42.7812 16.756 43.3439 17.1533 43.8714 17.5964L43.2876 18.2927C43.4353 18.4158 43.583 18.5459 43.7272 18.6761L44.3286 18.0149C44.8385 18.4791 45.3273 18.9679 45.7669 19.4954L45.0706 20.0792C45.1937 20.2269 45.3168 20.3781 45.4328 20.5329L46.1432 19.9913C46.5617 20.5364 46.945 21.1061 47.2861 21.7074L46.5054 22.1505C46.6003 22.3193 46.6953 22.4881 46.7797 22.664L47.578 22.256C47.891 22.8644 48.1617 23.4974 48.3903 24.155L47.5463 24.4434C47.6131 24.6298 47.6729 24.8127 47.7292 24.999L48.5908 24.7388C48.7877 25.3894 48.9284 26.0681 49.0374 26.7539L48.1617 26.891C48.1934 27.0844 48.218 27.2743 48.2426 27.4678L49.1323 27.3658C49.1921 27.9249 49.2343 28.4911 49.2343 29.0643C49.2343 29.205 49.2167 29.3386 49.2132 29.4758L48.8369 29.4195L48.3305 29.4476C48.3235 29.6622 48.313 29.8591 48.3024 30.0525L49.1816 30.1053C49.1323 30.8016 49.0515 31.4873 48.9108 32.1555L48.0387 31.9726C48 32.1625 47.9543 32.3524 47.9085 32.5388L48.7561 32.7533C48.5837 33.425 48.3763 34.0826 48.1195 34.7156L47.3037 34.3886C47.2298 34.5679 47.1525 34.7438 47.0751 34.9231L47.8663 35.2853C47.578 35.9113 47.2474 36.5162 46.8782 37.0929L46.1502 36.6287C46.0412 36.794 45.9357 36.9557 45.8232 37.1175L46.5406 37.6134C46.1432 38.1795 45.7071 38.7106 45.2394 39.2134L44.6099 38.6297C44.4763 38.7739 44.3391 38.9145 44.202 39.0517L44.8209 39.6706C44.3356 40.1524 43.8081 40.592 43.2595 41.007ZM34.2568 13.4819C25.6656 13.4819 18.6709 20.4731 18.6709 29.0643C18.6709 37.6591 25.6656 44.6502 34.2568 44.6502C42.8516 44.6502 49.8427 37.6591 49.8427 29.0643C49.8427 20.4731 42.8516 13.4819 34.2568 13.4819Z" fill="black"/>
<path fill-rule="evenodd" clip-rule="evenodd" d="M33.3458 27.7742C32.6284 28.2771 32.4526 29.2618 32.9484 29.9862C33.4443 30.7177 34.443 30.9041 35.171 30.4012C35.3644 30.2711 35.5191 30.0988 35.6352 29.9124L44.1772 30.0249L44.1983 28.4037L35.6493 28.2877C35.6282 28.2525 35.6141 28.2138 35.5895 28.1787C35.4383 27.9606 35.2448 27.7883 35.0233 27.6723V15.9512H33.3458V27.7742Z" fill="black"/>
<path fill-rule="evenodd" clip-rule="evenodd" d="M16.5193 33.5692C16.1536 32.1274 15.9602 30.6187 15.9602 29.0678C15.9602 23.3075 18.6399 18.1697 22.8107 14.8112L24.1153 13.8477C26.8091 12.0471 30.0058 10.9605 33.4451 10.8093H35.0698C38.5091 10.9605 41.7058 12.0471 44.3995 13.8477L45.7042 14.8112C49.875 18.1697 52.5547 23.3075 52.5547 29.0678C52.5547 30.6539 52.3507 32.1977 51.9674 33.6677C53.8664 33.6817 56.8943 33.6747 57.8719 33.6747C59.8166 33.6747 61.6137 32.6795 62.6757 31.0126C63.7272 29.3632 63.9522 27.306 63.3122 25.2241C62.5385 22.7132 60.3406 21.0252 57.8403 21.0252H56.7255L56.8275 19.7909C56.8626 19.506 56.8837 19.2212 56.8872 18.9328C56.9154 15.6201 54.4643 12.6239 51.5243 12.3883C50.9511 12.3425 50.3849 12.3883 49.8433 12.5219L49.0591 12.7153L48.7461 11.8889C46.5623 6.0934 41.5194 2.34814 35.8997 2.34814C30.6247 2.34814 25.8631 5.61162 23.4718 10.8655L23.0322 11.8361L22.1706 11.3333C20.975 10.6369 19.6245 10.2712 18.2671 10.2712C13.7025 10.2712 9.89391 14.4244 9.78137 19.5271L9.75676 20.6102L8.78615 20.5786C8.7334 20.5751 8.67714 20.5751 8.62087 20.5751C7.1087 20.5751 5.68796 21.2221 4.59779 22.4037C3.46191 23.6381 2.83594 25.2945 2.83594 27.0633C2.83594 30.6398 5.43828 33.5516 8.63494 33.5516L16.5193 33.5692ZM19.7582 56.315C20.4439 56.1884 21.0418 55.559 20.9117 54.722C20.7991 54.0222 20.1169 53.4103 19.308 53.5615C18.9071 53.6389 18.6293 53.8217 18.4324 54.0714C17.6271 55.0983 18.5484 56.5401 19.7582 56.315ZM34.5458 58.0558C36.3815 57.6408 35.7309 54.9365 33.9726 55.3233C32.1439 55.7243 32.7664 58.4567 34.5458 58.0558ZM48.7813 53.558C48.085 53.6635 47.4801 54.307 47.6032 55.1405C47.7052 55.8438 48.3734 56.4487 49.1717 56.3221C49.9629 56.1955 50.4904 55.4781 50.3708 54.7396C50.2548 54.0187 49.5972 53.4314 48.7813 53.558Z" fill="white"/>
</svg>
