<svg width="34" height="45" viewBox="0 0 34 45" fill="none" xmlns="http://www.w3.org/2000/svg">
<path d="M14.6448 19.3346C17.4083 19.3346 19.6549 17.0871 19.6549 14.3248C19.6549 11.5621 17.4083 9.31445 14.6448 9.31445C11.8826 9.31445 9.63477 11.5621 9.63477 14.3248C9.63477 17.0871 11.8826 19.3346 14.6448 19.3346Z" fill="#39DB8F"/>
<path d="M3.90723 21.5231C4.04312 21.7672 4.26408 21.943 4.52951 22.0186C4.79747 22.0954 5.07815 22.0634 5.31944 21.9292L6.95264 21.0255L7.23968 21.3281C8.53124 22.6922 10.1682 23.6716 11.9741 24.1597L12.3793 24.2694L12.3538 26.1355C12.3513 26.4125 12.4567 26.6747 12.651 26.874C12.8441 27.0732 13.1031 27.1851 13.38 27.1883L15.5745 27.2171C15.8425 27.231 16.0964 27.1329 16.3136 26.923C16.5117 26.7291 16.6235 26.469 16.6273 26.1919L16.6514 24.3259L17.0604 24.2268C18.8904 23.7823 20.5553 22.8488 21.8735 21.5264L22.1695 21.2291L23.7697 22.1711C24.2624 22.4631 24.8999 22.2957 25.1933 21.8035L26.3058 19.9129C26.5979 19.4195 26.4328 18.7812 25.9375 18.4902L24.3335 17.545L24.4491 17.1422C24.7183 16.2054 24.8555 15.2559 24.8555 14.318C24.8555 13.4346 24.7297 12.5277 24.4833 11.624L24.3729 11.219L25.9908 10.2939C26.2334 10.1565 26.4061 9.93277 26.4797 9.66518C26.5521 9.39671 26.5166 9.11744 26.3781 8.87665L25.2898 6.97119C25.1526 6.7304 24.9291 6.55667 24.6599 6.48415C24.3907 6.41278 24.1125 6.44795 23.8712 6.58435L22.2546 7.50826L21.9638 7.20663C20.657 5.86389 19.0072 4.90798 17.1899 4.44126L16.7835 4.33789V2.47077C16.7835 1.89738 16.3162 1.43066 15.7434 1.43066H13.5502C12.9761 1.43066 12.51 1.89738 12.51 2.47077V4.33789L12.1024 4.44126C10.3752 4.88563 8.78904 5.77651 7.51779 7.01703L7.21929 7.31002L5.62802 6.34458C5.13908 6.04614 4.49779 6.20387 4.20062 6.69408L3.06141 8.5697C2.9179 8.8063 2.87476 9.08544 2.9408 9.35505C3.00684 9.62581 3.1732 9.85276 3.41068 9.99665L4.99815 10.9611L4.87622 11.3629C4.58667 12.323 4.43804 13.3174 4.43804 14.318C4.43804 15.1557 4.55241 16.0179 4.77592 16.8811L4.88126 17.2871L4.81522 17.3243L3.24938 18.1918C3.00681 18.3272 2.83031 18.5478 2.75539 18.8131C2.67792 19.0805 2.7096 19.3619 2.84422 19.6039L3.90723 21.5231ZM14.6461 8.43038C17.896 8.43038 20.5401 11.0746 20.5401 14.3243C20.5401 17.5742 17.896 20.2179 14.6461 20.2179C11.3963 20.2179 8.75343 17.5742 8.75343 14.3243C8.75343 11.0746 11.3963 8.43038 14.6461 8.43038Z" fill="white"/>
<path d="M3.13378 21.9525C3.3827 22.4022 3.79161 22.7283 4.28563 22.8701C4.77711 23.014 5.30036 22.9543 5.74993 22.7038L6.78372 22.1304L6.83573 22.1816C8.11333 23.451 9.69572 24.3972 11.4127 24.9204L11.4839 24.9418L11.4686 26.1236C11.4559 27.1851 12.3081 28.06 13.3685 28.0749L15.5897 28.1036C16.0926 28.1036 16.5689 27.9097 16.9308 27.557C17.2991 27.1989 17.5061 26.7183 17.5137 26.2036L17.529 25.0206L17.6001 25.0015C19.3387 24.5229 20.949 23.6204 22.2558 22.3905L22.3091 22.3393L23.3201 22.9341C24.2344 23.4765 25.4168 23.1685 25.9553 22.2531L27.069 20.3625C27.6075 19.4481 27.3026 18.2653 26.3883 17.7271L25.3723 17.1281L25.3914 17.0568C25.6225 16.1509 25.7406 15.2291 25.7406 14.3179C25.7406 13.4622 25.6339 12.5894 25.4218 11.722L25.4053 11.6495L26.4315 11.0634C26.8785 10.8076 27.1973 10.3941 27.3345 9.89855C27.4691 9.40186 27.403 8.88181 27.1477 8.43643L26.0594 6.53095C25.5323 5.61022 24.3551 5.29044 23.4331 5.81482L22.4094 6.3999L22.3561 6.34769C21.0658 5.10083 19.4694 4.17578 17.7397 3.67388L17.6699 3.65255V2.47072C17.6699 1.40927 16.8051 0.544922 15.7446 0.544922H13.5502C12.4872 0.544922 11.6236 1.40927 11.6236 2.47072V3.65255L11.5525 3.67388C9.91675 4.14911 8.39403 5.00495 7.14819 6.14843L7.09486 6.19847L6.08773 5.58672C5.64705 5.31927 5.13147 5.23723 4.6311 5.36295C4.132 5.48551 3.71037 5.79462 3.44368 6.23365L2.30447 8.11029C1.7533 9.01718 2.04417 10.2033 2.95093 10.7543L3.95418 11.3638L3.93511 11.4352C3.68112 12.3784 3.55158 13.3482 3.55158 14.3179C3.55158 15.1183 3.64938 15.9441 3.83861 16.7711L3.85512 16.8437L2.82009 17.4169C2.37051 17.6663 2.04418 18.0755 1.90194 18.5701C1.76098 19.0645 1.82061 19.5857 2.06953 20.0343L3.13378 21.9525ZM2.56483 18.7597C2.655 18.4443 2.86329 18.1811 3.15285 18.019L4.65397 17.1888L4.58661 16.9299C4.35801 16.0508 4.24245 15.1716 4.24245 14.3179C4.24245 13.2981 4.3923 12.2846 4.68947 11.3053L4.76567 11.0505L3.30904 10.165C3.0271 9.99443 2.82901 9.7238 2.74901 9.40199C2.67154 9.08119 2.72228 8.74973 2.89372 8.46729L4.03293 6.59165C4.38726 6.00873 5.14797 5.82117 5.72962 6.17612L7.19136 7.06269L7.38057 6.87626C8.67722 5.61124 10.2926 4.70435 12.0541 4.25147L12.3144 4.18429V2.47072C12.3144 1.78861 12.8682 1.23452 13.5502 1.23452H15.7446C16.4253 1.23452 16.979 1.78861 16.979 2.47072V4.18429L17.2394 4.25147C19.091 4.7267 20.7725 5.70077 22.1034 7.07018L22.2888 7.26093L23.7734 6.41373C24.0579 6.24965 24.3894 6.20596 24.712 6.29435C25.032 6.38071 25.2961 6.58632 25.4612 6.87308L26.5483 8.77842C26.7134 9.06518 26.7566 9.39767 26.6689 9.7163C26.5813 10.036 26.3756 10.3014 26.0898 10.4644L24.6027 11.3148L24.6738 11.5728C24.9253 12.4935 25.051 13.4164 25.051 14.3179C25.051 15.2738 24.9126 16.2416 24.6396 17.1963L24.5659 17.4532L26.0377 18.3196C26.3222 18.488 26.5242 18.7565 26.608 19.0763C26.6893 19.3959 26.6436 19.7284 26.4759 20.013L25.3621 21.9035C25.0154 22.4896 24.256 22.6868 23.6693 22.3415L22.2025 21.4762L22.0119 21.6647C20.6683 23.0129 18.9716 23.9657 17.1073 24.4185L16.8457 24.4814L16.8242 26.194C16.8191 26.5233 16.687 26.8324 16.452 27.0637C16.2158 27.2928 15.9313 27.4163 15.6456 27.4163C15.6189 27.4163 15.5922 27.4153 15.5656 27.4132L13.3787 27.3843C13.0498 27.3812 12.7399 27.2479 12.5088 27.0113C12.2789 26.7747 12.1544 26.4626 12.1582 26.1333L12.1811 24.4185L11.9233 24.3492C10.0818 23.8516 8.41438 22.8541 7.09742 21.4645L6.91448 21.2705L5.41592 22.1017C5.12891 22.2616 4.79492 22.2988 4.47615 22.2083C4.15993 22.1177 3.89703 21.9088 3.73575 21.619L2.67149 19.6997C2.51148 19.4109 2.47467 19.0772 2.56483 18.7597Z" fill="#010101"/>
<path d="M2.95799 22.0482C3.23358 22.5437 3.68446 22.9029 4.22928 23.0596C4.77283 23.2152 5.34556 23.1501 5.84466 22.8763L6.74761 22.3733C8.02139 23.6212 9.58603 24.5579 11.284 25.0865L11.27 26.1213C11.2561 27.2914 12.1958 28.2558 13.3642 28.2708L15.56 28.2995H15.5879C16.1429 28.2995 16.6687 28.0864 17.0662 27.6974C17.4713 27.3031 17.6999 26.7735 17.7075 26.2055L17.7215 25.1707C19.4397 24.6858 21.0323 23.7938 22.3353 22.5842L23.2179 23.1043C24.2263 23.6969 25.528 23.3601 26.1236 22.353L27.2374 20.4625C27.8292 19.4544 27.4926 18.151 26.4856 17.5563L25.5979 17.0342C25.8227 16.1347 25.9357 15.2214 25.9357 14.3177C25.9357 13.4705 25.8328 12.6062 25.6297 11.7473L26.5275 11.2336C27.019 10.9523 27.372 10.4961 27.5219 9.94952C27.6705 9.40165 27.5981 8.8294 27.3162 8.33817L26.2277 6.4327C25.6486 5.41811 24.3508 5.0643 23.3322 5.64405L22.4382 6.15559C21.1517 4.9279 19.5731 4.01352 17.8637 3.50528V2.47051C17.8637 1.30035 16.9125 0.348633 15.7416 0.348633H13.5484C12.3762 0.348633 11.425 1.30035 11.425 2.47051V3.50528C9.81211 3.98584 8.3084 4.83101 7.0689 5.95316L6.18758 5.41812C5.70499 5.12513 5.13226 5.03661 4.58236 5.17085C4.03119 5.30623 3.56764 5.64722 3.273 6.13108L2.13379 8.00772C1.52675 9.00745 1.84682 10.315 2.84629 10.9224L3.72382 11.4553C3.47745 12.3931 3.35424 13.3555 3.35424 14.3177C3.35424 15.1095 3.44568 15.9248 3.62856 16.7432L2.72181 17.2441C2.22652 17.5191 1.86709 17.9698 1.71088 18.5155C1.55468 19.0611 1.62074 19.6345 1.89505 20.13L2.95799 22.0482ZM1.90017 18.5698C2.04241 18.0753 2.36874 17.6661 2.81831 17.4167L3.85335 16.8434L3.83684 16.7709C3.64634 15.9439 3.5498 15.1181 3.5498 14.3177C3.5498 13.348 3.67937 12.3782 3.9321 11.435L3.95117 11.3636L2.94915 10.754C2.04239 10.2031 1.75156 9.01697 2.30146 8.11008L3.44059 6.23344C3.70728 5.79441 4.13023 5.4853 4.62933 5.36274C5.1297 5.23702 5.6453 5.31906 6.08472 5.58651L7.09177 6.19826L7.14641 6.14822C8.39226 5.00474 9.91498 4.1489 11.5507 3.67367L11.6218 3.65234V2.47051C11.6218 1.40906 12.4854 0.544712 13.5484 0.544712H15.7416C16.8033 0.544712 17.6681 1.40906 17.6681 2.47051V3.65234L17.738 3.67367C19.4677 4.17557 21.064 5.10062 22.3543 6.34748L22.4077 6.39969L23.4313 5.81461C24.352 5.29023 25.5306 5.61001 26.0576 6.53074L27.146 8.43622C27.4012 8.8816 27.4673 9.40165 27.3327 9.89834C27.1955 10.3939 26.8755 10.8074 26.4297 11.0632L25.4035 11.6493L25.4201 11.7218C25.6309 12.5892 25.7389 13.462 25.7389 14.3177C25.7389 15.2289 25.6207 16.1507 25.3896 17.0565L25.3705 17.1279L26.3853 17.7268C27.2996 18.2651 27.6057 19.4479 27.0672 20.3623L25.9535 22.2529C25.415 23.1683 24.2327 23.4763 23.3183 22.9339L22.3074 22.3391L22.254 22.3903C20.9472 23.6202 19.3369 24.5227 17.5983 25.0013L17.5272 25.0204L17.5107 26.2034C17.5031 26.7181 17.2973 27.1987 16.929 27.5568C16.5671 27.9095 16.0908 28.1034 15.5879 28.1034L13.3668 28.0747C12.3063 28.0597 11.4541 27.1849 11.4668 26.1234L11.4821 24.9416L11.411 24.9202C9.69395 24.397 8.11028 23.4507 6.83396 22.1814L6.78195 22.1302L5.74815 22.7036C5.29858 22.9541 4.77533 23.0137 4.28385 22.8699C3.78983 22.7281 3.38095 22.402 3.13077 21.9523L2.06775 20.0341C1.81757 19.5854 1.75793 19.0642 1.90017 18.5698Z" fill="#231F20"/>
<path d="M3.73349 21.6189C3.89605 21.9087 4.15764 22.1176 4.47514 22.2081C4.79263 22.2987 5.12789 22.2615 5.41491 22.1016L6.91223 21.2704L7.0964 21.4643C8.41336 22.8539 10.0808 23.8514 11.921 24.3491L12.1788 24.4184L12.1572 26.1331C12.1521 26.4623 12.2779 26.7746 12.5077 27.0112C12.7389 27.2478 13.0475 27.381 13.3777 27.3842L15.5646 27.413C15.59 27.415 15.6166 27.4162 15.6433 27.4162C15.9303 27.4162 16.2135 27.2925 16.451 27.0634C16.6859 26.8321 16.818 26.5231 16.8218 26.1938L16.8447 24.4813L17.1063 24.4184C18.9706 23.9654 20.6673 23.0127 22.0109 21.6646L22.2001 21.476L23.6682 22.3414C24.2537 22.6867 25.0144 22.4894 25.3611 21.9033L26.4749 20.0129C26.6425 19.7283 26.6883 19.3958 26.6058 19.0761C26.5232 18.7564 26.3199 18.4879 26.0367 18.3195L24.5648 17.453L24.6385 17.1962C24.9116 16.2413 25.05 15.2737 25.05 14.3178C25.05 13.4162 24.923 12.4933 24.6716 11.5726L24.6017 11.3147L26.0888 10.4642C26.3746 10.3012 26.5803 10.0358 26.6679 9.71616C26.7555 9.39752 26.7124 9.06504 26.5473 8.77828L25.4589 6.87282C25.2951 6.58618 25.0297 6.38057 24.7109 6.29421C24.3884 6.20569 24.0569 6.24938 23.7724 6.41359L22.2878 7.26079L22.1024 7.07004C20.7715 5.70062 19.09 4.72656 17.2384 4.25133L16.978 4.18415V2.47057C16.978 1.78847 16.4243 1.23438 15.7424 1.23438H13.5491C12.8672 1.23438 12.3122 1.78847 12.3122 2.47057V4.18415L12.0531 4.25133C10.2916 4.7042 8.67493 5.6111 7.37955 6.87612L7.19034 7.06255L5.7286 6.17598C5.14695 5.82102 4.38624 6.00859 4.03192 6.59151L2.89271 8.46714C2.72126 8.74959 2.67052 9.08104 2.74799 9.40171C2.82673 9.72365 3.02482 9.99429 3.30802 10.1648L4.76465 11.0504L4.68721 11.305C4.39131 12.2844 4.24143 13.2979 4.24143 14.3178C4.24143 15.1715 4.357 16.0505 4.58559 16.9297L4.65295 17.1887L3.15183 18.0189C2.86228 18.1809 2.65399 18.4441 2.56382 18.7595C2.47365 19.0772 2.51046 19.4106 2.67048 19.6994L3.73349 21.6189ZM2.75303 18.8129C2.82923 18.5476 3.0045 18.3268 3.24834 18.1916L4.81418 17.3241L4.88022 17.2867L4.77488 16.8807C4.55136 16.0175 4.437 15.1555 4.437 14.3178C4.437 13.3172 4.58563 12.3228 4.87518 11.3627L4.99711 10.9609L3.40964 9.99645C3.17216 9.85256 3.00579 9.62561 2.93976 9.35485C2.87372 9.08524 2.91686 8.8061 3.06037 8.5695L4.19958 6.69388C4.49675 6.20367 5.13804 6.04594 5.62698 6.34425L7.21701 7.30981L7.51675 7.01683C8.788 5.77631 10.3742 4.88543 12.1013 4.44094L12.509 4.33769V2.47057C12.509 1.89718 12.9751 1.43046 13.5491 1.43046H15.7424C16.3151 1.43046 16.7824 1.89718 16.7824 2.47057V4.33769L17.1888 4.44094C19.0062 4.90778 20.6559 5.86369 21.9614 7.20643L22.2535 7.50805L23.8702 6.58415C24.1115 6.44775 24.3896 6.41258 24.6589 6.48395C24.9281 6.55634 25.1516 6.73007 25.2887 6.97099L26.3771 8.87645C26.5155 9.11724 26.5511 9.39638 26.4787 9.66498C26.4051 9.93244 26.2323 10.1563 25.9898 10.2937L24.3718 11.2188L24.4823 11.6238C24.7287 12.5274 24.8544 13.4344 24.8544 14.3178C24.8544 15.2557 24.7173 16.2051 24.448 17.1418L24.3324 17.5447L25.9364 18.4899C26.4317 18.7809 26.5969 19.4193 26.3048 19.9127L25.1922 21.8032C24.8989 22.2955 24.2614 22.4629 23.7686 22.1708L22.1684 21.2287L21.8725 21.5262C20.5543 22.8486 18.8893 23.7821 17.0593 24.2265L16.6504 24.3257L16.6262 26.1917C16.6224 26.4688 16.5107 26.7287 16.3126 26.9228C16.0954 27.1327 15.8414 27.2308 15.5735 27.2169L13.3789 27.1881C13.1021 27.1849 12.843 27.073 12.6487 26.8738C12.4556 26.6744 12.3503 26.4123 12.3528 26.1352L12.3769 24.2692L11.9731 24.1595C10.1672 23.6713 8.5302 22.692 7.23863 21.3279L6.9516 21.0252L5.3184 21.9289C5.07711 22.0632 4.79643 22.0951 4.52846 22.0184C4.26304 21.9427 4.04208 21.767 3.90619 21.5229L2.84317 19.6036C2.70856 19.3616 2.67683 19.0803 2.75303 18.8129Z" fill="#231F20"/>
<path d="M14.6447 20.2182C17.8945 20.2182 20.5386 17.5745 20.5386 14.3246C20.5386 11.0749 17.8945 8.43066 14.6447 8.43066C11.3948 8.43066 8.75195 11.0749 8.75195 14.3246C8.75195 17.5745 11.3948 20.2182 14.6447 20.2182ZM14.6447 9.31431C17.4081 9.31431 19.6547 11.5619 19.6547 14.3246C19.6547 17.0869 17.4081 19.3344 14.6447 19.3344C11.8825 19.3344 9.63591 17.0869 9.63591 14.3246C9.63591 11.5619 11.8825 9.31431 14.6447 9.31431Z" fill="#010101"/>
<path d="M19.3788 36.0725H15.9371C15.6234 36.0725 15.3682 36.3265 15.3682 36.6402C15.3682 36.9551 15.6234 37.2104 15.9371 37.2104V37.2167H22.6197L28.4756 32.1099L28.3854 32.02C27.8101 31.4445 26.77 31.44 26.182 31.9989L22.8585 34.8178C22.814 34.8546 22.7607 34.8736 22.7073 34.8736C22.6413 34.8736 22.5752 34.8457 22.5295 34.7911C22.4457 34.6933 22.4584 34.5447 22.5562 34.4622L25.2168 32.2052C24.6212 31.6725 23.6077 31.6852 23.0426 32.2509L22.1016 33.191V33.3485C22.1016 34.8508 20.8812 36.0725 19.3788 36.0725Z" fill="white"/>
<path d="M24.145 39.7417L31.6836 32.2033L31.5007 32.0211C30.9902 31.5106 30.1139 31.448 29.5094 31.8295L22.8623 37.6259C22.8204 37.664 22.7658 37.6843 22.7099 37.6843H15.9397V37.678C15.3682 37.678 14.9034 37.2119 14.9034 36.6404C14.9034 36.0702 15.3682 35.6054 15.9397 35.6054H19.3814C20.5917 35.6054 21.5733 34.6465 21.6279 33.4486H13.89C12.8664 33.4486 11.8657 33.8636 11.143 34.5868L9.78921 35.9381C9.39424 36.3343 8.84814 36.5604 8.28809 36.5617V42.1635H15.6692L24.145 39.7417Z" fill="white"/>
<path d="M7.04133 43.4079V34.6934H1.43945V43.4079H7.04133ZM4.55215 40.2952C4.89504 40.2952 5.17442 40.5746 5.17442 40.9175C5.17442 41.2617 4.89504 41.5411 4.55215 41.5411C4.20671 41.5411 3.92855 41.2617 3.92855 40.9175C3.92855 40.5746 4.20671 40.2952 4.55215 40.2952Z" fill="white"/>
<path d="M4.55133 41.5417C4.89422 41.5417 5.1736 41.2623 5.1736 40.9182C5.1736 40.5753 4.89422 40.2959 4.55133 40.2959C4.20716 40.2959 3.92773 40.5753 3.92773 40.9182C3.92773 41.2623 4.20716 41.5417 4.55133 41.5417Z" fill="#010101"/>
<path d="M7.04056 43.4065H1.43868C1.09452 43.4065 0.816406 43.6846 0.816406 44.0288C0.816406 44.3729 1.09452 44.651 1.43868 44.651H7.66407C8.00696 44.651 8.28635 44.3729 8.28635 44.0288V43.4065H15.7551C15.8123 43.4065 15.8694 43.3988 15.9253 43.3836L24.6411 40.8932C24.7427 40.864 24.8354 40.8094 24.9104 40.7344L33.0026 32.6421C33.2452 32.3989 33.2452 32.0044 33.0026 31.761L32.3791 31.1385C31.4342 30.193 29.9153 30.0732 28.8269 30.7825C27.8313 30.1364 26.4876 30.1911 25.5402 30.9229C24.4671 30.3307 23.0613 30.4719 22.1621 31.3684L21.329 32.2017H13.8882C12.537 32.2017 11.2136 32.75 10.2611 33.7054L8.90738 35.0564C8.74482 35.2202 8.51748 35.3142 8.28635 35.3142V34.0683C8.28635 33.7248 8.00696 33.4462 7.66407 33.4462H1.43868C1.09452 33.4462 0.816406 33.7248 0.816406 34.0683C0.816406 34.4125 1.09452 34.6919 1.43868 34.6919H7.04056V43.4065ZM22.1024 33.1896L23.0434 32.2495C23.6086 31.6838 24.6221 31.6711 25.2177 32.2038L22.5571 34.4608C22.4593 34.5433 22.4466 34.6919 22.5304 34.7897C22.5761 34.8443 22.6422 34.8722 22.7082 34.8722C22.7615 34.8722 22.8149 34.8532 22.8594 34.8163L26.1829 31.9975C26.7709 31.4386 27.8122 31.443 28.3863 32.0186L28.4764 32.1085L22.6206 37.2153H15.938V37.209C15.6243 37.209 15.369 36.9537 15.369 36.6388C15.369 36.3251 15.6243 36.0711 15.938 36.0711H19.3796C20.882 36.0711 22.1024 34.8494 22.1024 33.3471V33.1896ZM8.28635 36.56C8.84641 36.5588 9.39255 36.3327 9.78878 35.9365L11.1413 34.5852C11.8639 33.862 12.8646 33.4469 13.8882 33.4469H21.6262C21.5716 34.6449 20.5899 35.6037 19.3796 35.6037H15.938C15.3665 35.6037 14.9017 36.0685 14.9017 36.6388C14.9017 37.2103 15.3665 37.6763 15.938 37.6763V37.6827H22.7082C22.7641 37.6827 22.8187 37.6624 22.8606 37.6243L29.5077 31.8278C30.1122 31.4463 30.9884 31.5089 31.499 32.0195L31.6831 32.2017L24.1433 39.74L15.6675 42.1619H8.28635V36.56Z" fill="#010101"/>
</svg>
