<svg width="41" height="24" viewBox="0 0 41 24" fill="none" xmlns="http://www.w3.org/2000/svg">
<path fill-rule="evenodd" clip-rule="evenodd" d="M32.7267 4.74219H40.1511V19.5909H32.7267V4.74219ZM0.908203 4.74219H8.33258V19.5909H0.908203V4.74219Z" fill="white"/>
<path fill-rule="evenodd" clip-rule="evenodd" d="M6.21089 14.82C6.21089 15.1131 5.97464 15.3502 5.68152 15.3502C5.38752 15.3502 5.15039 15.1131 5.15039 14.82C5.15039 14.526 5.38752 14.2897 5.68152 14.2897C5.97464 14.2897 6.21089 14.526 6.21089 14.82ZM35.9084 9.51658C35.9084 9.8097 35.6721 10.0468 35.3781 10.0468C35.085 10.0468 34.8479 9.81058 34.8479 9.51658C34.8479 9.22345 35.0841 8.98633 35.3781 8.98633C35.6713 8.98633 35.9084 9.22258 35.9084 9.51658Z" fill="black"/>
<path fill-rule="evenodd" clip-rule="evenodd" d="M39.4362 18.5713H33.005V6.09376H39.4362C39.8308 6.09376 40.1502 5.76564 40.1502 5.35964C40.1502 4.95451 39.8308 4.62639 39.4362 4.62639H32.2901C31.8955 4.62639 31.5761 4.95451 31.5761 5.35964V5.40601L27.1197 4.41026L28.6536 6.25651L31.5761 6.90839V17.7689L26.3051 21.7685C25.3128 22.507 23.9951 22.5648 22.9416 21.9173L22.8296 21.849L24.2952 20.6468C24.6032 20.393 24.654 19.9319 24.4072 19.6151C24.1613 19.2993 23.7116 19.2459 23.4027 19.4996L20.7716 21.6609C20.7401 21.6836 20.706 21.7046 20.6753 21.7221C20.2186 21.968 19.6533 21.8289 19.3602 21.3879C19.0627 20.9408 19.1563 20.3405 19.5553 20.001L21.2826 18.6071C21.5915 18.3569 21.6457 17.8958 21.4025 17.5773C21.1583 17.2588 20.7112 17.201 20.398 17.4539L18.8247 18.7253L18.8221 18.7261C18.816 18.7305 18.8116 18.7366 18.8055 18.7401L17.5945 19.7201C17.1307 20.0439 16.4981 19.9214 16.184 19.4445C15.8908 19.0044 15.9783 18.4155 16.3616 18.0734L18.1046 16.7049C18.4178 16.4581 18.4782 15.9979 18.2385 15.6759C17.9996 15.3539 17.5516 15.2935 17.2366 15.5376L15.6581 16.7784C15.6546 16.781 15.6493 16.781 15.6458 16.7836C15.6231 16.7994 15.6047 16.8204 15.5828 16.837L14.4147 17.7558C13.9527 18.0778 13.3201 17.957 13.006 17.481C12.6892 17.0059 12.8091 16.3558 13.2728 16.032C13.2991 16.0136 13.3122 15.9865 13.3358 15.9655L13.3437 15.9743L21.735 8.33376L25.039 11.5494C26.0058 12.4926 27.5056 12.4708 28.4488 11.5021C29.1681 10.7628 29.4857 9.99539 29.519 9.91051L29.6835 9.49926L22.8121 1.16139C22.3046 0.548888 21.4707 0.335388 20.7445 0.635513L9.4832 5.23451V4.84951C9.4832 4.44351 9.16383 4.11451 8.76833 4.11451H1.62308C1.22758 4.11451 0.908203 4.44351 0.908203 4.84951C0.908203 5.25464 1.22758 5.58276 1.62308 5.58276H8.05433V18.0603H1.62308C1.22758 18.0603 0.908203 18.3884 0.908203 18.7953C0.908203 19.1995 1.22758 19.5285 1.62308 19.5285H8.76833C9.16383 19.5285 9.4832 19.1995 9.4832 18.7944V6.81476L21.2721 1.99876C21.4296 1.93751 21.6142 1.98126 21.7227 2.11251L28.0008 9.73026C27.8775 9.93676 27.6911 10.2045 27.4382 10.4644C27.0471 10.8669 26.4232 10.8774 26.0207 10.4836L21.7656 6.34226L18.7083 9.12739C17.7108 9.74864 16.5515 10.0313 15.3676 9.90876C13.9195 9.76439 12.6131 9.04864 11.6891 7.89364C11.5946 7.77726 11.4266 7.76064 11.312 7.85514C11.1965 7.95226 11.1807 8.12639 11.2743 8.24364C12.2893 9.51151 13.7252 10.2981 15.3168 10.4574C15.5146 10.4775 15.7106 10.4871 15.9075 10.4871C16.4298 10.4871 16.9443 10.4171 17.4422 10.2806L12.3961 14.877L12.3978 14.8788C11.8991 15.255 11.5578 15.7984 11.4423 16.4275C11.3207 17.0864 11.4572 17.754 11.8238 18.3088C12.2937 19.0149 13.055 19.3981 13.8381 19.3981C14.0997 19.3981 14.3613 19.3509 14.6168 19.2634C14.6746 19.6213 14.798 19.9643 15.0036 20.2723C15.4717 20.9775 16.2303 21.3616 17.0143 21.3616C17.276 21.3616 17.5393 21.3144 17.7966 21.226C17.8535 21.5708 17.9768 21.9085 18.1798 22.2148C18.6506 22.9235 19.4136 23.312 20.1993 23.312C20.5887 23.312 20.9842 23.2158 21.35 23.0154C21.427 22.9734 21.5013 22.927 21.6186 22.8421L21.6378 22.8264L22.2083 23.1764C22.9215 23.6165 23.7186 23.8344 24.514 23.8344C25.4397 23.8344 26.3637 23.5386 27.1486 22.9541L31.6251 19.5574C31.7257 19.8374 31.9812 20.0386 32.2901 20.0386H39.4362C39.8308 20.0386 40.1502 19.7114 40.1502 19.3054C40.1502 18.8994 39.8308 18.5713 39.4362 18.5713Z" fill="black"/>
</svg>
