<svg width="48" height="48" viewBox="0 0 48 48" fill="none" xmlns="http://www.w3.org/2000/svg">
<path fill-rule="evenodd" clip-rule="evenodd" d="M23.9763 16.9587C25.8409 16.9587 27.3578 18.4756 27.3578 20.3402C27.3578 22.2047 25.8409 23.7216 23.9763 23.7216C22.1118 23.7216 20.5938 22.2047 20.5938 20.3402C20.5938 18.4756 22.1118 16.9587 23.9763 16.9587ZM31.9672 23.82C31.9672 19.4138 28.3826 15.8291 23.9763 15.8291C19.5701 15.8291 15.9844 19.4138 15.9844 23.82C15.9844 25.9937 16.8594 27.9641 18.2715 29.4061C18.4961 26.6494 20.9554 24.4629 23.9763 24.4629C26.9983 24.4629 29.4555 26.6494 29.6801 29.4061C31.0922 27.9641 31.9672 25.9937 31.9672 23.82Z" fill="white"/>
<path fill-rule="evenodd" clip-rule="evenodd" d="M23.9776 18.458C22.9379 18.458 22.0928 19.3031 22.0928 20.3418C22.0928 21.3805 22.9379 22.2245 23.9776 22.2245C25.0163 22.2245 25.8614 21.3805 25.8614 20.3418C25.8614 19.3031 25.0163 18.458 23.9776 18.458Z" fill="white"/>
<path fill-rule="evenodd" clip-rule="evenodd" d="M23.9767 31.8123C26.0317 31.8123 28.2267 31.286 28.2267 29.8087C28.2267 27.6874 26.3194 25.9619 23.9767 25.9619C21.6329 25.9619 19.7256 27.6874 19.7256 29.8087C19.7256 30.4826 20.238 30.9725 21.0018 31.3009C21.1045 31.3298 21.1986 31.3544 21.2778 31.3641L21.2724 31.4004C22.0426 31.6753 23.0075 31.8123 23.9767 31.8123Z" fill="white"/>
<path fill-rule="evenodd" clip-rule="evenodd" d="M21.0586 4.60866C21.0586 6.21753 22.3679 7.52688 23.9779 7.52688C25.5857 7.52688 26.895 6.21753 26.895 4.60866C26.895 2.99978 25.5857 1.69043 23.9779 1.69043C22.3679 1.69043 21.0586 2.99978 21.0586 4.60866Z" fill="white"/>
<path fill-rule="evenodd" clip-rule="evenodd" d="M23.9769 40.0293C22.367 40.0293 21.0576 41.3386 21.0576 42.9475C21.0576 44.5553 22.367 45.8647 23.9769 45.8647C25.5858 45.8647 26.8951 44.5553 26.8951 42.9475C26.8951 41.3386 25.5858 40.0293 23.9769 40.0293Z" fill="white"/>
<path fill-rule="evenodd" clip-rule="evenodd" d="M40.4877 10.3665C40.4877 8.75759 39.1784 7.44824 37.5695 7.44824C35.9617 7.44824 34.6523 8.75759 34.6523 10.3665C34.6523 11.9753 35.9617 13.2847 37.5695 13.2847C39.1784 13.2847 40.4877 11.9753 40.4877 10.3665Z" fill="white"/>
<path fill-rule="evenodd" clip-rule="evenodd" d="M10.3733 13.2847C11.9833 13.2847 13.2926 11.9753 13.2926 10.3665C13.2926 8.75759 11.9833 7.44824 10.3733 7.44824C8.76443 7.44824 7.45508 8.75759 7.45508 10.3665C7.45508 11.9753 8.76443 13.2847 10.3733 13.2847Z" fill="white"/>
<path fill-rule="evenodd" clip-rule="evenodd" d="M4.76393 26.7388C6.37388 26.7388 7.68323 25.4294 7.68323 23.8206C7.68323 22.2117 6.37388 20.9023 4.76393 20.9023C3.15505 20.9023 1.8457 22.2117 1.8457 23.8206C1.8457 25.4294 3.15505 26.7388 4.76393 26.7388Z" fill="white"/>
<path fill-rule="evenodd" clip-rule="evenodd" d="M10.3733 40.3355C11.9833 40.3355 13.2926 39.0261 13.2926 37.4172C13.2926 35.8084 11.9833 34.499 10.3733 34.499C8.76443 34.499 7.45508 35.8084 7.45508 37.4172C7.45508 39.0261 8.76443 40.3355 10.3733 40.3355Z" fill="white"/>
<path fill-rule="evenodd" clip-rule="evenodd" d="M34.6523 37.4173C34.6523 39.0262 35.9617 40.3356 37.5706 40.3356C39.1784 40.3356 40.4877 39.0262 40.4877 37.4173C40.4877 35.8074 39.1784 34.498 37.5706 34.498C35.9617 34.498 34.6523 35.8074 34.6523 37.4173Z" fill="white"/>
<path fill-rule="evenodd" clip-rule="evenodd" d="M43.2357 20.9033C41.6258 20.9033 40.3164 22.2127 40.3164 23.8215C40.3164 25.4304 41.6258 26.7398 43.2357 26.7398C44.8446 26.7398 46.1539 25.4304 46.1539 23.8215C46.1539 22.2127 44.8446 20.9033 43.2357 20.9033Z" fill="white"/>
<path fill-rule="evenodd" clip-rule="evenodd" d="M25.861 20.3414C25.861 21.3801 25.0159 22.2252 23.9772 22.2252C22.9385 22.2252 22.0934 21.3801 22.0934 20.3414C22.0934 19.3027 22.9385 18.4576 23.9772 18.4576C25.0159 18.4576 25.861 19.3027 25.861 20.3414ZM23.9772 23.7228C25.8418 23.7228 27.3586 22.2059 27.3586 20.3414C27.3586 18.4768 25.8418 16.96 23.9772 16.96C22.1127 16.96 20.5947 18.4768 20.5947 20.3414C20.5947 22.2059 22.1127 23.7228 23.9772 23.7228Z" fill="black"/>
<path fill-rule="evenodd" clip-rule="evenodd" d="M17.8337 6.80592L17.2571 5.42383L15.875 6.00148L16.4516 7.38358L17.8337 6.80592Z" fill="black"/>
<path fill-rule="evenodd" clip-rule="evenodd" d="M40.3506 31.5277L41.7338 32.1021L42.3082 30.719L40.925 30.1445L40.3506 31.5277Z" fill="black"/>
<path fill-rule="evenodd" clip-rule="evenodd" d="M23.9769 45.8646C22.367 45.8646 21.0577 44.5552 21.0577 42.9463C21.0577 41.3385 22.367 40.0292 23.9769 40.0292C25.5858 40.0292 26.8952 41.3385 26.8952 42.9463C26.8952 44.5552 25.5858 45.8646 23.9769 45.8646ZM37.57 34.4987C39.1789 34.4987 40.4883 35.808 40.4883 37.418C40.4883 39.0258 39.1789 40.3351 37.57 40.3351C35.9611 40.3351 34.6518 39.0258 34.6518 37.418C34.6518 35.808 35.9611 34.4987 37.57 34.4987ZM10.3732 7.44837C11.9831 7.44837 13.2925 8.75772 13.2925 10.3666C13.2925 11.9755 11.9831 13.2838 10.3732 13.2838C8.7643 13.2838 7.45602 11.9755 7.45602 10.3666C7.45602 8.75772 8.7643 7.44837 10.3732 7.44837ZM43.2353 26.7388C41.6254 26.7388 40.316 25.4295 40.316 23.8206C40.316 22.2117 41.6254 20.9034 43.2353 20.9034C44.8442 20.9034 46.1525 22.2117 46.1525 23.8206C46.1525 25.4295 44.8442 26.7388 43.2353 26.7388ZM34.6518 10.3666C34.6518 8.75772 35.9611 7.44837 37.57 7.44837C39.1789 7.44837 40.4883 8.75772 40.4883 10.3666C40.4883 11.9755 39.1789 13.2838 37.57 13.2838C35.9611 13.2838 34.6518 11.9755 34.6518 10.3666ZM28.1521 5.98284L33.6922 8.29881C33.3606 8.91818 33.1542 9.61565 33.1542 10.3666C33.1542 11.4502 33.5617 12.4312 34.2121 13.2003L30.482 16.9305C28.8421 15.3815 26.6566 14.4123 24.2444 14.3449V8.99734C26.0779 8.88502 27.598 7.66018 28.1521 5.98284ZM26.8952 4.60823C26.8952 6.21711 25.5858 7.52646 23.9769 7.52646C22.367 7.52646 21.0577 6.21711 21.0577 4.60823C21.0577 2.99936 22.367 1.69001 23.9769 1.69001C25.5858 1.69001 26.8952 2.99936 26.8952 4.60823ZM29.6808 29.4067C29.4561 26.65 26.9989 24.4635 23.9769 24.4635C20.956 24.4635 18.4967 26.65 18.2721 29.4067C16.86 27.9647 15.985 25.9932 15.985 23.8206C15.985 19.4144 19.5707 15.8297 23.9769 15.8297C28.3832 15.8297 31.9678 19.4144 31.9678 23.8206C31.9678 25.9943 31.0928 27.9647 29.6808 29.4067ZM10.3732 34.4987C11.9831 34.4987 13.2925 35.808 13.2925 37.418C13.2925 39.0258 11.9831 40.3351 10.3732 40.3351C8.7643 40.3351 7.45602 39.0258 7.45602 37.418C7.45602 35.808 8.7643 34.4987 10.3732 34.4987ZM21.002 31.3002C20.2382 30.9728 19.7258 30.4829 19.7258 29.8079C19.7258 27.6866 21.6332 25.9611 23.9769 25.9611C26.3197 25.9611 28.227 27.6866 28.227 29.8079C28.227 31.2852 26.0319 31.8115 23.9769 31.8115C23.0078 31.8115 22.0429 31.6746 21.2727 31.4007L21.278 31.3633C21.1989 31.3537 21.1047 31.3301 21.002 31.3002ZM9.15368 24.088H14.5013C14.5259 24.962 14.6607 25.8092 14.9067 26.6083C14.9399 26.8437 15.0062 27.0929 15.0896 27.3796C15.402 28.4322 15.7903 29.7426 14.4799 30.9921L14.5259 31.0392C13.2368 32.1217 12.0462 32.4405 10.8749 32.7539C10.5261 32.847 10.1796 32.9433 9.83189 33.0556C9.32698 33.1176 8.85095 33.261 8.41236 33.4803L6.13704 27.9968C7.81438 27.4427 9.04136 25.9216 9.15368 24.088ZM4.76351 20.9034C6.37345 20.9034 7.6828 22.2117 7.6828 23.8206C7.6828 25.4295 6.37345 26.7388 4.76351 26.7388C3.15463 26.7388 1.84635 25.4295 1.84635 23.8206C1.84635 22.2117 3.15463 20.9034 4.76351 20.9034ZM47.6512 23.8206C47.6512 21.3859 45.67 19.4048 43.2353 19.4048C42.1602 19.4048 41.1857 19.807 40.4187 20.4477C40.255 20.5376 40.0914 20.6285 39.9245 20.7227C38.7917 21.3634 37.5636 22.0566 35.8125 22.2214V22.1229C33.9404 22.1229 33.2825 20.9537 32.7541 20.0145C32.6097 19.7578 32.4802 19.5449 32.3594 19.3844C31.955 18.6249 31.4469 17.9296 30.8607 17.3092L34.5769 13.5929C35.3653 14.3246 36.4115 14.7824 37.57 14.7824C40.0047 14.7824 41.9859 12.8013 41.9859 10.3666C41.9859 7.93189 40.0047 5.94968 37.57 5.94968C36.4479 5.94968 35.4327 6.38399 34.6529 7.07717L28.3768 4.45312C28.2933 2.09116 26.3592 0.192383 23.9769 0.192383C21.5947 0.192383 19.6595 2.09116 19.5761 4.45419L18.639 4.84571L19.2156 6.22781L19.8007 5.98284C20.3559 7.66018 21.8771 8.88502 23.7095 8.99734V14.3449C18.6914 14.4861 14.6414 18.5351 14.5013 23.5532H9.15368C9.04136 21.7207 7.81545 20.1996 6.13704 19.6454L8.34711 14.2668C8.95685 14.5856 9.63934 14.7824 10.3732 14.7824C12.809 14.7824 14.7901 12.8013 14.7901 10.3666C14.7901 9.61672 14.5847 8.92139 14.2542 8.30308L15.0714 7.96077L14.4949 6.57868L13.2957 7.08038C12.5148 6.38613 11.4975 5.94968 10.3732 5.94968C7.93847 5.94968 5.95733 7.93189 5.95733 10.3666C5.95733 11.5069 6.40447 12.5382 7.11692 13.3223L4.61054 19.4208C2.2475 19.5032 0.347656 21.4383 0.347656 23.8206C0.347656 26.2018 2.24643 28.137 4.6084 28.2215L7.1704 34.3949C6.42373 35.1865 5.95733 36.2455 5.95733 37.418C5.95733 39.8527 7.93847 41.8327 10.3732 41.8327C12.6998 41.8327 14.5922 40.0195 14.758 37.7346C14.8318 37.4501 14.8981 37.1634 14.9623 36.8745C15.2244 35.6871 15.5036 34.4591 16.4931 33.1979L16.5327 33.2385C17.8945 31.9377 19.2937 32.3539 20.3153 32.6587C20.3966 32.6833 20.465 32.7004 20.5399 32.7218C21.462 33.0984 22.6237 33.3102 23.9769 33.3102C25.9602 33.3102 27.4825 32.9005 28.4677 32.1763C29.2058 31.7783 29.8797 31.2798 30.4841 30.7086L34.2785 34.5029C33.5874 35.2828 33.1542 36.2958 33.1542 37.418C33.1542 38.1272 33.3382 38.7894 33.6377 39.3841L28.1756 41.6487C27.6172 39.8495 25.957 38.5316 23.9769 38.5316C21.5422 38.5316 19.56 40.5116 19.56 42.9463C19.56 45.3821 21.5422 47.3622 23.9769 47.3622C26.3282 47.3622 28.2388 45.5105 28.3682 43.1902L34.5545 40.625C35.345 41.3685 36.4019 41.8327 37.57 41.8327C40.0047 41.8327 41.9859 39.8527 41.9859 37.418C41.9859 36.2498 41.5216 35.194 40.7792 34.4024L41.16 33.4856L39.778 32.9112L39.5383 33.4846C38.9436 33.185 38.2814 33.001 37.57 33.001C36.4489 33.001 35.4359 33.4343 34.6561 34.1243L30.8617 30.331C31.5068 29.6485 32.0491 28.8729 32.4706 28.0246C32.6247 27.8267 32.752 27.5903 32.8974 27.3133C33.3842 26.3837 33.9907 25.2273 35.8125 25.2273V25.1246C37.5518 25.3065 38.7703 26.0638 39.8956 26.7645C39.9448 26.7955 39.9919 26.8223 40.04 26.8522C40.5278 27.3657 41.1376 27.7508 41.8222 27.984L41.4991 28.7617L42.8823 29.3361L43.3434 28.2258C45.7278 28.1669 47.6512 26.2179 47.6512 23.8206Z" fill="black"/>
</svg>
