<svg width="474" height="731" viewBox="0 0 474 731" fill="none" xmlns="http://www.w3.org/2000/svg">
<ellipse cx="227" cy="506.5" rx="226" ry="111.5" fill="#1FC282"/>
<path d="M183.611 454.926V276.266C183.611 248.574 161.162 226.124 133.469 226.124C105.776 226.124 83.3265 248.574 83.3265 276.266L83.3265 454.926C83.3265 482.619 105.776 505.068 133.469 505.068C161.162 505.068 183.611 482.619 183.611 454.926Z" fill="white"/>
<path d="M133.47 316.322C155.027 316.322 172.502 298.846 172.502 277.289C172.502 255.732 155.027 238.257 133.47 238.257C111.913 238.257 94.4375 255.732 94.4375 277.289C94.4375 298.846 111.913 316.322 133.47 316.322Z" fill="#DBDBDB"/>
<path opacity="0.7" d="M146.654 262.136H119.414C117.856 262.136 116.594 263.398 116.594 264.956V292.553C116.594 294.11 117.856 295.373 119.414 295.373H146.654C148.212 295.373 149.475 294.11 149.475 292.553V264.956C149.475 263.398 148.212 262.136 146.654 262.136Z" stroke="#221F1F" stroke-width="0.77" stroke-miterlimit="10"/>
<path d="M158.461 270.208V269.309H150.435V264.754C150.435 262.786 148.823 261.174 146.855 261.174H142.47V253.318H141.572V261.174H133.468V253.318H132.569V261.174H124.465V253.318H123.566V261.174H119.197C117.229 261.174 115.617 262.786 115.617 264.754V269.309H107.575V270.208H115.617V278.312H107.575V279.211H115.617V287.315H107.575V288.214H115.617V292.769C115.617 294.737 117.229 296.348 119.197 296.348H123.566V304.205H124.465V296.348H132.569V304.205H133.468V296.348H141.572V304.205H142.47V296.348H146.855C148.823 296.348 150.435 294.737 150.435 292.769V288.214H158.461V287.315H150.435V279.211H158.461V278.312H150.435V270.208H158.461ZM148.529 292.754C148.529 293.668 147.785 294.427 146.855 294.427H119.212C118.298 294.427 117.539 293.683 117.539 292.754V264.754C117.539 263.84 118.282 263.08 119.212 263.08H146.855C147.77 263.08 148.529 263.824 148.529 264.754V292.754Z" fill="#BBBDBF"/>
<path d="M146.856 263.095H119.228C118.304 263.095 117.555 263.844 117.555 264.768V292.753C117.555 293.677 118.304 294.426 119.228 294.426H146.856C147.78 294.426 148.53 293.677 148.53 292.753V264.768C148.53 263.844 147.78 263.095 146.856 263.095Z" fill="white"/>
<path d="M133.469 492.565C155.026 492.565 172.501 475.089 172.501 453.532C172.501 431.975 155.026 414.5 133.469 414.5C111.912 414.5 94.4365 431.975 94.4365 453.532C94.4365 475.089 111.912 492.565 133.469 492.565Z" fill="#3DE286"/>
<path d="M145.029 431.437C141.93 430.197 137.87 429.516 133.624 429.516C129.379 429.516 125.319 430.197 122.22 431.437C116.564 433.699 115.728 437.093 115.728 438.906V468.13C115.728 469.943 116.564 473.336 122.22 475.598C125.335 476.838 129.379 477.52 133.624 477.52C137.87 477.52 141.93 476.838 145.029 475.598C150.685 473.336 151.521 469.943 151.521 468.13V438.906C151.521 437.093 150.685 433.699 145.029 431.437Z" fill="white"/>
<path d="M145.029 431.437C141.93 430.197 137.87 429.516 133.624 429.516C129.379 429.516 125.319 430.197 122.22 431.437C116.564 433.699 115.728 437.093 115.728 438.906V468.13C115.728 469.943 116.564 473.336 122.22 475.598C125.335 476.838 129.379 477.52 133.624 477.52C137.87 477.52 141.93 476.838 145.029 475.598C150.685 473.336 151.521 469.943 151.521 468.13V438.906C151.521 437.093 150.685 433.699 145.029 431.437ZM149.739 460.243C149.058 461.591 147.601 463.125 144.564 464.349C141.604 465.542 137.715 466.193 133.609 466.193C129.503 466.193 125.613 465.542 122.654 464.349C119.648 463.14 118.191 461.637 117.509 460.305V451.1C118.408 452.294 119.896 453.518 122.406 454.509C125.443 455.733 129.425 456.4 133.609 456.4C137.793 456.4 141.775 455.733 144.812 454.509C147.353 453.502 148.856 452.263 149.739 451.054V460.243ZM149.739 449.783C149.058 451.131 147.601 452.665 144.564 453.89C141.604 455.083 137.715 455.733 133.609 455.733C129.503 455.733 125.613 455.083 122.654 453.89C119.648 452.681 118.191 451.178 117.509 449.845V440.13C118.408 441.323 119.896 442.547 122.406 443.539C125.443 444.763 129.425 445.429 133.609 445.429C137.793 445.429 141.775 444.763 144.812 443.539C147.353 442.532 148.856 441.292 149.739 440.083V449.783ZM122.871 433.095C125.768 431.933 129.596 431.298 133.624 431.298C137.653 431.298 141.465 431.933 144.378 433.095C148.965 434.923 149.724 437.434 149.755 438.828C149.073 440.176 147.617 441.71 144.58 442.919C141.62 444.112 137.715 444.763 133.624 444.763C129.534 444.763 125.629 444.112 122.669 442.919C119.663 441.71 118.207 440.207 117.525 438.875C117.525 437.496 118.253 434.954 122.902 433.095H122.871ZM144.363 473.94C141.465 475.102 137.638 475.738 133.609 475.738C129.58 475.738 125.768 475.102 122.855 473.94C118.176 472.065 117.479 469.493 117.479 468.13V461.544C118.377 462.737 119.865 463.961 122.375 464.953C125.412 466.177 129.394 466.844 133.578 466.844C137.762 466.844 141.744 466.177 144.781 464.953C147.322 463.946 148.825 462.706 149.708 461.498V468.114C149.708 469.478 149.011 472.05 144.332 473.925L144.363 473.94Z" fill="black"/>
<path d="M133.468 404.441C155.025 404.441 172.5 386.965 172.5 365.408C172.5 343.851 155.025 326.376 133.468 326.376C111.911 326.376 94.4355 343.851 94.4355 365.408C94.4355 386.965 111.911 404.441 133.468 404.441Z" fill="#DBDBDB"/>
<path d="M158.447 360.403V356.793C158.447 355.801 157.641 354.995 156.649 354.995H110.288C109.296 354.995 108.49 355.801 108.49 356.793V360.403C109.544 360.403 110.396 361.255 110.396 362.309C110.396 363.363 109.544 364.215 108.49 364.215V374.023C108.49 375.015 109.296 375.821 110.288 375.821H118.221V379.447C118.221 379.772 118.485 380.035 118.81 380.035H149.971C150.296 380.035 150.56 379.772 150.56 379.447V375.821H156.665C157.656 375.821 158.462 375.015 158.462 374.023V364.215C157.409 364.215 156.556 363.363 156.556 362.309C156.556 361.255 157.409 360.403 158.462 360.403H158.447Z" fill="white"/>
<path d="M124.388 358.667V370.149H119.414" stroke="#BBBDBF" stroke-width="0.39" stroke-miterlimit="10"/>
<path d="M131.873 358.667V370.149H126.914" stroke="#BBBDBF" stroke-width="0.39" stroke-miterlimit="10"/>
<path d="M139.356 358.667V370.149H134.397" stroke="#BBBDBF" stroke-width="0.39" stroke-miterlimit="10"/>
<path d="M146.856 358.667V370.149H141.882" stroke="#BBBDBF" stroke-width="0.39" stroke-miterlimit="10"/>
<path d="M113.835 372.6C114.837 372.6 115.648 371.788 115.648 370.787C115.648 369.785 114.837 368.974 113.835 368.974C112.834 368.974 112.022 369.785 112.022 370.787C112.022 371.788 112.834 372.6 113.835 372.6Z" fill="#BBBDBF"/>
<path d="M153.053 372.6C154.054 372.6 154.866 371.788 154.866 370.787C154.866 369.785 154.054 368.974 153.053 368.974C152.052 368.974 151.24 369.785 151.24 370.787C151.24 371.788 152.052 372.6 153.053 372.6Z" fill="#BBBDBF"/>
<path d="M158.447 360.403V356.793C158.447 355.801 157.641 354.995 156.649 354.995H110.288C109.296 354.995 108.49 355.801 108.49 356.793V360.403C109.544 360.403 110.396 361.255 110.396 362.309C110.396 363.363 109.544 364.215 108.49 364.215V374.023C108.49 375.015 109.296 375.821 110.288 375.821H118.221V379.447C118.221 379.772 118.485 380.035 118.81 380.035H149.971C150.296 380.035 150.56 379.772 150.56 379.447V375.821H156.665C157.656 375.821 158.462 375.015 158.462 374.023V364.215C157.409 364.215 156.556 363.363 156.556 362.309C156.556 361.255 157.409 360.403 158.462 360.403H158.447Z" stroke="#BBBDBF" stroke-width="1.16" stroke-miterlimit="10"/>
<path d="M123.581 375.526V379.524" stroke="#BBBDBF" stroke-width="0.39" stroke-miterlimit="10" stroke-linecap="round"/>
<path d="M131.065 375.526V379.524" stroke="#BBBDBF" stroke-width="0.39" stroke-miterlimit="10" stroke-linecap="round"/>
<path d="M127.333 375.526V379.524" stroke="#BBBDBF" stroke-width="0.39" stroke-miterlimit="10" stroke-linecap="round"/>
<path d="M138.566 375.526V379.524" stroke="#BBBDBF" stroke-width="0.39" stroke-miterlimit="10" stroke-linecap="round"/>
<path d="M134.815 375.526V379.524" stroke="#BBBDBF" stroke-width="0.39" stroke-miterlimit="10" stroke-linecap="round"/>
<path d="M146.049 375.526V379.524" stroke="#BBBDBF" stroke-width="0.39" stroke-miterlimit="10" stroke-linecap="round"/>
<path d="M142.3 375.526V379.524" stroke="#BBBDBF" stroke-width="0.39" stroke-miterlimit="10" stroke-linecap="round"/>
<path d="M143.618 268.334H122.467V289.485H143.618V268.334Z" stroke="#BBBDBF" stroke-width="0.39" stroke-miterlimit="10"/>
<path d="M105.548 510.616C107.004 509.16 107.004 506.789 105.548 505.317C104.091 503.845 101.72 503.86 100.248 505.317L102.572 502.993C104.029 501.536 104.029 499.165 102.572 497.693C101.116 496.221 98.7452 496.237 97.2731 497.693L99.4734 495.493C100.93 494.036 100.93 491.666 99.4734 490.194C98.0169 488.722 95.6461 488.737 94.1741 490.194L106.508 477.859C107.965 476.403 107.965 474.032 106.508 472.56C105.052 471.088 102.681 471.104 101.209 472.56L77.5013 496.268L77.4548 496.221C79.3142 494.362 82.0104 487.312 79.0818 482.167C74.8516 475.52 73.7204 481.547 73.5655 484.12C73.333 487.962 70.1565 491.371 68.1112 494.253C66.0503 497.136 67.2589 502.388 66.5617 505.565C65.8644 508.741 64.3303 511.174 64.3303 511.174L59 516.504L75.7038 533.208L81.0342 527.878C83.8388 525.073 92.8725 523.26 95.925 520.208C98.9776 517.155 105.517 510.616 105.517 510.616" fill="white"/>
<path d="M105.548 510.616C107.004 509.16 107.004 506.789 105.548 505.317C104.091 503.845 101.72 503.86 100.248 505.317L102.572 502.993C104.029 501.536 104.029 499.165 102.572 497.693C101.116 496.221 98.7452 496.237 97.2731 497.693L99.4734 495.493C100.93 494.036 100.93 491.666 99.4734 490.194C98.0169 488.722 95.6461 488.737 94.1741 490.194L106.508 477.859C107.965 476.403 107.965 474.032 106.508 472.56C105.052 471.088 102.681 471.104 101.209 472.56L77.5013 496.268L77.4548 496.221C79.3142 494.362 82.0104 487.312 79.0818 482.167C74.8516 475.52 73.7204 481.547 73.5655 484.12C73.333 487.962 70.1565 491.371 68.1112 494.253C66.0503 497.136 67.2589 502.388 66.5617 505.565C65.8644 508.741 64.3303 511.174 64.3303 511.174L59 516.504L75.7038 533.208L81.0342 527.878C83.8388 525.073 92.8725 523.26 95.925 520.208C98.9776 517.155 105.517 510.616 105.517 510.616" stroke="black" stroke-width="1.21" stroke-linecap="round" stroke-linejoin="round"/>
<path d="M81.065 527.878L64.3457 511.159" stroke="black" stroke-width="0.63" stroke-linecap="round" stroke-linejoin="round"/>
<path d="M288.907 421.186L216.728 457.284V475.332L303.185 517.715L375.365 481.617V463.568L288.907 421.186Z" fill="#BABCBE"/>
<path d="M375.365 481.618L303.186 517.716V499.667L375.365 463.569V481.618Z" fill="white"/>
<path opacity="0.1" d="M303.185 517.717L216.728 475.334V457.285L303.185 499.668V517.717Z" fill="black"/>
<path d="M303.185 499.667L216.728 457.284L288.907 421.138L375.365 463.521L303.185 499.667Z" fill="white"/>
<path d="M283.541 503.212C284.315 503.212 284.943 502.585 284.943 501.81C284.943 501.036 284.315 500.408 283.541 500.408C282.766 500.408 282.139 501.036 282.139 501.81C282.139 502.585 282.766 503.212 283.541 503.212Z" fill="black"/>
<path d="M216.728 464.229L302.347 506.21" stroke="#221F1F" stroke-width="0.83" stroke-linecap="round" stroke-linejoin="round"/>
<path d="M350.095 489.176C350.708 488.87 351.207 488.113 351.207 487.5V480.812C351.207 480.2 350.708 479.942 350.095 480.248C349.483 480.555 348.983 481.312 348.983 481.924V488.612C348.983 489.224 349.483 489.482 350.095 489.176Z" fill="black"/>
<path d="M354.557 486.937C355.17 486.631 355.669 485.873 355.669 485.261V478.573C355.669 477.961 355.17 477.703 354.557 478.009C353.945 478.315 353.445 479.073 353.445 479.685V486.373C353.445 486.985 353.945 487.243 354.557 486.937Z" fill="black"/>
<path d="M359.023 484.713C359.635 484.407 360.135 483.65 360.135 483.037V476.349C360.135 475.737 359.635 475.479 359.023 475.785C358.411 476.092 357.911 476.849 357.911 477.461V484.149C357.911 484.762 358.411 485.019 359.023 484.713Z" fill="black"/>
<path d="M363.47 482.489C364.083 482.182 364.582 481.425 364.582 480.813V474.125C364.582 473.512 364.083 473.255 363.47 473.561C362.858 473.867 362.358 474.624 362.358 475.237V481.925C362.358 482.537 362.858 482.795 363.47 482.489Z" fill="black"/>
<path d="M367.936 480.248C368.549 479.942 369.048 479.185 369.048 478.572V471.885C369.048 471.272 368.549 471.014 367.936 471.321C367.324 471.627 366.824 472.384 366.824 472.997V479.684C366.824 480.297 367.324 480.555 367.936 480.248Z" fill="black"/>
<path d="M312.915 505.502C313.884 504.26 314.056 502.774 313.299 502.183C312.541 501.591 311.141 502.118 310.171 503.36C309.202 504.602 309.03 506.088 309.788 506.679C310.546 507.271 311.946 506.744 312.915 505.502Z" fill="black"/>
<path opacity="0.3" d="M375.365 463.521L303.186 499.667" stroke="#221F1F" stroke-width="0.83" stroke-miterlimit="10" stroke-linecap="round"/>
<path d="M288.907 421.186L216.728 457.284V475.332L303.185 517.715L375.365 481.617V463.568L288.907 421.186Z" stroke="#211E1F" stroke-width="0.79" stroke-miterlimit="10"/>
<path d="M288.907 397.546L216.728 433.644V451.677L303.185 494.06L375.365 457.978V439.929L288.907 397.546Z" fill="#BABCBE"/>
<path d="M375.365 457.979L303.186 494.061V476.012L375.365 439.93V457.979Z" fill="white"/>
<path opacity="0.1" d="M303.185 494.06L216.728 451.677V433.645L303.185 476.011V494.06Z" fill="black"/>
<path d="M303.185 476.012L216.728 433.645L288.907 397.482L375.365 439.865L303.185 476.012Z" fill="white"/>
<path d="M283.541 479.574C284.315 479.574 284.943 478.946 284.943 478.172C284.943 477.397 284.315 476.77 283.541 476.77C282.766 476.77 282.139 477.397 282.139 478.172C282.139 478.946 282.766 479.574 283.541 479.574Z" fill="black"/>
<path d="M216.728 440.59L302.347 482.554" stroke="#221F1F" stroke-width="0.83" stroke-linecap="round" stroke-linejoin="round"/>
<path d="M350.096 465.521C350.709 465.215 351.208 464.457 351.208 463.845V457.157C351.208 456.545 350.709 456.287 350.096 456.593C349.484 456.899 348.984 457.657 348.984 458.269V464.957C348.984 465.569 349.484 465.827 350.096 465.521Z" fill="black"/>
<path d="M354.558 463.298C355.171 462.992 355.67 462.235 355.67 461.622V454.934C355.67 454.322 355.171 454.064 354.558 454.37C353.946 454.677 353.446 455.434 353.446 456.046V462.734C353.446 463.347 353.946 463.604 354.558 463.298Z" fill="black"/>
<path d="M359.024 461.074C359.636 460.767 360.136 460.01 360.136 459.398V452.71C360.136 452.097 359.636 451.84 359.024 452.146C358.412 452.452 357.912 453.209 357.912 453.822V460.51C357.912 461.122 358.412 461.38 359.024 461.074Z" fill="black"/>
<path d="M363.471 458.834C364.084 458.528 364.583 457.771 364.583 457.158V450.471C364.583 449.858 364.084 449.6 363.471 449.907C362.859 450.213 362.359 450.97 362.359 451.583V458.27C362.359 458.883 362.859 459.141 363.471 458.834Z" fill="black"/>
<path d="M367.937 456.61C368.55 456.304 369.049 455.546 369.049 454.934V448.246C369.049 447.634 368.55 447.376 367.937 447.682C367.325 447.988 366.825 448.746 366.825 449.358V456.046C366.825 456.658 367.325 456.916 367.937 456.61Z" fill="black"/>
<path d="M312.927 481.85C313.896 480.608 314.068 479.122 313.31 478.53C312.553 477.939 311.152 478.466 310.183 479.708C309.214 480.949 309.042 482.436 309.8 483.027C310.557 483.619 311.957 483.092 312.927 481.85Z" fill="black"/>
<path opacity="0.3" d="M375.365 439.864L303.186 476.011" stroke="#221F1F" stroke-width="0.83" stroke-miterlimit="10" stroke-linecap="round"/>
<path d="M288.907 397.546L216.728 433.644V451.677L303.185 494.06L375.365 457.978V439.929L288.907 397.546Z" stroke="#211E1F" stroke-width="0.79" stroke-miterlimit="10"/>
<path d="M288.907 373.905L216.728 409.987V428.036L303.185 470.419L375.365 434.321V416.288L288.907 373.905Z" fill="#BABCBE"/>
<path d="M375.365 434.32L303.186 470.418V452.369L375.365 416.287V434.32Z" fill="white"/>
<path opacity="0.1" d="M303.185 470.419L216.728 428.036V409.987L303.185 452.37V470.419Z" fill="black"/>
<path d="M303.185 452.369L216.728 409.986L288.907 373.84L375.365 416.223L303.185 452.369Z" fill="white"/>
<path d="M283.541 455.931C284.315 455.931 284.943 455.303 284.943 454.529C284.943 453.755 284.315 453.127 283.541 453.127C282.766 453.127 282.139 453.755 282.139 454.529C282.139 455.303 282.766 455.931 283.541 455.931Z" fill="black"/>
<path d="M216.728 416.932L302.347 458.912" stroke="#221F1F" stroke-width="0.83" stroke-linecap="round" stroke-linejoin="round"/>
<path d="M350.096 441.878C350.709 441.572 351.208 440.815 351.208 440.202V433.515C351.208 432.902 350.709 432.644 350.096 432.95C349.484 433.257 348.984 434.014 348.984 434.626V441.314C348.984 441.927 349.484 442.184 350.096 441.878Z" fill="black"/>
<path d="M354.56 439.656C355.173 439.349 355.672 438.592 355.672 437.98V431.292C355.672 430.679 355.173 430.422 354.56 430.728C353.948 431.034 353.448 431.791 353.448 432.404V439.092C353.448 439.704 353.948 439.962 354.56 439.656Z" fill="black"/>
<path d="M359.024 437.413C359.636 437.107 360.136 436.35 360.136 435.737V429.05C360.136 428.437 359.636 428.179 359.024 428.486C358.412 428.792 357.912 429.549 357.912 430.162V436.849C357.912 437.462 358.412 437.72 359.024 437.413Z" fill="black"/>
<path d="M363.472 435.192C364.085 434.886 364.584 434.128 364.584 433.516V426.828C364.584 426.216 364.085 425.958 363.472 426.264C362.86 426.57 362.36 427.328 362.36 427.94V434.628C362.36 435.24 362.86 435.498 363.472 435.192Z" fill="black"/>
<path d="M367.937 432.967C368.55 432.661 369.049 431.904 369.049 431.291V424.603C369.049 423.991 368.55 423.733 367.937 424.039C367.325 424.346 366.825 425.103 366.825 425.715V432.403C366.825 433.016 367.325 433.273 367.937 432.967Z" fill="black"/>
<path d="M312.921 458.211C313.89 456.969 314.062 455.483 313.304 454.892C312.547 454.3 311.147 454.827 310.177 456.069C309.208 457.311 309.036 458.797 309.794 459.388C310.551 459.98 311.951 459.453 312.921 458.211Z" fill="black"/>
<path opacity="0.3" d="M375.365 416.223L303.186 452.369" stroke="#221F1F" stroke-width="0.83" stroke-miterlimit="10" stroke-linecap="round"/>
<path d="M288.907 373.905L216.728 409.987V428.036L303.185 470.419L375.365 434.321V416.288L288.907 373.905Z" stroke="#211E1F" stroke-width="0.79" stroke-miterlimit="10"/>
<path d="M288.907 349.247L216.728 385.345V403.394L303.185 445.777L375.365 409.679V391.63L288.907 349.247Z" fill="#BABCBE"/>
<path d="M375.365 409.68L303.186 445.778V427.729L375.365 391.631V409.68Z" fill="white"/>
<path opacity="0.1" d="M303.185 445.777L216.728 403.394V385.345L303.185 427.728V445.777Z" fill="black"/>
<path d="M303.185 427.728L216.728 385.346L288.907 349.199L375.365 391.582L303.185 427.728Z" fill="#EFEEEE"/>
<path d="M283.541 431.29C284.315 431.29 284.943 430.663 284.943 429.888C284.943 429.114 284.315 428.486 283.541 428.486C282.766 428.486 282.139 429.114 282.139 429.888C282.139 430.663 282.766 431.29 283.541 431.29Z" fill="black"/>
<path d="M257.29 374.033C258.064 374.033 258.692 373.405 258.692 372.631C258.692 371.856 258.064 371.229 257.29 371.229C256.515 371.229 255.888 371.856 255.888 372.631C255.888 373.405 256.515 374.033 257.29 374.033Z" fill="black"/>
<path d="M278.272 355.5C279.046 355.5 279.674 354.873 279.674 354.098C279.674 353.324 279.046 352.696 278.272 352.696C277.498 352.696 276.87 353.324 276.87 354.098C276.87 354.873 277.498 355.5 278.272 355.5Z" fill="black"/>
<path d="M264.912 362.01C265.686 362.01 266.314 361.382 266.314 360.608C266.314 359.834 265.686 359.206 264.912 359.206C264.137 359.206 263.51 359.834 263.51 360.608C263.51 361.382 264.137 362.01 264.912 362.01Z" fill="black"/>
<path d="M260.464 364.168C261.238 364.168 261.866 363.541 261.866 362.766C261.866 361.992 261.238 361.364 260.464 361.364C259.689 361.364 259.062 361.992 259.062 362.766C259.062 363.541 259.689 364.168 260.464 364.168Z" fill="black"/>
<path d="M256.015 366.33C256.79 366.33 257.417 365.703 257.417 364.928C257.417 364.154 256.79 363.526 256.015 363.526C255.241 363.526 254.613 364.154 254.613 364.928C254.613 365.703 255.241 366.33 256.015 366.33Z" fill="black"/>
<path d="M251.568 368.504C252.342 368.504 252.97 367.877 252.97 367.102C252.97 366.328 252.342 365.7 251.568 365.7C250.794 365.7 250.166 366.328 250.166 367.102C250.166 367.877 250.794 368.504 251.568 368.504Z" fill="black"/>
<path d="M247.106 370.664C247.88 370.664 248.508 370.037 248.508 369.262C248.508 368.488 247.88 367.86 247.106 367.86C246.332 367.86 245.704 368.488 245.704 369.262C245.704 370.037 246.332 370.664 247.106 370.664Z" fill="black"/>
<path d="M242.657 372.84C243.431 372.84 244.059 372.212 244.059 371.438C244.059 370.664 243.431 370.036 242.657 370.036C241.883 370.036 241.255 370.664 241.255 371.438C241.255 372.212 241.883 372.84 242.657 372.84Z" fill="black"/>
<path d="M238.21 375C238.984 375 239.612 374.373 239.612 373.598C239.612 372.824 238.984 372.196 238.21 372.196C237.435 372.196 236.808 372.824 236.808 373.598C236.808 374.373 237.435 375 238.21 375Z" fill="black"/>
<path d="M224.865 381.51C225.639 381.51 226.267 380.882 226.267 380.108C226.267 379.334 225.639 378.706 224.865 378.706C224.091 378.706 223.463 379.334 223.463 380.108C223.463 380.882 224.091 381.51 224.865 381.51Z" fill="black"/>
<path d="M220.402 383.668C221.176 383.668 221.804 383.041 221.804 382.266C221.804 381.492 221.176 380.864 220.402 380.864C219.628 380.864 219 381.492 219 382.266C219 383.041 219.628 383.668 220.402 383.668Z" fill="black"/>
<path d="M216.728 392.29L302.347 434.27" stroke="#221F1F" stroke-width="0.83" stroke-linecap="round" stroke-linejoin="round"/>
<path d="M295.016 362.526L296.982 361.559L286.653 356.725L284.687 357.692L295.016 362.526Z" fill="black"/>
<path d="M275.371 372.179L275.291 372.357L277.627 371.196L267.298 366.346L265.187 367.409L275.371 372.179Z" fill="black"/>
<path d="M284.121 367.957L273.791 363.122L271.696 364.17L281.946 368.972L281.913 369.052L284.121 367.957Z" fill="black"/>
<path d="M280.867 369.569L270.537 364.734L268.442 365.782L278.659 370.568L278.611 370.713L280.867 369.569Z" fill="black"/>
<path d="M264.042 367.973L262.205 368.875L272.535 373.726L274.372 372.807L264.042 367.973Z" fill="black"/>
<path d="M283.542 358.256L281.447 359.303L291.777 364.154L293.872 363.107L283.542 358.256Z" fill="black"/>
<path d="M290.631 364.716L280.302 359.882L278.19 360.929L288.52 365.764L290.631 364.716Z" fill="black"/>
<path d="M287.377 366.345L277.048 361.494L274.937 362.542L285.234 367.376L285.218 367.408L287.377 366.345Z" fill="black"/>
<path d="M350.095 417.236C350.708 416.93 351.207 416.172 351.207 415.56V408.872C351.207 408.26 350.708 408.002 350.095 408.308C349.483 408.614 348.983 409.372 348.983 409.984V416.672C348.983 417.284 349.483 417.542 350.095 417.236Z" fill="black"/>
<path d="M354.557 415.013C355.17 414.707 355.669 413.949 355.669 413.337V406.649C355.669 406.037 355.17 405.779 354.557 406.085C353.945 406.391 353.445 407.149 353.445 407.761V414.449C353.445 415.061 353.945 415.319 354.557 415.013Z" fill="black"/>
<path d="M359.023 412.771C359.635 412.465 360.135 411.707 360.135 411.095V404.407C360.135 403.795 359.635 403.537 359.023 403.843C358.411 404.149 357.911 404.907 357.911 405.519V412.207C357.911 412.819 358.411 413.077 359.023 412.771Z" fill="black"/>
<path d="M363.47 410.549C364.083 410.243 364.582 409.486 364.582 408.873V402.185C364.582 401.573 364.083 401.315 363.47 401.621C362.858 401.928 362.358 402.685 362.358 403.297V409.985C362.358 410.598 362.858 410.855 363.47 410.549Z" fill="black"/>
<path d="M367.936 408.325C368.549 408.018 369.048 407.261 369.048 406.649V399.961C369.048 399.348 368.549 399.091 367.936 399.397C367.324 399.703 366.824 400.46 366.824 401.073V407.761C366.824 408.373 367.324 408.631 367.936 408.325Z" fill="black"/>
<path d="M312.917 433.57C313.886 432.328 314.058 430.842 313.3 430.25C312.543 429.659 311.143 430.186 310.173 431.427C309.204 432.669 309.032 434.155 309.79 434.747C310.547 435.338 311.948 434.811 312.917 433.57Z" fill="black"/>
<path opacity="0.3" d="M375.365 391.581L303.186 427.727" stroke="#221F1F" stroke-width="0.83" stroke-miterlimit="10" stroke-linecap="round"/>
<path d="M288.907 349.247L216.728 385.345V403.394L303.185 445.777L375.365 409.679V391.63L288.907 349.247Z" stroke="#211E1F" stroke-width="0.79" stroke-miterlimit="10"/>
<path d="M282.719 353.34C283.494 353.34 284.121 352.712 284.121 351.938C284.121 351.164 283.494 350.536 282.719 350.536C281.945 350.536 281.317 351.164 281.317 351.938C281.317 352.712 281.945 353.34 282.719 353.34Z" fill="black"/>
<path d="M289.681 321.61L215.938 358.498V376.934L304.266 420.235L378.009 383.348V364.912L289.681 321.61Z" fill="white"/>
<g style="mix-blend-mode:multiply">
<path d="M378.008 383.349L304.265 420.236V401.801L378.008 364.913V383.349Z" fill="#C4F0CB"/>
</g>
<g style="mix-blend-mode:multiply">
<path d="M304.266 420.235L215.938 376.934V358.498L304.266 401.8V420.235Z" fill="#63EFA2"/>
</g>
<g style="mix-blend-mode:multiply">
<path d="M304.266 401.8L215.938 358.498L289.681 321.562L378.009 364.864L304.266 401.8Z" fill="#FDF3F9"/>
</g>
<path d="M284.202 405.425C284.994 405.425 285.636 404.783 285.636 403.991C285.636 403.199 284.994 402.557 284.202 402.557C283.41 402.557 282.768 403.199 282.768 403.991C282.768 404.783 283.41 405.425 284.202 405.425Z" fill="black"/>
<path d="M215.938 365.59L303.412 408.472" stroke="#221F1F" stroke-width="0.84" stroke-linecap="round" stroke-linejoin="round"/>
<path d="M352.205 391.069C352.833 390.763 353.349 389.99 353.349 389.361V382.528C353.349 381.9 352.833 381.642 352.205 381.964C351.576 382.271 351.061 383.044 351.061 383.673V390.505C351.061 391.134 351.576 391.392 352.205 391.069Z" fill="black"/>
<path d="M356.751 388.798C357.379 388.492 357.895 387.718 357.895 387.09V380.257C357.895 379.628 357.379 379.371 356.751 379.693C356.122 379.999 355.606 380.773 355.606 381.401V388.234C355.606 388.862 356.122 389.12 356.751 388.798Z" fill="black"/>
<path d="M361.311 386.525C361.94 386.219 362.455 385.446 362.455 384.817V377.984C362.455 377.356 361.94 377.098 361.311 377.42C360.683 377.727 360.167 378.5 360.167 379.129V385.961C360.167 386.59 360.683 386.848 361.311 386.525Z" fill="black"/>
<path d="M365.854 384.236C366.483 383.93 366.998 383.157 366.998 382.528V375.695C366.998 375.067 366.483 374.809 365.854 375.131C365.226 375.438 364.71 376.211 364.71 376.84V383.672C364.71 384.301 365.226 384.559 365.854 384.236Z" fill="black"/>
<path d="M370.414 381.964C371.042 381.658 371.558 380.884 371.558 380.256V373.423C371.558 372.794 371.042 372.537 370.414 372.859C369.785 373.165 369.27 373.939 369.27 374.567V381.4C369.27 382.028 369.785 382.286 370.414 381.964Z" fill="black"/>
<path d="M314.206 407.762C315.197 406.492 315.375 404.974 314.603 404.372C313.832 403.769 312.403 404.31 311.411 405.58C310.42 406.85 310.242 408.367 311.013 408.97C311.785 409.572 313.214 409.031 314.206 407.762Z" fill="#22C498"/>
<path opacity="0.3" d="M378.008 364.865L304.265 401.801" stroke="#221F1F" stroke-width="0.84" stroke-miterlimit="10" stroke-linecap="round"/>
<path d="M280.641 408.648L304.266 420.235L378.009 383.348V364.912L289.681 321.61L215.938 358.498V376.934L280.641 408.648Z" stroke="#211E1F" stroke-width="0.81" stroke-miterlimit="10"/>
<path d="M289.681 296.392L215.938 333.263V351.699L304.266 395L378.009 358.129V339.693L289.681 296.392Z" fill="white"/>
<g style="mix-blend-mode:multiply">
<path d="M378.011 358.128L304.268 395V376.564L378.011 339.692V358.128Z" fill="#C4F0CB"/>
</g>
<g style="mix-blend-mode:multiply">
<path d="M304.266 395.001L215.938 351.699V333.264L304.266 376.565V395.001Z" fill="#63EFA2"/>
</g>
<g style="mix-blend-mode:multiply">
<path d="M304.266 376.565L215.938 333.263L289.681 296.327L378.009 339.629L304.266 376.565Z" fill="#FDF3F9"/>
</g>
<path d="M284.202 380.19C284.994 380.19 285.636 379.548 285.636 378.756C285.636 377.963 284.994 377.321 284.202 377.321C283.41 377.321 282.768 377.963 282.768 378.756C282.768 379.548 283.41 380.19 284.202 380.19Z" fill="black"/>
<path d="M215.938 340.352L303.412 383.25" stroke="#221F1F" stroke-width="0.84" stroke-linecap="round" stroke-linejoin="round"/>
<path d="M352.209 365.848C352.837 365.542 353.353 364.768 353.353 364.14V357.307C353.353 356.678 352.837 356.42 352.209 356.743C351.58 357.049 351.064 357.822 351.064 358.451V365.284C351.064 365.912 351.58 366.17 352.209 365.848Z" fill="black"/>
<path d="M356.755 363.561C357.383 363.254 357.899 362.481 357.899 361.852V355.02C357.899 354.391 357.383 354.133 356.755 354.456C356.126 354.762 355.61 355.535 355.61 356.164V362.997C355.61 363.625 356.126 363.883 356.755 363.561Z" fill="black"/>
<path d="M361.315 361.288C361.944 360.982 362.459 360.208 362.459 359.58V352.747C362.459 352.119 361.944 351.861 361.315 352.183C360.687 352.489 360.171 353.263 360.171 353.891V360.724C360.171 361.353 360.687 361.61 361.315 361.288Z" fill="black"/>
<path d="M365.858 359.015C366.487 358.709 367.002 357.935 367.002 357.307V350.474C367.002 349.845 366.487 349.587 365.858 349.91C365.23 350.216 364.714 350.989 364.714 351.618V358.451C364.714 359.079 365.23 359.337 365.858 359.015Z" fill="black"/>
<path d="M370.419 356.727C371.047 356.42 371.563 355.647 371.563 355.018V348.186C371.563 347.557 371.047 347.299 370.419 347.622C369.79 347.928 369.274 348.701 369.274 349.33V356.163C369.274 356.791 369.79 357.049 370.419 356.727Z" fill="black"/>
<path d="M314.203 382.529C315.194 381.259 315.372 379.742 314.601 379.139C313.829 378.537 312.4 379.078 311.408 380.347C310.417 381.617 310.239 383.135 311.011 383.737C311.782 384.34 313.211 383.799 314.203 382.529Z" fill="#22C498"/>
<path opacity="0.3" d="M378.011 339.628L304.268 376.564" stroke="#221F1F" stroke-width="0.84" stroke-miterlimit="10" stroke-linecap="round"/>
<path d="M280.641 383.413L304.266 395L378.009 358.129V339.693L289.681 296.392L215.938 333.263V351.699L280.641 383.413Z" stroke="#211E1F" stroke-width="0.81" stroke-miterlimit="10"/>
<path d="M288.907 273.346L216.728 309.428V327.477L303.185 369.859L375.365 333.761V315.712L288.907 273.346Z" fill="#BABCBE"/>
<path d="M375.365 333.762L303.186 369.86V351.811L375.365 315.713V333.762Z" fill="white"/>
<path opacity="0.1" d="M303.185 369.861L216.728 327.478V309.429L303.185 351.812V369.861Z" fill="black"/>
<path d="M303.185 351.81L216.728 309.428L288.907 273.281L375.365 315.664L303.185 351.81Z" fill="white"/>
<path d="M283.541 355.372C284.315 355.372 284.943 354.745 284.943 353.97C284.943 353.196 284.315 352.568 283.541 352.568C282.766 352.568 282.139 353.196 282.139 353.97C282.139 354.745 282.766 355.372 283.541 355.372Z" fill="black"/>
<path d="M216.728 316.374L302.347 358.354" stroke="#221F1F" stroke-width="0.83" stroke-linecap="round" stroke-linejoin="round"/>
<path d="M350.095 341.32C350.708 341.014 351.207 340.256 351.207 339.644V332.956C351.207 332.344 350.708 332.086 350.095 332.392C349.483 332.698 348.983 333.456 348.983 334.068V340.756C348.983 341.368 349.483 341.626 350.095 341.32Z" fill="black"/>
<path d="M354.557 339.097C355.17 338.791 355.669 338.033 355.669 337.421V330.733C355.669 330.121 355.17 329.863 354.557 330.169C353.945 330.475 353.445 331.233 353.445 331.845V338.533C353.445 339.145 353.945 339.403 354.557 339.097Z" fill="black"/>
<path d="M359.023 336.855C359.635 336.549 360.135 335.791 360.135 335.179V328.491C360.135 327.879 359.635 327.621 359.023 327.927C358.411 328.233 357.911 328.991 357.911 329.603V336.291C357.911 336.903 358.411 337.161 359.023 336.855Z" fill="black"/>
<path d="M363.47 334.633C364.083 334.327 364.582 333.57 364.582 332.957V326.269C364.582 325.657 364.083 325.399 363.47 325.705C362.858 326.012 362.358 326.769 362.358 327.381V334.069C362.358 334.682 362.858 334.939 363.47 334.633Z" fill="black"/>
<path d="M367.936 332.409C368.549 332.102 369.048 331.345 369.048 330.733V324.045C369.048 323.432 368.549 323.175 367.936 323.481C367.324 323.787 366.824 324.544 366.824 325.157V331.845C366.824 332.457 367.324 332.715 367.936 332.409Z" fill="black"/>
<path d="M312.928 357.653C313.897 356.411 314.069 354.925 313.311 354.333C312.554 353.742 311.153 354.269 310.184 355.51C309.215 356.752 309.043 358.238 309.801 358.83C310.558 359.421 311.958 358.894 312.928 357.653Z" fill="black"/>
<path opacity="0.3" d="M375.365 315.664L303.186 351.81" stroke="#221F1F" stroke-width="0.83" stroke-miterlimit="10" stroke-linecap="round"/>
<path d="M288.907 273.346L216.728 309.428V327.477L303.185 369.859L375.365 333.761V315.712L288.907 273.346Z" stroke="#211E1F" stroke-width="0.79" stroke-miterlimit="10"/>
<path d="M288.907 249.689L216.728 285.787V303.836L303.185 346.219L375.365 310.121V292.072L288.907 249.689Z" fill="#BABCBE"/>
<path d="M375.365 310.122L303.186 346.22V328.171L375.365 292.073V310.122Z" fill="white"/>
<path opacity="0.1" d="M303.185 346.221L216.728 303.838V285.789L303.185 328.172V346.221Z" fill="black"/>
<path d="M303.185 328.171L216.728 285.788L288.907 249.642L375.365 292.024L303.185 328.171Z" fill="white"/>
<path d="M283.541 331.733C284.315 331.733 284.943 331.105 284.943 330.331C284.943 329.556 284.315 328.929 283.541 328.929C282.766 328.929 282.139 329.556 282.139 330.331C282.139 331.105 282.766 331.733 283.541 331.733Z" fill="black"/>
<path d="M216.728 292.733L302.347 334.713" stroke="#221F1F" stroke-width="0.83" stroke-linecap="round" stroke-linejoin="round"/>
<path d="M350.096 317.679C350.709 317.373 351.208 316.615 351.208 316.003V309.315C351.208 308.703 350.709 308.445 350.096 308.751C349.484 309.057 348.984 309.815 348.984 310.427V317.115C348.984 317.727 349.484 317.985 350.096 317.679Z" fill="black"/>
<path d="M354.558 315.439C355.171 315.133 355.67 314.375 355.67 313.763V307.075C355.67 306.463 355.171 306.205 354.558 306.511C353.946 306.817 353.446 307.575 353.446 308.187V314.875C353.446 315.487 353.946 315.745 354.558 315.439Z" fill="black"/>
<path d="M359.024 313.214C359.636 312.908 360.136 312.151 360.136 311.538V304.85C360.136 304.238 359.636 303.98 359.024 304.286C358.412 304.593 357.912 305.35 357.912 305.962V312.65C357.912 313.263 358.412 313.52 359.024 313.214Z" fill="black"/>
<path d="M363.471 310.993C364.084 310.686 364.583 309.929 364.583 309.317V302.629C364.583 302.016 364.084 301.759 363.471 302.065C362.859 302.371 362.359 303.128 362.359 303.741V310.429C362.359 311.041 362.859 311.299 363.471 310.993Z" fill="black"/>
<path d="M367.937 308.768C368.55 308.462 369.049 307.704 369.049 307.092V300.404C369.049 299.792 368.55 299.534 367.937 299.84C367.325 300.146 366.825 300.904 366.825 301.516V308.204C366.825 308.816 367.325 309.074 367.937 308.768Z" fill="black"/>
<path d="M312.924 334.016C313.893 332.774 314.065 331.288 313.307 330.696C312.55 330.105 311.15 330.632 310.18 331.874C309.211 333.115 309.039 334.602 309.797 335.193C310.554 335.785 311.954 335.258 312.924 334.016Z" fill="black"/>
<path opacity="0.3" d="M375.365 292.024L303.186 328.171" stroke="#221F1F" stroke-width="0.83" stroke-miterlimit="10" stroke-linecap="round"/>
<path d="M288.907 249.689L216.728 285.787V303.836L303.185 346.219L375.365 310.121V292.072L288.907 249.689Z" stroke="#211E1F" stroke-width="0.79" stroke-miterlimit="10"/>
<path d="M288.907 226.048L216.728 262.146V280.195L303.185 322.578L375.365 286.48V268.431L288.907 226.048Z" fill="#BABCBE"/>
<path d="M375.365 286.481L303.186 322.579V304.53L375.365 268.432V286.481Z" fill="white"/>
<path opacity="0.1" d="M303.185 322.577L216.728 280.194V262.146L303.185 304.528V322.577Z" fill="black"/>
<path d="M303.185 304.529L216.728 262.146L288.907 226L375.365 268.383L303.185 304.529Z" fill="white"/>
<path d="M283.541 308.075C284.315 308.075 284.943 307.447 284.943 306.673C284.943 305.898 284.315 305.271 283.541 305.271C282.766 305.271 282.139 305.898 282.139 306.673C282.139 307.447 282.766 308.075 283.541 308.075Z" fill="black"/>
<path d="M216.728 269.092L302.347 311.072" stroke="#221F1F" stroke-width="0.83" stroke-linecap="round" stroke-linejoin="round"/>
<path d="M350.095 294.022C350.708 293.716 351.207 292.958 351.207 292.346V285.658C351.207 285.046 350.708 284.788 350.095 285.094C349.483 285.4 348.983 286.158 348.983 286.77V293.458C348.983 294.07 349.483 294.328 350.095 294.022Z" fill="black"/>
<path d="M354.557 291.799C355.17 291.493 355.669 290.736 355.669 290.123V283.435C355.669 282.823 355.17 282.565 354.557 282.871C353.945 283.178 353.445 283.935 353.445 284.547V291.235C353.445 291.848 353.945 292.105 354.557 291.799Z" fill="black"/>
<path d="M359.023 289.575C359.635 289.268 360.135 288.511 360.135 287.899V281.211C360.135 280.598 359.635 280.341 359.023 280.647C358.411 280.953 357.911 281.71 357.911 282.323V289.011C357.911 289.623 358.411 289.881 359.023 289.575Z" fill="black"/>
<path d="M363.469 287.35C364.082 287.044 364.581 286.286 364.581 285.674V278.986C364.581 278.374 364.082 278.116 363.469 278.422C362.857 278.728 362.357 279.486 362.357 280.098V286.786C362.357 287.398 362.857 287.656 363.469 287.35Z" fill="black"/>
<path d="M367.936 285.111C368.549 284.805 369.048 284.047 369.048 283.435V276.747C369.048 276.135 368.549 275.877 367.936 276.183C367.324 276.489 366.824 277.247 366.824 277.859V284.547C366.824 285.159 367.324 285.417 367.936 285.111Z" fill="black"/>
<path d="M312.905 310.367C313.875 309.126 314.046 307.64 313.289 307.048C312.531 306.457 311.131 306.984 310.162 308.225C309.192 309.467 309.02 310.953 309.778 311.545C310.536 312.136 311.936 311.609 312.905 310.367Z" fill="black"/>
<path opacity="0.3" d="M375.365 268.383L303.186 304.529" stroke="#221F1F" stroke-width="0.83" stroke-miterlimit="10" stroke-linecap="round"/>
<path d="M288.907 226.048L216.728 262.146V280.195L303.185 322.578L375.365 286.48V268.431L288.907 226.048Z" stroke="#211E1F" stroke-width="0.79" stroke-miterlimit="10"/>
<path d="M243.27 468.918L169.527 505.789V524.241L257.855 567.543L331.614 530.655V512.219L243.27 468.918Z" fill="white"/>
<g style="mix-blend-mode:multiply">
<path d="M331.614 530.654L257.854 567.541V549.105L331.614 512.218V530.654Z" fill="#C4F0CB"/>
</g>
<g style="mix-blend-mode:multiply">
<path d="M257.855 567.542L169.527 524.241V505.789L257.855 549.107V567.542Z" fill="#63EFA2"/>
</g>
<g style="mix-blend-mode:multiply">
<path d="M257.855 549.108L169.527 505.79L243.27 468.87L331.614 512.172L257.855 549.108Z" fill="#FDF3F9"/>
</g>
<path d="M237.791 552.734C238.583 552.734 239.225 552.092 239.225 551.299C239.225 550.507 238.583 549.865 237.791 549.865C236.999 549.865 236.356 550.507 236.356 551.299C236.356 552.092 236.999 552.734 237.791 552.734Z" fill="black"/>
<path d="M169.527 512.897L257 555.78" stroke="#221F1F" stroke-width="0.84" stroke-linecap="round" stroke-linejoin="round"/>
<path d="M305.799 538.375C306.428 538.069 306.944 537.295 306.944 536.667V529.834C306.944 529.206 306.428 528.948 305.799 529.27C305.171 529.576 304.655 530.35 304.655 530.978V537.811C304.655 538.44 305.171 538.697 305.799 538.375Z" fill="black"/>
<path d="M310.345 536.103C310.974 535.796 311.489 535.023 311.489 534.394V527.562C311.489 526.933 310.974 526.675 310.345 526.998C309.717 527.304 309.201 528.077 309.201 528.706V535.539C309.201 536.167 309.717 536.425 310.345 536.103Z" fill="black"/>
<path d="M314.906 533.83C315.534 533.524 316.05 532.75 316.05 532.122V525.289C316.05 524.661 315.534 524.403 314.906 524.725C314.277 525.031 313.762 525.805 313.762 526.433V533.266C313.762 533.895 314.277 534.152 314.906 533.83Z" fill="black"/>
<path d="M319.465 531.542C320.094 531.236 320.61 530.462 320.61 529.834V523.001C320.61 522.373 320.094 522.115 319.465 522.437C318.837 522.743 318.321 523.517 318.321 524.145V530.978C318.321 531.607 318.837 531.864 319.465 531.542Z" fill="black"/>
<path d="M324.009 529.27C324.638 528.963 325.154 528.19 325.154 527.561V520.729C325.154 520.1 324.638 519.842 324.009 520.165C323.381 520.471 322.865 521.244 322.865 521.873V528.706C322.865 529.334 323.381 529.592 324.009 529.27Z" fill="black"/>
<path d="M267.801 555.054C268.793 553.785 268.971 552.267 268.199 551.664C267.427 551.062 265.998 551.603 265.007 552.873C264.016 554.143 263.837 555.66 264.609 556.263C265.381 556.865 266.81 556.324 267.801 555.054Z" fill="#22C498"/>
<path opacity="0.3" d="M331.782 512.042L258.022 548.978" stroke="#221F1F" stroke-width="0.84" stroke-miterlimit="10" stroke-linecap="round"/>
<path d="M234.23 555.956L257.855 567.543L331.614 530.655V512.219L243.27 468.918L169.527 505.789V524.241L234.23 555.956Z" stroke="#211E1F" stroke-width="0.81" stroke-miterlimit="10"/>
<path d="M243.27 441.232L169.527 478.104V496.54L257.855 539.841L331.614 502.97V484.534L243.27 441.232Z" fill="white"/>
<g style="mix-blend-mode:multiply">
<path d="M331.615 502.971L257.855 539.842V521.407L331.615 484.535V502.971Z" fill="#C4F0CB"/>
</g>
<g style="mix-blend-mode:multiply">
<path d="M257.855 539.841L169.527 496.539V478.104L257.855 521.405V539.841Z" fill="#63EFA2"/>
</g>
<g style="mix-blend-mode:multiply">
<path d="M257.855 521.405L169.527 478.104L243.27 441.168L331.614 484.469L257.855 521.405Z" fill="#FDF3F9"/>
</g>
<path d="M237.791 525.047C238.583 525.047 239.225 524.405 239.225 523.613C239.225 522.821 238.583 522.179 237.791 522.179C236.999 522.179 236.356 522.821 236.356 523.613C236.356 524.405 236.999 525.047 237.791 525.047Z" fill="black"/>
<path d="M169.527 485.195L257 528.094" stroke="#221F1F" stroke-width="0.84" stroke-linecap="round" stroke-linejoin="round"/>
<path d="M305.797 510.688C306.426 510.381 306.942 509.608 306.942 508.979V502.147C306.942 501.518 306.426 501.26 305.797 501.583C305.169 501.889 304.653 502.662 304.653 503.291V510.124C304.653 510.752 305.169 511.01 305.797 510.688Z" fill="black"/>
<path d="M310.343 508.399C310.972 508.092 311.488 507.319 311.488 506.69V499.857C311.488 499.229 310.972 498.971 310.343 499.293C309.715 499.6 309.199 500.373 309.199 501.002V507.834C309.199 508.463 309.715 508.721 310.343 508.399Z" fill="black"/>
<path d="M314.904 506.126C315.532 505.82 316.048 505.046 316.048 504.418V497.585C316.048 496.957 315.532 496.699 314.904 497.021C314.275 497.327 313.76 498.101 313.76 498.729V505.562C313.76 506.191 314.275 506.448 314.904 506.126Z" fill="black"/>
<path d="M319.463 503.855C320.092 503.548 320.608 502.775 320.608 502.146V495.314C320.608 494.685 320.092 494.427 319.463 494.75C318.835 495.056 318.319 495.829 318.319 496.458V503.291C318.319 503.919 318.835 504.177 319.463 503.855Z" fill="black"/>
<path d="M324.007 501.582C324.636 501.276 325.152 500.502 325.152 499.874V493.041C325.152 492.413 324.636 492.155 324.007 492.477C323.379 492.783 322.863 493.557 322.863 494.185V501.018C322.863 501.647 323.379 501.904 324.007 501.582Z" fill="black"/>
<path d="M267.801 527.355C268.793 526.086 268.971 524.568 268.199 523.965C267.427 523.363 265.998 523.904 265.007 525.174C264.016 526.443 263.837 527.961 264.609 528.564C265.381 529.166 266.81 528.625 267.801 527.355Z" fill="#22C498"/>
<path opacity="0.3" d="M331.615 484.471L257.855 521.407" stroke="#221F1F" stroke-width="0.84" stroke-miterlimit="10" stroke-linecap="round"/>
<path d="M234.23 528.27L257.855 539.841L331.614 502.97V484.534L243.27 441.232L169.527 478.104V496.54L234.23 528.27Z" stroke="#211E1F" stroke-width="0.81" stroke-miterlimit="10"/>
</svg>
