<svg width="45" height="46" viewBox="0 0 45 46" fill="none" xmlns="http://www.w3.org/2000/svg">
<path fill-rule="evenodd" clip-rule="evenodd" d="M11.9783 21.7907C11.9783 18.1573 14.1362 14.8775 17.3934 13.3693C17.9561 13.1087 18.4723 12.9422 19.1356 12.7743C21.6237 12.1444 24.3607 12.7175 26.4387 14.1151C32.0985 17.9217 32.027 26.7641 25.1079 30.1729C23.1006 31.1617 20.4369 31.2512 18.2796 30.5244C16.2487 29.8397 14.9088 28.7261 13.666 27.0499C12.6435 25.6708 11.9783 23.5601 11.9783 21.7907ZM10 21.4315C10 23.0501 10.1081 23.9995 10.6067 25.3755C11.6442 28.2394 13.4503 30.3947 16.2346 31.7883C18.84 33.0924 22.2497 33.4099 25.2876 32.2081C25.5484 32.105 25.7359 32.0057 25.9979 31.8997C26.9098 31.5306 27.7446 30.8327 28.4642 30.3515C28.7426 30.5377 32.4775 34.3283 33.1252 34.9762C33.3482 35.1993 33.5634 35.5 33.9794 35.5C34.7298 35.5 35.273 34.6903 34.8543 34.0276L29.843 28.9746C30.1107 28.5753 30.4059 28.2395 30.6708 27.8257C32.8131 24.4789 33.0345 20.2541 31.2817 16.7619C30.1993 14.6053 28.4315 12.7951 26.3067 11.7326C20.4609 8.80941 13.9121 11.2894 11.0384 17.0207C10.5197 18.0552 10 19.9057 10 21.4315Z" fill="white"/>
</svg>
