<svg width="34" height="45" viewBox="0 0 34 45" fill="none" xmlns="http://www.w3.org/2000/svg">
<path d="M6.77969 12.6231C9.543 13.729 13.1686 14.3372 16.9865 14.3372C20.8043 14.3372 24.4285 13.729 27.1932 12.6231C30.0283 11.4888 31.3855 10.0647 32.0168 8.80653C31.991 7.51512 31.2866 5.17606 27.0125 3.46657C24.3094 2.3842 20.7541 1.78906 16.9994 1.78906C13.2447 1.78906 9.68936 2.3842 6.98486 3.46657C2.66198 5.19615 1.99051 7.5705 1.98047 8.85259C2.62036 10.0992 3.97763 11.5026 6.77969 12.6231Z" fill="white"/>
<path d="M6.77918 32.588C9.54106 33.6938 13.1667 34.3028 16.986 34.3028C20.8053 34.3028 24.4294 33.6938 27.1927 32.588C30.0321 31.4523 31.3894 30.0258 32.0192 28.7664V20.207C31.1899 21.3258 29.7868 22.4792 27.4252 23.4247C24.5901 24.559 20.8827 25.1836 16.986 25.1836C13.0892 25.1836 9.38182 24.559 6.54677 23.4247C4.20957 22.4891 2.81067 21.3497 1.97852 20.2418V28.8155C2.61841 30.0629 3.97713 31.467 6.77918 32.588Z" fill="white"/>
<path d="M6.9858 41.5324C9.69029 42.6136 13.247 43.2099 16.9989 43.2099C20.7507 43.2099 24.3075 42.6136 27.012 41.5324C31.3678 39.7898 32.0192 37.3909 32.0192 36.1166V29.9512C31.1885 31.07 29.7868 32.2234 27.4252 33.1689C24.5901 34.303 20.8827 34.9277 16.986 34.9277C13.0892 34.9277 9.38182 34.303 6.54677 33.1689C4.20957 32.2333 2.81067 31.0938 1.97852 29.9857V36.1166C1.97852 37.3919 2.62992 39.7898 6.9858 41.5324Z" fill="white"/>
<path d="M6.77918 22.8432C9.54106 23.9489 13.1667 24.558 16.986 24.558C20.8053 24.558 24.4294 23.9489 27.1927 22.8432C30.0321 21.7076 31.3894 20.281 32.0192 19.0216V9.98828C31.1899 11.1071 29.7868 12.2606 27.4252 13.2061C24.5887 14.3394 20.8813 14.964 16.986 14.964C13.0892 14.964 9.38182 14.3394 6.54677 13.2061C4.20957 12.2704 2.81067 11.1311 1.97852 10.023V19.0706C2.61841 20.318 3.97713 21.7223 6.77918 22.8432Z" fill="white"/>
<path d="M6.36712 43.0816C9.26387 44.2396 13.0401 44.8779 17 44.8779C20.9585 44.8779 24.7347 44.2396 27.6315 43.0816C32.8999 40.9735 33.6875 37.813 33.6875 36.117V8.88388C33.6875 7.18787 32.8999 4.02742 27.6315 1.91935C24.7376 0.761509 20.9613 0.123047 17 0.123047C13.0387 0.123047 9.261 0.761509 6.36712 1.91935C1.09874 4.0267 0.3125 7.18787 0.3125 8.88388V36.117C0.3125 37.813 1.09874 40.9744 6.36712 43.0816ZM6.98549 3.4683C9.68999 2.38593 13.2453 1.79079 17 1.79079C20.7533 1.79079 24.31 2.38593 27.0131 3.4683C31.2858 5.1778 31.9916 7.51685 32.0175 8.80827C31.3862 10.0664 30.0289 11.4905 27.1938 12.625C24.4291 13.7307 20.805 14.3389 16.9871 14.3389C13.1693 14.3389 9.54364 13.7307 6.78032 12.625C3.97826 11.5043 2.62099 10.101 1.9811 8.85432C1.98971 7.57224 2.66261 5.19788 6.98549 3.4683ZM1.97965 10.0232C2.81181 11.1313 4.20927 12.2706 6.54646 13.2063C9.38295 14.3396 13.0903 14.9642 16.9871 14.9642C20.8824 14.9642 24.5898 14.3396 27.4263 13.2063C29.7879 12.2608 31.1896 11.1073 32.0189 9.98849V19.0218C31.3905 20.2812 30.0318 21.7078 27.1938 22.8434C24.4305 23.9491 20.8064 24.5582 16.9871 24.5582C13.1678 24.5582 9.5422 23.9491 6.78032 22.8434C3.97683 21.7225 2.61955 20.3182 1.97965 19.0708V10.0232ZM1.97965 20.2417C2.81181 21.3497 4.20927 22.4891 6.54646 23.4247C9.38295 24.559 13.0903 25.1836 16.9871 25.1836C20.8839 25.1836 24.5912 24.559 27.4263 23.4247C29.7879 22.4792 31.1896 21.3258 32.0189 20.2072V28.7664C31.3905 30.0258 30.0318 31.4523 27.1938 32.588C24.4305 33.6938 20.8064 34.3028 16.9871 34.3028C13.1678 34.3028 9.5422 33.6938 6.78032 32.588C3.97683 31.467 2.61955 30.0629 1.97965 28.8155V20.2417ZM1.97965 29.9862C2.81181 31.0943 4.20927 32.2336 6.54646 33.1694C9.38295 34.3035 13.0903 34.9281 16.9871 34.9281C20.8839 34.9281 24.5912 34.3035 27.4263 33.1694C29.7879 32.2239 31.1896 31.0705 32.0189 29.9515V36.117C32.0189 37.3914 31.369 39.7903 27.0131 41.5329C24.3086 42.6141 20.7519 43.2104 17 43.2104C13.2482 43.2104 9.68999 42.6141 6.98549 41.5329C2.62961 39.7903 1.97965 37.3922 1.97965 36.117V29.9862Z" fill="#010101"/>
</svg>
