<svg width="52" height="31" viewBox="0 0 52 31" fill="none" xmlns="http://www.w3.org/2000/svg">
<path d="M26.9933 16.6401C26.8217 16.2598 26.9904 15.8123 27.3708 15.6393C27.7525 15.4691 28.2015 15.6364 28.3716 16.0181C30.6793 21.1297 35.7679 24.4439 41.3641 24.5025C42.5537 24.5211 44.4253 24.514 45.3618 24.514C46.8931 24.514 48.3058 23.8148 49.1408 22.6424C49.9686 21.4828 50.1459 20.0373 49.6426 18.5746C49.0335 16.8088 47.3049 15.6235 45.3404 15.6235H44.4639L44.5425 14.7556C44.5711 14.5569 44.5869 14.3567 44.5883 14.1537C44.6126 11.826 42.6838 9.71993 40.3718 9.5555C39.92 9.52262 39.4768 9.55408 39.0493 9.64844L38.4345 9.78284L38.1885 9.20233C36.4714 5.12886 32.5051 2.49805 28.0828 2.49805C23.935 2.49805 20.1904 4.79144 18.3116 8.48316L17.9642 9.16516L17.2864 8.81345C16.3456 8.32446 15.2847 8.06565 14.2167 8.06565C10.6279 8.06565 7.63248 10.9839 7.54241 14.5712L7.52382 15.3319L6.76315 15.3104C6.71883 15.3075 6.67308 15.3075 6.62876 15.3075C5.44203 15.3075 4.32394 15.7608 3.46749 16.5929C2.57387 17.4608 2.08203 18.6232 2.08203 19.8671C2.08203 22.3807 4.12806 24.4268 6.64163 24.4268C7.07772 24.4268 21.114 24.4639 21.114 24.4639C19.3596 22.0705 18.0714 19.4111 17.2836 16.5343C17.1749 16.1311 17.4123 15.715 17.8155 15.605C18.2144 15.4906 18.6347 15.7308 18.7448 16.134C19.6113 19.3095 21.1268 22.2049 23.2444 24.7399C23.3759 24.8986 23.4302 25.0945 23.4159 25.2846C23.8506 25.2846 24.2853 25.2861 24.7214 25.2875L27.9498 25.2946C24.5484 22.415 22.1063 18.4102 21.2384 13.8106H18.5632L21.8646 10.5092L25.1674 13.8106H22.7726C23.7534 18.5975 26.5815 22.6667 30.4391 25.3004C32.7453 25.3061 34.9558 25.3118 36.9318 25.3161C32.5923 24.0064 28.9149 20.8995 26.9933 16.6401Z" fill="white"/>
<path d="M46.1038 14.1579C46.131 11.0081 43.6117 8.2672 40.479 8.04416C40.0973 8.01556 39.7141 8.02414 39.3395 8.0656C37.2706 3.74334 32.914 0.982422 28.0827 0.982422C23.6061 0.982422 19.5426 3.3287 17.3107 7.15625C16.3327 6.75734 15.2761 6.55003 14.2166 6.55003C10.0531 6.55003 6.54437 9.7499 6.07683 13.8162C4.69994 13.9392 3.41885 14.5254 2.41085 15.5063C1.22269 16.6615 0.566406 18.21 0.566406 19.8671C0.566406 23.2171 3.29301 25.9423 6.64158 25.9423C7.16202 25.9423 22.6409 25.9823 22.6638 25.9823C22.834 25.9823 23.007 25.9237 23.1485 25.8065C23.3115 25.6706 23.4002 25.4805 23.4159 25.2846C23.4302 25.0944 23.3759 24.8985 23.2443 24.7398C21.1268 22.2048 19.6112 19.3095 18.7448 16.1339C18.6347 15.7322 18.2143 15.4905 17.8154 15.6049C17.4122 15.715 17.1748 16.1311 17.2835 16.5343C18.0713 19.411 19.3596 22.0704 21.1139 24.4639C21.1139 24.4639 7.07767 24.4267 6.64158 24.4267C4.12801 24.4267 2.08198 22.3807 2.08198 19.8671C2.08198 18.6232 2.57382 17.4608 3.46744 16.5929C4.32389 15.7607 5.44198 15.3075 6.62871 15.3075C6.67303 15.3075 6.71878 15.3089 6.7631 15.3104L7.52377 15.3318L7.54236 14.5712C7.63243 10.9838 10.6278 8.0656 14.2166 8.0656C15.2847 8.0656 16.3456 8.32441 17.2864 8.8134L17.9641 9.16511L18.3116 8.48311C20.1903 4.79139 23.9349 2.498 28.0827 2.498C32.5051 2.498 36.4713 5.12881 38.1885 9.20228L38.4344 9.78279L39.0493 9.64839C39.4768 9.55403 39.92 9.52257 40.3718 9.55545C42.6838 9.71988 44.6126 11.826 44.5883 14.1537C44.5868 14.3567 44.5711 14.5569 44.5425 14.7556L44.4639 15.6235H45.3403C47.3049 15.6235 49.0335 16.8102 49.6426 18.5746C50.1459 20.0373 49.9685 21.4828 49.1407 22.6423C48.3057 23.8148 46.8931 24.5139 45.3618 24.5139C44.4252 24.5139 42.5537 24.5211 41.3641 24.5025C35.7679 24.4439 30.6792 21.1296 28.3715 16.0181C28.2014 15.6363 27.7525 15.4691 27.3707 15.6392C26.9904 15.8122 26.8217 16.2597 26.9932 16.6401C28.9149 20.8994 32.5923 24.0063 36.9317 25.316C37.7295 25.5562 38.5403 25.7578 39.3767 25.8708C39.92 25.9494 40.8908 26.0138 41.3383 26.0152C41.3955 26.0152 45.1073 26.0309 45.3618 26.0309C47.382 26.0309 49.2551 25.093 50.3761 23.5231C51.4784 21.9746 51.7343 19.9915 51.0752 18.0799C50.3403 15.9495 48.4115 14.4453 46.1038 14.1579Z" fill="#221F1F"/>
<path d="M22.7708 13.8112H25.1657L21.8629 10.5098L18.5615 13.8112H21.2367C22.1045 18.4108 24.5466 22.4156 27.9481 25.2952C31.4339 28.2478 35.9277 30.0178 40.7876 30.0178C41.2051 30.0178 41.544 29.679 41.544 29.2615C41.544 28.844 41.2051 28.5051 40.7876 28.5051C36.9744 28.5051 33.4028 27.327 30.4374 25.301C26.5798 22.6673 23.7517 18.5981 22.7708 13.8112Z" fill="#221F1F"/>
</svg>
