<svg width="30" height="43" viewBox="0 0 30 43" fill="none" xmlns="http://www.w3.org/2000/svg">
<path d="M24.1114 14.4245H24.1405C24.7251 14.428 25.2003 13.9575 25.2038 13.3729C25.2073 12.7894 24.7368 12.3131 24.1522 12.3096C23.5687 12.3061 23.0924 12.7766 23.0889 13.3612V13.367C23.0889 13.9377 23.5407 14.4059 24.1114 14.4245Z" fill="#42E48B"/>
<path d="M20.8533 6.61984C21.1445 6.6245 21.424 6.50687 21.6266 6.29841V6.31005C22.0389 5.89662 22.0389 5.22933 21.6266 4.8159C21.431 4.61443 21.1607 4.50263 20.8801 4.50496C20.2954 4.49797 19.8157 4.96496 19.8087 5.54958C19.8017 6.13303 20.2687 6.61285 20.8533 6.61984Z" fill="#42E48B"/>
<path d="M13.0993 3.38246C13.6734 3.36965 14.1334 2.89916 14.1323 2.32502C14.1323 1.7404 13.6594 1.26758 13.0748 1.26758C12.4914 1.26758 12.0174 1.74156 12.0186 2.32502C12.0186 2.90964 12.4914 3.38246 13.0748 3.38246H13.0993Z" fill="#42E48B"/>
<path d="M4.51974 6.31001C4.93899 6.70247 5.59237 6.70247 6.01278 6.31001C6.42505 5.89658 6.42505 5.22929 6.01278 4.81586C5.81713 4.61439 5.54696 4.50259 5.2663 4.50492C4.68167 4.51307 4.21461 4.99171 4.22276 5.57633C4.22509 5.84535 4.33224 6.10388 4.51974 6.29837V6.31001Z" fill="#42E48B"/>
<path d="M20.132 21.9232C20.5466 22.3284 21.2093 22.3284 21.6251 21.9232C22.0374 21.5109 22.0374 20.8424 21.6251 20.429C21.4294 20.2287 21.1592 20.1157 20.8785 20.1192C20.2939 20.1262 19.8269 20.606 19.8351 21.1895C19.8386 21.4596 19.9445 21.717 20.132 21.9115V21.9232Z" fill="#42E48B"/>
<path d="M12.0186 24.3964V24.4081C12.0186 24.9927 12.4914 25.4655 13.0748 25.4655C13.6594 25.4655 14.1323 24.9927 14.1323 24.4081C14.1323 23.8246 13.6594 23.3506 13.0748 23.3506C12.4948 23.3471 12.0209 23.8153 12.0186 24.3964Z" fill="#42E48B"/>
<path d="M2.03403 14.4245C2.61865 14.4245 3.09142 13.9516 3.09142 13.367C3.09142 12.7836 2.61865 12.3096 2.03403 12.3096C1.45057 12.3096 0.976562 12.7836 0.976562 13.367C0.976562 13.9516 1.45057 14.4245 2.03403 14.4245Z" fill="#42E48B"/>
<path d="M4.51922 21.9222C4.93381 22.3274 5.59768 22.3274 6.01227 21.9222C6.42453 21.5099 6.42453 20.8414 6.01227 20.428C5.6035 20.0157 4.93848 20.0134 4.52505 20.4222L4.51922 20.428C4.10463 20.8402 4.09886 21.5064 4.51112 21.921C4.51112 21.921 4.5134 21.9245 4.51922 21.9222Z" fill="#42E48B"/>
<path d="M3.7058 22.4719C4.42551 23.3325 5.70652 23.4478 6.56715 22.7293C7.42894 22.0107 7.54428 20.7297 6.82574 19.8679L7.82961 18.864C9.1747 17.5189 10.9879 16.7468 12.8897 16.7072V22.3834C11.9114 22.4731 11.1358 23.2487 11.0461 24.2269C10.9437 25.3484 11.7694 26.3395 12.8897 26.442C14.01 26.5445 15.0022 25.7188 15.1036 24.5973C15.2072 23.4769 14.3815 22.4859 13.26 22.3834V16.7072C15.1606 16.7468 16.9716 17.5201 18.3155 18.864L19.3252 19.8679C18.6905 20.6272 18.6905 21.7312 19.3252 22.4894C20.0484 23.3558 21.3376 23.47 22.204 22.7467C23.0693 22.0224 23.1846 20.7343 22.4603 19.8679C21.7371 19.0026 20.4479 18.8873 19.5814 19.6117L18.5787 18.6078C17.1253 17.1533 15.1548 16.3345 13.0993 16.3311H13.0516C10.9961 16.3345 9.02563 17.1533 7.57222 18.6078L6.56253 19.6117C6.20034 19.3031 5.74152 19.1342 5.26637 19.1331C4.726 19.1331 4.20774 19.3485 3.82692 19.7305L3.83858 19.7247C3.08742 20.4665 3.02917 21.6602 3.7058 22.4719ZM20.8787 20.1195C21.1594 20.116 21.4296 20.2289 21.6253 20.4292C22.0375 20.8426 22.0375 21.5111 21.6253 21.9234C21.2095 22.3287 20.5468 22.3287 20.1322 21.9234V21.9117C19.9447 21.7173 19.8388 21.4599 19.8353 21.1897C19.8271 20.6062 20.2941 20.1264 20.8787 20.1195ZM13.0749 23.3512C13.6595 23.3512 14.1323 23.8252 14.1323 24.4086C14.1323 24.9932 13.6595 25.466 13.0749 25.466C12.4914 25.466 12.0186 24.9932 12.0186 24.4086V24.397C12.0209 23.8158 12.4949 23.3477 13.0749 23.3512ZM4.51981 20.4292L4.52564 20.4234C4.93907 20.0146 5.60409 20.017 6.01286 20.4292C6.42512 20.8426 6.42512 21.5111 6.01286 21.9234C5.59827 22.3287 4.9344 22.3287 4.51981 21.9234C4.51399 21.9257 4.51283 21.9234 4.5105 21.9222C4.0994 21.5076 4.10522 20.8415 4.51981 20.4292Z" fill="#010101"/>
<path d="M5.25526 7.62399C5.73041 7.62166 6.19039 7.45047 6.55141 7.14069L7.56111 8.15037C9.01451 9.60261 10.985 10.419 13.0393 10.4213H13.0812C15.139 10.4201 17.1119 9.60377 18.5664 8.15037L19.5703 7.14069C19.9325 7.44814 20.3914 7.61699 20.8677 7.61816C21.3347 7.62747 21.7912 7.47375 22.158 7.18377C23.0373 6.49084 23.1875 5.21679 22.4946 4.3387C21.8016 3.4606 20.5276 3.31037 19.6495 4.0033C18.7714 4.69623 18.6211 5.96911 19.3141 6.84837L18.3044 7.85107C16.9604 9.19616 15.1495 9.96946 13.2489 10.0091V4.34452C14.2283 4.25485 15.0039 3.47923 15.0925 2.50098C15.1949 1.37948 14.3692 0.388424 13.2489 0.28594C12.1286 0.183457 11.1375 1.00915 11.035 2.12948C10.9325 3.25097 11.7582 4.24204 12.8786 4.34452V10.0207C10.9768 9.9811 9.16359 9.20898 7.8185 7.86388L6.81463 6.86001C7.46097 6.06227 7.41206 4.90817 6.69933 4.16983C5.92023 3.3616 4.63452 3.33832 3.82746 4.11742L3.81467 4.14072C3.43734 4.52154 3.22421 5.03512 3.22072 5.57082C3.21606 6.69931 4.12678 7.61934 5.25526 7.62516V7.62399ZM20.8793 4.50524C21.1599 4.50291 21.4302 4.61471 21.6258 4.81618C22.0381 5.22961 22.0381 5.8969 21.6258 6.31033V6.29869C21.4232 6.50715 21.1437 6.62476 20.8525 6.62127C20.2679 6.61312 19.8009 6.13331 19.8079 5.54985C19.8149 4.96523 20.2946 4.49825 20.8793 4.50524ZM12.0191 2.32513C12.018 1.74167 12.4919 1.26769 13.0754 1.26769C13.66 1.26769 14.1329 1.7405 14.1329 2.32513C14.134 2.89927 13.674 3.36976 13.0999 3.38257H13.0754C12.4919 3.38257 12.0191 2.90975 12.0191 2.32513ZM5.26692 4.50524C5.54758 4.50291 5.81775 4.61471 6.01341 4.81618C6.42567 5.22961 6.42567 5.8969 6.01341 6.31033C5.59299 6.70279 4.93961 6.70279 4.52036 6.31033V6.29869C4.33286 6.1042 4.22574 5.84567 4.22225 5.57665C4.21526 4.99203 4.6823 4.51339 5.26692 4.50524Z" fill="#010101"/>
<path d="M1.84092 15.3832C2.95775 15.488 3.94877 14.6681 4.05358 13.5513H11.224C11.2973 14.4632 12.0217 15.1876 12.9335 15.2609C13.9595 15.3424 14.8586 14.5773 14.9401 13.5513H22.1105C22.2001 14.5307 22.9746 15.3064 23.954 15.3949C25.0743 15.4973 26.0654 14.6716 26.1679 13.5513C26.2704 12.431 25.4447 11.4388 24.3243 11.3374C23.204 11.235 22.2118 12.0607 22.1105 13.181H14.9401C14.8668 12.2691 14.1436 11.5447 13.2317 11.4714C12.2057 11.3899 11.3067 12.155 11.224 13.181H4.05358C3.96158 12.134 3.08587 11.3305 2.03426 11.3281C0.98613 11.327 0.108018 12.1247 0.00902811 13.1693C-0.0957844 14.2862 0.72408 15.2772 1.84092 15.3832ZM23.0899 13.3603C23.0934 12.7757 23.5697 12.3052 24.1532 12.3087C24.7378 12.3122 25.2083 12.7885 25.2048 13.372C25.2013 13.9566 24.7261 14.4271 24.1415 14.4236H24.1124C23.5417 14.405 23.0899 13.9368 23.0899 13.3661V13.3603ZM2.03426 12.3087C2.61888 12.3087 3.09165 12.7815 3.09165 13.3661C3.09165 13.9508 2.61888 14.4236 2.03426 14.4236C1.4508 14.4236 0.977927 13.9508 0.977927 13.3661C0.977927 12.7815 1.4508 12.3087 2.03426 12.3087Z" fill="#010101"/>
<path d="M6.02462 33.5898H0.887695V41.5812H6.02462V33.5898Z" fill="white"/>
<path d="M20.3911 36.3314H14.1827V36.3256C13.6586 36.3256 13.2323 35.8993 13.2323 35.3753C13.2323 34.8512 13.6586 34.425 14.1827 34.425H17.3386C18.4485 34.425 19.3487 33.5457 19.3976 32.4475H12.303C11.3644 32.4475 10.4466 32.8283 9.78398 33.491L8.5437 34.7313C8.18035 35.0934 7.67843 35.3019 7.16602 35.3019V40.4389H13.9346L21.707 38.218L28.62 31.3051L28.4523 31.1385C27.9841 30.6704 27.1794 30.6121 26.6262 30.9627L20.5308 36.279C20.4924 36.3128 20.4423 36.3314 20.3911 36.3314Z" fill="white"/>
<path d="M17.3398 34.8533H14.1838C13.895 34.8533 13.6621 35.0862 13.6621 35.375C13.6621 35.6627 13.8962 35.8968 14.1838 35.8968V35.9026H20.3118L25.6818 31.2198L25.5991 31.1371C25.0715 30.6095 24.1177 30.6049 23.5774 31.1185L20.5308 33.7027C20.4901 33.7364 20.44 33.7539 20.3922 33.7539C20.3305 33.7539 20.2711 33.7283 20.2292 33.6782C20.1523 33.5885 20.1628 33.4535 20.2536 33.3766L22.6935 31.3071C22.1473 30.8192 21.2167 30.8308 20.6997 31.3491L19.8367 32.2109V32.3553C19.8367 33.733 18.7175 34.8533 17.3398 34.8533Z" fill="white"/>
<path d="M22.9897 30.1338C22.0056 29.5911 20.7164 29.7204 19.8919 30.5425L19.1279 31.3065H12.3046C11.0644 31.3065 9.85201 31.8096 8.97857 32.6854L7.73714 33.9245C7.58808 34.0747 7.3796 34.1609 7.16765 34.1609V33.0196C7.16765 32.704 6.91148 32.4478 6.59588 32.4478H0.888249C0.572647 32.4478 0.316406 32.704 0.316406 33.0196C0.316406 33.3352 0.572647 33.5903 0.888249 33.5903H6.02517V41.5816H0.888249C0.572647 41.5816 0.316406 41.8367 0.316406 42.1523C0.316406 42.4679 0.572647 42.7229 0.888249 42.7229H6.59588C6.91148 42.7229 7.16765 42.4679 7.16765 42.1523V41.5828H14.0166C14.069 41.5828 14.1214 41.5746 14.1726 41.5607L22.1651 39.2769C22.2583 39.2501 22.3434 39.2001 22.4121 39.1314L29.8328 31.7106C30.0553 31.4882 30.0553 31.126 29.8328 30.9024L29.261 30.3318C28.3945 29.4653 27.0017 29.3547 26.0025 30.0057C25.0906 29.4129 23.8585 29.463 22.9897 30.1338ZM19.8372 32.2126L20.7001 31.3508C21.2172 30.8325 22.1477 30.8209 22.6939 31.3088L20.2541 33.3783C20.1632 33.4552 20.1528 33.5903 20.2296 33.6799C20.2715 33.73 20.3321 33.7556 20.3927 33.7556C20.4416 33.7556 20.4905 33.7382 20.5313 33.7044L23.579 31.1202C24.1182 30.6066 25.072 30.6112 25.5995 31.1388L25.6822 31.2215L20.3123 35.9043H14.1843V35.8985C13.8966 35.8985 13.6626 35.6644 13.6626 35.3767C13.6626 35.0879 13.8966 34.855 14.1843 34.855H17.3403C18.718 34.855 19.8372 33.7347 19.8372 32.357V32.2126ZM28.4539 31.14L28.6216 31.3065L21.7087 38.2195L13.9362 40.4403H7.16765V35.3034C7.68006 35.3034 8.18198 35.0949 8.54533 34.7327L9.78562 33.4924C10.4483 32.8298 11.366 32.449 12.3046 32.449H19.3993C19.3503 33.5472 18.4501 34.4264 17.3403 34.4264H14.1843C13.6602 34.4264 13.2339 34.8527 13.2339 35.3767C13.2339 35.9008 13.6602 36.327 14.1843 36.327V36.3329H20.3927C20.4439 36.3329 20.494 36.3142 20.5324 36.2805L26.6279 30.9641C27.181 30.6136 27.9858 30.6718 28.4539 31.14Z" fill="#010101"/>
</svg>
