<svg width="50" height="29" viewBox="0 0 50 29" fill="none" xmlns="http://www.w3.org/2000/svg">
<path d="M2.45508 11.7372H47.5439V2.18457H2.45508V11.7372ZM44.0798 5.94002C44.5976 5.94002 45.0168 6.35925 45.0168 6.87704C45.0168 7.39336 44.5976 7.81259 44.0798 7.81259C43.562 7.81259 43.1442 7.39336 43.1442 6.87704C43.1442 6.35925 43.562 5.94002 44.0798 5.94002ZM29.0727 6.44603H41.0642V7.2845H29.0727V6.44603ZM24.998 5.09713C25.9821 5.09713 26.7794 5.89295 26.7794 6.87704C26.7794 7.8582 25.9821 8.65547 24.998 8.65547C24.0154 8.65547 23.2196 7.8582 23.2196 6.87704C23.2196 5.89295 24.0154 5.09713 24.998 5.09713ZM11.8577 6.44603H21.2102V7.2845H11.8577V6.44603ZM9.62761 3.9174H10.4661V9.81167H9.62761V3.9174ZM7.27257 3.9174H8.10957V9.81167H7.27257V3.9174ZM4.91601 3.9174H5.75301V9.81167H4.91601V3.9174Z" fill="white"/>
<path d="M2.45508 26.8173H47.5439V17.2646H2.45508V26.8173ZM44.0798 21.0201C44.5976 21.0201 45.0168 21.4393 45.0168 21.9571C45.0168 22.4734 44.5976 22.8927 44.0798 22.8927C43.562 22.8927 43.1442 22.4734 43.1442 21.9571C43.1442 21.4393 43.562 21.0201 44.0798 21.0201ZM29.0727 21.5261H41.0642V22.3646H29.0727V21.5261ZM24.998 20.1772C25.9821 20.1772 26.7794 20.9745 26.7794 21.9571C26.7794 22.9397 25.9821 23.7356 24.998 23.7356C24.0154 23.7356 23.2196 22.9397 23.2196 21.9571C23.2196 20.9745 24.0154 20.1772 24.998 20.1772ZM11.8577 21.5261H21.2102V22.3646H11.8577V21.5261ZM9.62761 18.999H10.4661V24.8932H9.62761V18.999ZM7.27257 18.999H8.10957V24.8932H7.27257V18.999ZM4.91601 18.999H5.75301V24.8932H4.91601V18.999Z" fill="white"/>
<path d="M41.0638 6.44531H29.0723V7.28378H41.0638V6.44531Z" fill="#231F20"/>
<path d="M21.2105 6.44531H11.8594V7.28378H21.2105V6.44531Z" fill="#231F20"/>
<path d="M24.9972 8.65405C25.9813 8.65405 26.7785 7.85677 26.7785 6.87562C26.7785 5.89152 25.9813 5.0957 24.9972 5.0957C24.0145 5.0957 23.2188 5.89152 23.2188 6.87562C23.2188 7.85677 24.0145 8.65405 24.9972 8.65405Z" fill="#231F20"/>
<path d="M44.0791 7.81202C44.5969 7.81202 45.0161 7.3928 45.0161 6.87648C45.0161 6.35869 44.5969 5.93945 44.0791 5.93945C43.5613 5.93945 43.1436 6.35869 43.1436 6.87648C43.1436 7.3928 43.5613 7.81202 44.0791 7.81202Z" fill="#231F20"/>
<path d="M49.224 0.50293H0.775391V13.4168H49.224V0.50293ZM47.5441 11.7369H2.45526V2.18427H47.5441V11.7369Z" fill="#231F20"/>
<path d="M41.0638 21.5264H29.0723V22.3648H41.0638V21.5264Z" fill="#231F20"/>
<path d="M21.2105 21.5264H11.8594V22.3648H21.2105V21.5264Z" fill="#231F20"/>
<path d="M24.9972 23.7361C25.9813 23.7361 26.7785 22.9403 26.7785 21.9576C26.7785 20.975 25.9813 20.1777 24.9972 20.1777C24.0145 20.1777 23.2188 20.975 23.2188 21.9576C23.2188 22.9403 24.0145 23.7361 24.9972 23.7361Z" fill="#231F20"/>
<path d="M44.0791 22.8931C44.5969 22.8931 45.0161 22.4739 45.0161 21.9575C45.0161 21.4397 44.5969 21.0205 44.0791 21.0205C43.5613 21.0205 43.1436 21.4397 43.1436 21.9575C43.1436 22.4739 43.5613 22.8931 44.0791 22.8931Z" fill="#231F20"/>
<path d="M49.224 15.585H0.775391V28.4973H49.224V15.585ZM47.5441 26.8175H2.45526V17.2648H47.5441V26.8175Z" fill="#231F20"/>
</svg>
