<svg width="38" height="39" viewBox="0 0 38 39" fill="none" xmlns="http://www.w3.org/2000/svg">
<path d="M37.3329 24.3262C37.0016 25.5794 36.5527 26.7873 35.9834 27.9258C36.5512 26.7859 37.003 25.5822 37.3329 24.3262Z" fill="white"/>
<path d="M3.42642 32.1633C2.86141 31.029 2.41393 29.8296 2.08398 28.582C2.41251 29.831 2.86282 31.0276 3.42642 32.1633Z" fill="white"/>
<path d="M18.9993 0.522461C8.51891 0.522461 0.0224609 9.01889 0.0224609 19.4993C0.0224609 19.7315 0.0493577 19.9553 0.0578542 20.1847C0.0493577 19.9567 0.0309743 19.7301 0.0309743 19.4993C0.0309743 9.04013 8.54015 0.529527 18.9993 0.529527C29.4584 0.529527 37.969 9.04013 37.969 19.4993C37.969 19.7329 37.9506 19.9609 37.9421 20.1917C37.9506 19.9595 37.9775 19.7329 37.9775 19.4993C37.9775 9.01889 29.4797 0.522461 18.9993 0.522461Z" fill="white"/>
<path d="M36.405 19.4997L36.4036 19.4431H35.2962V17.8811H36.3271C35.9406 13.7179 34.0855 9.97379 31.2816 7.17845L30.5566 7.9049L29.4521 6.80036L30.1247 6.12629C27.1184 3.61984 23.2554 2.10606 19.0468 2.09473V3.09589H17.4848V2.1627C13.871 2.47566 10.5687 3.89315 7.92206 6.08098L8.64004 6.80036L7.53693 7.9049L6.76372 7.13172C3.93299 9.93271 2.0567 13.6938 1.66869 17.8811H2.7973V19.4431H1.5922C1.5922 19.4615 1.59082 19.4813 1.59082 19.4997C1.59082 23.2495 2.78596 26.7217 4.80953 29.5666L3.52518 30.4446C6.96057 35.2975 12.5994 38.478 18.9986 38.478C25.3965 38.478 31.0353 35.2975 34.4707 30.4446L33.1863 29.5666C35.2098 26.7217 36.405 23.2495 36.405 19.4997ZM9.68226 26.2346L9.19795 26.5645C7.76063 24.5749 6.9011 22.1379 6.9011 19.4997C6.9011 12.83 12.3275 7.40501 18.9972 7.40501C21.7274 7.40501 24.357 8.33396 26.4854 10.0148L25.9841 10.3632C23.9846 8.83242 21.5362 7.98986 18.9972 7.98986C12.6504 7.98986 7.48736 13.1529 7.48736 19.4997C7.48736 22.0161 8.30867 24.3385 9.68226 26.2346ZM13.6798 23.5015L13.1955 23.8315C12.2892 22.6207 11.7455 21.1254 11.7455 19.4997C11.7455 15.5007 14.9996 12.248 18.9972 12.248C20.1173 12.248 21.2049 12.5086 22.1947 12.9971L21.6297 13.3894C20.8027 13.0325 19.9134 12.8342 18.9972 12.8342C15.3225 12.8342 12.3317 15.825 12.3317 19.4997C12.3317 21.0022 12.8373 22.3857 13.6798 23.5015ZM30.8073 12.1361L21.8492 18.364C21.9908 18.7166 22.0729 19.0976 22.0729 19.5011C22.0729 21.199 20.6965 22.5754 18.9986 22.5754C17.2993 22.5754 15.9229 21.199 15.9229 19.5011C15.9229 17.8018 17.2993 16.4254 18.9986 16.4254C19.7265 16.4254 20.3864 16.6888 20.9117 17.1122L29.9151 10.8532C30.2706 10.6068 30.7563 10.6946 31.0027 11.0486C31.2491 11.4026 31.1613 11.8897 30.8073 12.1361Z" fill="white"/>
<path d="M3.47275 30.3727C3.2306 30.0272 2.99977 29.6746 2.78027 29.3135C2.99835 29.6746 3.2306 30.0272 3.47275 30.3727Z" fill="white"/>
<path d="M18.9986 0.52832C8.53945 0.52832 0.0302734 9.03893 0.0302734 19.4981C0.0302734 19.7289 0.0486568 19.9555 0.0571533 20.1835C0.0684819 20.5049 0.0783896 20.8264 0.105295 21.1421C0.1322 21.4494 0.173261 21.751 0.214327 22.0541C0.248313 22.3047 0.285165 22.5525 0.329063 22.8003C0.38429 23.1232 0.447984 23.4432 0.520204 23.759C0.565518 23.9516 0.617919 24.1414 0.667481 24.3325C0.997427 25.5801 1.4449 26.7795 2.00992 27.9138C2.02833 27.9535 2.04675 27.9931 2.06657 28.0328C2.26766 28.4321 2.48573 28.8215 2.71372 29.2038L2.78027 29.3129C2.99976 29.674 3.23202 30.0266 3.47275 30.3721C3.48975 30.3962 3.50528 30.4217 3.52228 30.4457L3.52656 30.4429L4.81091 29.5649C2.78734 26.7201 1.5922 23.2478 1.5922 19.4981C1.5922 19.4797 1.59358 19.4598 1.59358 19.4414H2.79868V17.8795H1.67007C2.05808 13.6922 3.93437 9.93106 6.7651 7.13007L7.53688 7.90325L8.64142 6.79871L7.92344 6.07933C10.5701 3.8915 13.8724 2.47401 17.4862 2.16105V3.09424H19.0482V2.09308C23.2567 2.10441 27.1198 3.61819 30.1261 6.12464L29.4535 6.79871L30.558 7.90325L31.283 7.1768C34.0869 9.97214 35.9419 13.7162 36.3285 17.8795H35.2976V19.4414H36.405L36.4064 19.4981C36.4064 23.2478 35.2112 26.7201 33.1876 29.5649L34.472 30.4429L34.4763 30.4457C34.4933 30.4231 34.5075 30.3976 34.523 30.3749C34.768 30.0266 35.0017 29.6697 35.2226 29.3058C35.2424 29.2732 35.2622 29.2421 35.282 29.2095C35.5128 28.8243 35.7309 28.4321 35.9348 28.0285C35.9504 27.9945 35.966 27.9591 35.983 27.9251C36.5522 26.7866 37.0011 25.5787 37.3325 24.324C37.3835 24.1371 37.4345 23.9516 37.4784 23.7619C37.5506 23.4432 37.6143 23.1232 37.671 22.7989C37.7149 22.5525 37.7502 22.3047 37.7842 22.0555C37.8253 21.7524 37.8664 21.4494 37.8933 21.1407C37.9202 20.8278 37.9287 20.5092 37.9414 20.1905C37.9499 19.9597 37.9683 19.7317 37.9683 19.4981C37.9683 9.03893 29.4577 0.52832 18.9986 0.52832Z" fill="#010101"/>
<path d="M29.917 10.8537L20.9136 17.1128C20.3882 16.6894 19.727 16.426 18.9991 16.426C17.3012 16.426 15.9248 17.8024 15.9248 19.5017C15.9248 21.1996 17.3012 22.576 18.9991 22.576C20.6984 22.576 22.0748 21.1996 22.0748 19.5017C22.0748 19.0981 21.9927 18.7158 21.8511 18.3646L30.8092 12.1367C31.1632 11.8903 31.251 11.4032 31.0046 11.0491C30.7582 10.6951 30.2725 10.6073 29.917 10.8537Z" fill="#010101"/>
<path d="M18.9988 12.8333C19.915 12.8333 20.8043 13.0316 21.6313 13.3884L22.1963 12.9962C21.2065 12.5076 20.1189 12.2471 18.9988 12.2471C14.9998 12.2471 11.7471 15.4998 11.7471 19.4988C11.7471 21.1244 12.2908 22.6198 13.1971 23.8306L13.6814 23.5006C12.8389 22.3847 12.3333 21.0012 12.3333 19.4988C12.3333 15.8241 15.3241 12.8333 18.9988 12.8333Z" fill="#010101"/>
<path d="M18.9984 7.98915C21.5375 7.98915 23.9844 8.83171 25.9853 10.3625L26.4866 10.0141C24.3583 8.33325 21.7286 7.4043 18.9984 7.4043C12.3287 7.4043 6.90234 12.8293 6.90234 19.499C6.90234 22.1371 7.76187 24.5742 9.19919 26.5638L9.6835 26.2339C8.30849 24.3377 7.4886 22.0154 7.4886 19.499C7.4886 13.1521 12.6516 7.98915 18.9984 7.98915Z" fill="#010101"/>
</svg>
