<svg width="60" height="105" viewBox="0 0 60 105" fill="none" xmlns="http://www.w3.org/2000/svg">
<path d="M30 0.737305L0.421879 15.5267V89.4736L30 104.263L59.5781 89.4736V15.5267L30 0.737305Z" fill="white"/>
<path d="M30.0132 104.263L59.5781 89.4734V15.5332L30.0132 30.3159V104.263Z" fill="#D0D2D3"/>
<path d="M29.1037 40.136L59.5781 24.8984" stroke="#211E1F" stroke-width="0.81" stroke-miterlimit="10"/>
<path d="M0.421877 15.5273L30 30.3165V104.263L0.421877 89.474V15.5273Z" fill="#E6E7E8"/>
<path d="M30 0.737305L0.421877 15.5267V89.4736L30 104.263L59.5781 89.4736V15.5267L30 0.737305Z" stroke="#211E1F" stroke-width="0.81" stroke-miterlimit="10"/>
<path d="M58.1943 24.4107L31.3974 37.8094V31.1068L58.1943 17.708V24.4107Z" fill="white"/>
<path d="M48.8163 27.2109C49.0469 27.0988 49.2314 26.8154 49.2314 26.5914V24.1067C49.2314 23.876 49.0469 23.7837 48.8163 23.9024C48.5856 24.0144 48.4011 24.2978 48.4011 24.5219V27.0066C48.4011 27.2372 48.5856 27.3295 48.8163 27.2109Z" fill="#22C498"/>
<path d="M50.4696 26.3876C50.7002 26.2756 50.8848 25.9922 50.8848 25.7681V23.2834C50.8848 23.0528 50.7002 22.9605 50.4696 23.0791C50.2389 23.1912 50.0544 23.4746 50.0544 23.6987V26.1833C50.0544 26.414 50.2389 26.5063 50.4696 26.3876Z" fill="#22C498"/>
<path d="M52.1239 25.5566C52.3545 25.4445 52.5391 25.1611 52.5391 24.9371V22.4524C52.5391 22.2217 52.3545 22.1294 52.1239 22.2481C51.8932 22.3601 51.7087 22.6435 51.7087 22.8676V25.3523C51.7087 25.5829 51.8932 25.6752 52.1239 25.5566Z" fill="#22C498"/>
<path d="M53.7782 24.7343C54.0088 24.6223 54.1934 24.3389 54.1934 24.1148V21.6301C54.1934 21.3994 54.0088 21.3072 53.7782 21.4258C53.5475 21.5379 53.363 21.8213 53.363 22.0453V24.53C53.363 24.7607 53.5475 24.8529 53.7782 24.7343Z" fill="#22C498"/>
<path d="M55.4334 23.9023C55.6641 23.7902 55.8486 23.5068 55.8486 23.2828V20.7981C55.8486 20.5674 55.6641 20.4752 55.4334 20.5938C55.2028 20.7058 55.0182 20.9892 55.0182 21.2133V23.698C55.0182 23.9286 55.2028 24.0209 55.4334 23.9023Z" fill="#22C498"/>
<path d="M33.8464 33.7284C33.565 33.5089 33.6296 32.9566 33.9901 32.4946C34.3506 32.0326 34.8705 31.8362 35.152 32.0557C35.4334 32.2751 35.3688 32.8274 35.0083 33.2894C34.6478 33.7514 34.1271 33.9478 33.8464 33.7284Z" fill="#22C498"/>
<path d="M58.1943 17.6875L31.3974 31.1062" stroke="#D0D2D3" stroke-width="0.75" stroke-miterlimit="10" stroke-linecap="round"/>
<path d="M21.1221 43.5621L10.0039 38.5137V72.6136L15.2104 74.9796V46.4158L15.9222 46.7388V75.3026L21.1221 77.662V43.5621Z" fill="#071631"/>
<path d="M58.5898 88.7019L31.7863 102.107V95.4046L58.5898 82.0059V88.7019Z" fill="white"/>
<path d="M38.4294 90.9962L32.2014 88.0897L41.9487 83.2061L48.1768 86.1191L38.4294 90.9962Z" fill="#E6E7E8"/>
<path d="M52.5194 89.8564C52.75 89.7443 52.9346 89.4609 52.9346 89.2369V86.7522C52.9346 86.5215 52.75 86.4293 52.5194 86.5479C52.2887 86.6599 52.1042 86.9433 52.1042 87.1674V89.6521C52.1042 89.8827 52.2887 89.975 52.5194 89.8564Z" fill="#3DE286"/>
<path d="M54.1746 89.0253C54.4053 88.9133 54.5898 88.6299 54.5898 88.4058V85.9211C54.5898 85.6905 54.4053 85.5982 54.1746 85.7168C53.944 85.8289 53.7595 86.1123 53.7595 86.3363V88.821C53.7595 89.0517 53.944 89.144 54.1746 89.0253Z" fill="#3DE286"/>
<path d="M55.8289 88.2011C56.0596 88.0891 56.2441 87.8057 56.2441 87.5816V85.0969C56.2441 84.8663 56.0596 84.774 55.8289 84.8926C55.5983 85.0046 55.4137 85.288 55.4137 85.5121V87.9968C55.4137 88.2275 55.5983 88.3197 55.8289 88.2011Z" fill="#3DE286"/>
<path d="M34.2429 98.0287C33.9615 97.8086 34.026 97.2563 34.3865 96.7943C34.747 96.333 35.267 96.1359 35.5484 96.3554C35.8299 96.5755 35.7653 97.1278 35.4048 97.5898C35.0443 98.0511 34.5236 98.2482 34.2429 98.0287Z" fill="#3DE286"/>
<path d="M58.5898 81.3072L31.7863 94.7059V88.0098L58.5898 74.6045V81.3072Z" fill="white"/>
<path d="M38.4294 83.6017L32.2014 80.6886L41.9487 75.8115L48.1768 78.718L38.4294 83.6017Z" fill="#E6E7E8"/>
<path d="M52.5194 82.454C52.75 82.342 52.9346 82.0586 52.9346 81.8345V79.3498C52.9346 79.1192 52.75 79.0269 52.5194 79.1455C52.2887 79.2576 52.1042 79.541 52.1042 79.7651V82.2497C52.1042 82.4804 52.2887 82.5727 52.5194 82.454Z" fill="#3DE286"/>
<path d="M54.1746 81.6298C54.4053 81.5178 54.5898 81.2344 54.5898 81.0103V78.5256C54.5898 78.295 54.4053 78.2027 54.1746 78.3213C53.944 78.4334 53.7595 78.7168 53.7595 78.9408V81.4255C53.7595 81.6562 53.944 81.7485 54.1746 81.6298Z" fill="#3DE286"/>
<path d="M55.8289 80.7988C56.0596 80.6867 56.2441 80.4033 56.2441 80.1792V77.6946C56.2441 77.4639 56.0596 77.3716 55.8289 77.4903C55.5983 77.6023 55.4137 77.8857 55.4137 78.1098V80.5944C55.4137 80.8251 55.5983 80.9174 55.8289 80.7988Z" fill="#3DE286"/>
<path d="M34.2438 90.6297C33.9624 90.4103 34.027 89.858 34.3875 89.396C34.748 88.934 35.2687 88.7376 35.5494 88.957C35.8308 89.1765 35.7663 89.7288 35.4058 90.1908C35.0453 90.6528 34.5253 90.8492 34.2438 90.6297Z" fill="#3DE286"/>
<path d="M58.5898 74.0132L31.7863 87.4186V80.7159L58.5898 67.3105V74.0132Z" fill="white"/>
<path d="M38.4294 76.3057L32.2014 73.3927L41.9487 68.5156L48.1768 71.4221L38.4294 76.3057Z" fill="#E6E7E8"/>
<path d="M52.5194 75.165C52.75 75.0529 52.9346 74.7695 52.9346 74.5455V72.0608C52.9346 71.8301 52.75 71.7378 52.5194 71.8565C52.2887 71.9685 52.1042 72.2519 52.1042 72.476V74.9607C52.1042 75.1913 52.2887 75.2836 52.5194 75.165Z" fill="#3DE286"/>
<path d="M54.1746 74.3349C54.4053 74.2229 54.5898 73.9395 54.5898 73.7154V71.2307C54.5898 71 54.4053 70.9078 54.1746 71.0264C53.944 71.1384 53.7595 71.4218 53.7595 71.6459V74.1306C53.7595 74.3613 53.944 74.4535 54.1746 74.3349Z" fill="#3DE286"/>
<path d="M55.8289 73.5048C56.0596 73.3928 56.2441 73.1094 56.2441 72.8853V70.4006C56.2441 70.17 56.0596 70.0777 55.8289 70.1963C55.5983 70.3084 55.4137 70.5918 55.4137 70.8158V73.3005C55.4137 73.5312 55.5983 73.6234 55.8289 73.5048Z" fill="#3DE286"/>
<path d="M34.2396 83.3319C33.9582 83.1124 34.0228 82.5595 34.3833 82.0981C34.7444 81.6361 35.2644 81.4397 35.5458 81.6592C35.8266 81.8786 35.7627 82.4309 35.4015 82.8929C35.041 83.3549 34.521 83.5513 34.2396 83.3319Z" fill="#3DE286"/>
<path d="M58.5898 66.6704L31.7863 80.0692V73.3731L58.5898 59.9678V66.6704Z" fill="white"/>
<path d="M38.4294 68.9627L32.2014 66.0497L41.9487 61.166L48.1768 64.0791L38.4294 68.9627Z" fill="#E6E7E8"/>
<path d="M52.5194 67.8163C52.75 67.7043 52.9346 67.4209 52.9346 67.1968V64.7122C52.9346 64.4815 52.75 64.3892 52.5194 64.5078C52.2887 64.6199 52.1042 64.9033 52.1042 65.1274V67.612C52.1042 67.8427 52.2887 67.935 52.5194 67.8163Z" fill="#3DE286"/>
<path d="M54.1746 66.9921C54.4053 66.8801 54.5898 66.5967 54.5898 66.3726V63.8879C54.5898 63.6573 54.4053 63.565 54.1746 63.6836C53.944 63.7957 53.7595 64.0791 53.7595 64.3031V66.7878C53.7595 67.0185 53.944 67.1108 54.1746 66.9921Z" fill="#3DE286"/>
<path d="M55.8289 66.163C56.0596 66.051 56.2441 65.7676 56.2441 65.5435V63.0588C56.2441 62.8282 56.0596 62.7359 55.8289 62.8545C55.5983 62.9666 55.4137 63.25 55.4137 63.474V65.9587C55.4137 66.1894 55.5983 66.2817 55.8289 66.163Z" fill="#3DE286"/>
<path d="M34.2432 75.9881C33.9624 75.7687 34.027 75.2164 34.3875 74.7544C34.748 74.2924 35.268 74.096 35.5494 74.3154C35.8308 74.5349 35.7662 75.0872 35.4057 75.5492C35.0452 76.0112 34.5246 76.2076 34.2432 75.9881Z" fill="#3DE286"/>
<path d="M58.5898 59.3345L31.7863 72.7333V66.0372L58.5898 52.6318V59.3345Z" fill="white"/>
<path d="M38.4294 61.628L32.2014 58.715L41.9487 53.8379L48.1768 56.7444L38.4294 61.628Z" fill="#E6E7E8"/>
<path d="M52.5194 60.4804C52.75 60.3684 52.9346 60.085 52.9346 59.8609V57.3762C52.9346 57.1455 52.75 57.0533 52.5194 57.1719C52.2887 57.2839 52.1042 57.5673 52.1042 57.7914V60.2761C52.1042 60.5068 52.2887 60.599 52.5194 60.4804Z" fill="#3DE286"/>
<path d="M54.1746 59.6562C54.4053 59.5441 54.5898 59.2608 54.5898 59.0367V56.552C54.5898 56.3213 54.4053 56.2291 54.1746 56.3477C53.944 56.4597 53.7595 56.7431 53.7595 56.9672V59.4519C53.7595 59.6825 53.944 59.7748 54.1746 59.6562Z" fill="#3DE286"/>
<path d="M55.8289 58.8271C56.0596 58.715 56.2441 58.4316 56.2441 58.2076V55.7229C56.2441 55.4922 56.0596 55.4 55.8289 55.5186C55.5983 55.6306 55.4137 55.914 55.4137 56.1381V58.6228C55.4137 58.8534 55.5983 58.9457 55.8289 58.8271Z" fill="#3DE286"/>
<path d="M34.2427 68.6571C33.9613 68.4376 34.0259 67.8853 34.3864 67.4233C34.7476 66.9613 35.2676 66.7649 35.549 66.9844C35.8297 67.2038 35.7651 67.7561 35.4046 68.2181C35.0441 68.6801 34.5242 68.8765 34.2427 68.6571Z" fill="#3DE286"/>
<path d="M58.5898 51.9402L31.7863 65.3456V58.6429L58.5898 45.2441V51.9402Z" fill="white"/>
<path d="M38.4294 54.2335L32.2014 51.327L41.9487 46.4434L48.1768 49.3498L38.4294 54.2335Z" fill="#E6E7E8"/>
<path d="M52.5194 53.0927C52.75 52.9807 52.9346 52.6973 52.9346 52.4732V49.9885C52.9346 49.7578 52.75 49.6656 52.5194 49.7842C52.2887 49.8963 52.1042 50.1797 52.1042 50.4037V52.8884C52.1042 53.1191 52.2887 53.2113 52.5194 53.0927Z" fill="#3DE286"/>
<path d="M54.1746 52.2626C54.4053 52.1506 54.5898 51.8672 54.5898 51.6431V49.1584C54.5898 48.9278 54.4053 48.8355 54.1746 48.9541C53.944 49.0662 53.7595 49.3496 53.7595 49.5737V52.0583C53.7595 52.289 53.944 52.3813 54.1746 52.2626Z" fill="#3DE286"/>
<path d="M55.8289 51.4384C56.0596 51.3264 56.2441 51.043 56.2441 50.8189V48.3342C56.2441 48.1036 56.0596 48.0113 55.8289 48.1299C55.5983 48.242 55.4137 48.5254 55.4137 48.7494V51.2341C55.4137 51.4648 55.5983 51.557 55.8289 51.4384Z" fill="#3DE286"/>
<path d="M34.2461 61.2596C33.9654 61.0401 34.03 60.4879 34.3905 60.0259C34.751 59.5638 35.2709 59.3674 35.5524 59.5869C35.8338 59.8064 35.7692 60.3593 35.4087 60.8207C35.0475 61.2827 34.5275 61.4797 34.2461 61.2596Z" fill="#3DE286"/>
<path d="M58.5898 44.5513L31.7863 57.9501V51.2474L58.5898 37.8486V44.5513Z" fill="white"/>
<path d="M38.4294 46.839L32.2014 43.9325L41.9487 39.0488L48.1768 41.9619L38.4294 46.839Z" fill="#E6E7E8"/>
<path d="M52.5194 45.6991C52.75 45.5871 52.9346 45.3037 52.9346 45.0796V42.595C52.9346 42.3643 52.75 42.272 52.5194 42.3907C52.2887 42.5027 52.1042 42.7861 52.1042 43.0102V45.4948C52.1042 45.7255 52.2887 45.8178 52.5194 45.6991Z" fill="#3DE286"/>
<path d="M54.1746 44.8691C54.4053 44.757 54.5898 44.4736 54.5898 44.2496V41.7649C54.5898 41.5342 54.4053 41.4419 54.1746 41.5606C53.944 41.6726 53.7595 41.956 53.7595 42.1801V44.6648C53.7595 44.8954 53.944 44.9877 54.1746 44.8691Z" fill="#3DE286"/>
<path d="M55.8289 44.0449C56.0596 43.9328 56.2441 43.6494 56.2441 43.4253V40.9407C56.2441 40.71 56.0596 40.6177 55.8289 40.7364C55.5983 40.8484 55.4137 41.1318 55.4137 41.3559V43.8406C55.4137 44.0712 55.5983 44.1635 55.8289 44.0449Z" fill="#3DE286"/>
<path d="M34.2429 53.8631C33.9615 53.6437 34.026 53.0914 34.3865 52.6294C34.747 52.1674 35.267 51.971 35.5484 52.1904C35.8299 52.4099 35.7653 52.9622 35.4048 53.4242C35.0443 53.8862 34.5236 54.0826 34.2429 53.8631Z" fill="#3DE286"/>
<path d="M58.5898 37.1578L31.7863 50.5565V43.8538L58.5898 30.4551V37.1578Z" fill="white"/>
<path d="M52.5194 38.3037C52.75 38.1916 52.9346 37.9082 52.9346 37.6841V35.1995C52.9346 34.9688 52.75 34.8765 52.5194 34.9951C52.2887 35.1072 52.1042 35.3906 52.1042 35.6147V38.0993C52.1042 38.33 52.2887 38.4223 52.5194 38.3037Z" fill="#3DE286"/>
<path d="M54.1746 37.4804C54.4053 37.3684 54.5898 37.085 54.5898 36.8609V34.3762C54.5898 34.1455 54.4053 34.0533 54.1746 34.1719C53.944 34.2839 53.7595 34.5673 53.7595 34.7914V37.2761C53.7595 37.5068 53.944 37.599 54.1746 37.4804Z" fill="#3DE286"/>
<path d="M55.8289 36.6503C56.0596 36.5383 56.2441 36.2549 56.2441 36.0308V33.5461C56.2441 33.3155 56.0596 33.2232 55.8289 33.3418C55.5983 33.4539 55.4137 33.7373 55.4137 33.9614V36.446C55.4137 36.6767 55.5983 36.769 55.8289 36.6503Z" fill="#3DE286"/>
<path d="M34.2419 46.4784C33.9605 46.2589 34.0251 45.7059 34.3856 45.2446C34.7461 44.7826 35.266 44.5862 35.5475 44.8057C35.8289 45.0251 35.7643 45.5774 35.4038 46.0394C35.0433 46.5014 34.5227 46.6978 34.2419 46.4784Z" fill="#3DE286"/>
<path d="M58.5898 23.04L31.7863 36.4652" stroke="#DAE9F5" stroke-width="0.75" stroke-miterlimit="10" stroke-linecap="round"/>
</svg>
