<svg width="82" height="113" viewBox="0 0 82 113" fill="none" xmlns="http://www.w3.org/2000/svg">
<path d="M40.9589 70.583L9.66211 86.0441V93.7713L47.1403 111.921L78.4371 96.4664V88.7324L40.9589 70.583Z" fill="white"/>
<g style="mix-blend-mode:multiply">
<path d="M78.4364 96.4664L47.1396 111.921V104.194L78.4364 88.7324V96.4664Z" fill="#D1F6D5"/>
</g>
<g style="mix-blend-mode:multiply">
<path d="M47.1403 111.921L9.66211 93.7711V86.0439L47.1403 104.193V111.921Z" fill="#D1F6D5"/>
</g>
<g style="mix-blend-mode:multiply">
<path d="M47.1403 104.193L9.66211 86.0439L40.9589 70.5625L78.4371 88.7119L47.1403 104.193Z" fill="#F4FDF3"/>
</g>
<path d="M38.6261 105.713C38.9622 105.713 39.2347 105.444 39.2347 105.112C39.2347 104.78 38.9622 104.511 38.6261 104.511C38.29 104.511 38.0176 104.78 38.0176 105.112C38.0176 105.444 38.29 105.713 38.6261 105.713Z" fill="black"/>
<path d="M9.66211 89.0166L46.7779 106.99" stroke="#221F1F" stroke-width="0.84" stroke-linecap="round" stroke-linejoin="round"/>
<path d="M67.4835 99.6949C67.7502 99.5666 67.969 99.2424 67.969 98.979V96.115C67.969 95.8516 67.7502 95.7436 67.4835 95.8786C67.2169 96.007 66.998 96.3312 66.998 96.5946V99.4585C66.998 99.722 67.2169 99.83 67.4835 99.6949Z" fill="black"/>
<path d="M69.4122 98.7428C69.6789 98.6145 69.8977 98.2902 69.8977 98.0268V95.1629C69.8977 94.8995 69.6789 94.7914 69.4122 94.9265C69.1456 95.0548 68.9268 95.379 68.9268 95.6425V98.5064C68.9268 98.7698 69.1456 98.8779 69.4122 98.7428Z" fill="black"/>
<path d="M71.3468 97.7906C71.6135 97.6623 71.8323 97.3381 71.8323 97.0747V94.2108C71.8323 93.9473 71.6135 93.8393 71.3468 93.9743C71.0801 94.1027 70.8613 94.4269 70.8613 94.6903V97.5542C70.8613 97.8177 71.0801 97.9257 71.3468 97.7906Z" fill="black"/>
<path d="M73.2824 96.8317C73.549 96.7033 73.7679 96.3791 73.7679 96.1157V93.2518C73.7679 92.9883 73.549 92.8803 73.2824 93.0154C73.0157 93.1437 72.7969 93.4679 72.7969 93.7313V96.5953C72.7969 96.8587 73.0157 96.9668 73.2824 96.8317Z" fill="black"/>
<path d="M75.2101 95.8785C75.4768 95.7502 75.6956 95.426 75.6956 95.1626V92.2986C75.6956 92.0352 75.4768 91.9271 75.2101 92.0622C74.9434 92.1906 74.7246 92.5148 74.7246 92.7782V95.6421C74.7246 95.9056 74.9434 96.0136 75.2101 95.8785Z" fill="black"/>
<path d="M51.3585 106.688C51.7791 106.156 51.8547 105.52 51.5273 105.267C51.1998 105.015 50.5934 105.241 50.1728 105.774C49.7521 106.306 49.6766 106.942 50.004 107.195C50.3314 107.447 50.9379 107.22 51.3585 106.688Z" fill="#22C498"/>
<path opacity="0.3" d="M78.4364 88.7119L47.1396 104.193" stroke="#221F1F" stroke-width="0.84" stroke-miterlimit="10" stroke-linecap="round"/>
<path d="M37.116 107.064L47.1403 111.921L78.4371 96.4664V88.7324L40.9589 70.583L9.66211 86.0441V93.7713L37.116 107.064Z" stroke="#211E1F" stroke-width="0.81" stroke-miterlimit="10"/>
<path d="M40.9599 58.9775L9.66309 74.4319V82.1591L47.1413 100.308L78.438 84.8541V77.127L40.9599 58.9775Z" fill="white"/>
<g style="mix-blend-mode:multiply">
<path d="M78.4384 84.8541L47.1416 100.308V92.5813L78.4384 77.127V84.8541Z" fill="#D1F6D5"/>
</g>
<g style="mix-blend-mode:multiply">
<path d="M47.1413 100.309L9.66309 82.1598V74.4326L47.1413 92.582V100.309Z" fill="#D1F6D5"/>
</g>
<g style="mix-blend-mode:multiply">
<path d="M47.1413 92.582L9.66309 74.4326L40.9599 58.9512L78.438 77.1073L47.1413 92.582Z" fill="white"/>
</g>
<path d="M38.6271 94.1086C38.9632 94.1086 39.2357 93.8394 39.2357 93.5074C39.2357 93.1754 38.9632 92.9062 38.6271 92.9062C38.291 92.9062 38.0186 93.1754 38.0186 93.5074C38.0186 93.8394 38.291 94.1086 38.6271 94.1086Z" fill="black"/>
<path d="M9.66309 77.4111L46.7789 95.3849" stroke="#221F1F" stroke-width="0.84" stroke-linecap="round" stroke-linejoin="round"/>
<path d="M67.4845 88.0905C67.7512 87.9621 67.97 87.6379 67.97 87.3745V84.5106C67.97 84.2471 67.7512 84.1391 67.4845 84.2741C67.2178 84.4025 66.999 84.7267 66.999 84.9901V87.854C66.999 88.1175 67.2178 88.2256 67.4845 88.0905Z" fill="black"/>
<path d="M69.4132 87.1383C69.6799 87.01 69.8987 86.6858 69.8987 86.4223V83.5584C69.8987 83.295 69.6799 83.1869 69.4132 83.322C69.1465 83.4503 68.9277 83.7746 68.9277 84.038V86.9019C68.9277 87.1653 69.1465 87.2734 69.4132 87.1383Z" fill="black"/>
<path d="M71.3478 86.1793C71.6145 86.051 71.8333 85.7268 71.8333 85.4633V82.5994C71.8333 82.336 71.6145 82.2279 71.3478 82.363C71.0811 82.4914 70.8623 82.8156 70.8623 83.079V85.9429C70.8623 86.2063 71.0811 86.3144 71.3478 86.1793Z" fill="black"/>
<path d="M73.2833 85.2272C73.55 85.0988 73.7688 84.7746 73.7688 84.5112V81.6473C73.7688 81.3839 73.55 81.2758 73.2833 81.4109C73.0167 81.5392 72.7979 81.8634 72.7979 82.1269V84.9908C72.7979 85.2542 73.0167 85.3623 73.2833 85.2272Z" fill="black"/>
<path d="M75.2111 84.274C75.4777 84.1457 75.6965 83.8215 75.6965 83.5581V80.6941C75.6965 80.4307 75.4777 80.3227 75.2111 80.4577C74.9444 80.5861 74.7256 80.9103 74.7256 81.1737V84.0376C74.7256 84.3011 74.9444 84.4091 75.2111 84.274Z" fill="black"/>
<path d="M51.3595 95.0768C51.7801 94.5446 51.8557 93.9084 51.5282 93.6559C51.2008 93.4034 50.5944 93.6301 50.1737 94.1623C49.7531 94.6945 49.6776 95.3307 50.005 95.5832C50.3324 95.8357 50.9389 95.609 51.3595 95.0768Z" fill="#22C498"/>
<path opacity="0.3" d="M78.4384 77.1064L47.1416 92.5811" stroke="#221F1F" stroke-width="0.84" stroke-miterlimit="10" stroke-linecap="round"/>
<path d="M37.117 95.4587L47.1413 100.308L78.438 84.8541V77.127L40.9599 58.9775L9.66309 74.4319V82.1591L37.117 95.4587Z" stroke="#211E1F" stroke-width="0.81" stroke-miterlimit="10"/>
<g opacity="0.5">
<path d="M40.9321 58.3824C53.767 58.3824 64.1718 55.1519 64.1718 51.1668C64.1718 47.1817 53.767 43.9512 40.9321 43.9512C28.0972 43.9512 17.6924 47.1817 17.6924 51.1668C17.6924 55.1519 28.0972 58.3824 40.9321 58.3824Z" fill="#0CAE74"/>
</g>
<path d="M40.959 70.5818V20.166" stroke="#009861" stroke-width="1.1" stroke-miterlimit="10"/>
<path fill-rule="evenodd" clip-rule="evenodd" d="M72.1311 38.8272H9.88908C5.18245 38.8272 1.34082 34.9225 1.34082 30.2166C1.34082 25.5107 5.28421 21.5425 10.118 21.6697C10.2834 15.2213 15.5752 10.0321 22.0627 10.0321C23.9963 10.0321 25.8662 10.4899 27.558 11.3675C30.7636 5.08451 37.213 1.07812 44.3492 1.07812C51.9435 1.07812 58.7871 5.65685 61.7129 12.6012C62.5143 12.4232 63.3411 12.3723 64.1807 12.4232C68.5693 12.7412 72.1311 16.6458 72.0929 21.0465C72.0929 21.428 72.0547 21.8096 72.0039 22.1784H72.0802C75.6547 22.1784 78.9748 24.3533 80.1451 27.7492C82.1804 33.6634 77.9063 38.9035 72.1184 38.9035" fill="white"/>
<path d="M72.1311 38.8272H9.88908C5.18245 38.8272 1.34082 34.9225 1.34082 30.2166C1.34082 25.5107 5.28421 21.5425 10.118 21.6697C10.2834 15.2213 15.5752 10.0321 22.0627 10.0321C23.9963 10.0321 25.8662 10.4899 27.558 11.3675C30.7636 5.08451 37.213 1.07812 44.3492 1.07812C51.9435 1.07812 58.7871 5.65685 61.7129 12.6012C62.5143 12.4232 63.3411 12.3723 64.1807 12.4232C68.5693 12.7412 72.1311 16.6458 72.0929 21.0465C72.0929 21.428 72.0547 21.8096 72.0039 22.1784H72.0802C75.6547 22.1784 78.9748 24.3533 80.1451 27.7492C82.1804 33.6634 77.9063 38.9035 72.1184 38.9035" stroke="#231F20" stroke-width="0.81" stroke-miterlimit="10"/>
<path d="M21.8545 28.7711C21.9692 24.1124 25.832 20.3753 30.5617 20.3753C31.964 20.3753 33.3409 20.7035 34.5648 21.3348C36.8977 16.7897 41.6019 13.9111 46.8033 13.9111C52.3362 13.9111 57.3336 17.219 59.4626 22.2186" stroke="#D0D2D3" stroke-width="0.47" stroke-linecap="round" stroke-linejoin="round"/>
<path d="M40.959 52.5546V42.3418" stroke="#009861" stroke-width="3" stroke-linecap="round" stroke-linejoin="round"/>
</svg>
