<svg width="94" height="99" viewBox="0 0 94 99" fill="none" xmlns="http://www.w3.org/2000/svg">
<path d="M54.9794 1.9418L53.4487 1.4906C51.2276 0.8358 48.846 1.0614 46.7748 2.12338L2.47114 24.9093C1.44891 25.432 0.806671 26.505 0.806671 27.6825V75.5103C0.806671 78.1735 2.26777 80.6056 4.58517 81.7996L36.8629 97.8779L93.1924 68.5881V68.269C93.187 66.8108 92.3842 65.4792 91.1158 64.8244L56.3441 46.6111C55.5039 46.1709 54.9794 45.285 54.9794 44.3221V1.9418Z" fill="white"/>
<path d="M57.1309 47.8545L4.95444 74.6957" stroke="#D0D2D3" stroke-width="0.41" stroke-linecap="round" stroke-linejoin="round"/>
<path d="M9.60026 27.9464L50.1308 7.4442C51.5544 6.7949 52.7051 7.4552 52.7051 8.91337V45.1142C52.7051 46.5779 51.5544 48.2891 50.1308 48.9384L9.60026 69.5288C8.17664 70.1781 7.02596 69.5178 7.02596 68.0596V31.7706C7.02596 30.307 8.17664 28.5957 9.60026 27.9464Z" fill="#DDDDDD"/>
<path d="M91.4053 65.886L37.1148 93.8167L6.92968 78.6959C5.60775 78.0026 4.77284 76.6049 4.77284 75.0807V74.6901V29.9272C4.77284 28.5571 5.52747 27.308 6.71561 26.6972L54.3214 2.0625" stroke="#D0D2D3" stroke-width="0.41" stroke-linecap="round" stroke-linejoin="round"/>
<path d="M54.9794 1.9418L53.4487 1.4906C51.2276 0.8358 48.846 1.0614 46.7748 2.12338L2.47114 24.9093C1.44891 25.432 0.806671 26.505 0.806671 27.6825V75.5103C0.806671 78.1735 2.26777 80.6056 4.58517 81.7996L36.8629 97.8779L93.1924 68.5881V68.269C93.187 66.8108 92.3842 65.4792 91.1158 64.8244L56.3441 46.6111C55.5039 46.1709 54.9794 45.285 54.9794 44.3221V1.9418Z" stroke="#211E1F" stroke-width="0.81" stroke-miterlimit="10"/>
<path d="M38.0459 59.2786L38.0125 59.2549C38.0236 59.2608 38.0348 59.2727 38.0459 59.2786Z" fill="#D0E3F2"/>
<path d="M9.47217 75.85L56.5963 51.65C57.5704 51.1492 58.7211 51.1492 59.7005 51.65L76.4629 60.1898C76.9981 60.4595 76.9981 61.2463 76.4629 61.5214L29.51 85.6279C28.3486 86.2277 26.9785 86.2277 25.8118 85.6334L9.47217 77.3081C8.88881 77.011 8.88345 76.1526 9.47217 75.85Z" fill="#E6E7E8"/>
<path d="M45.1424 79.3015L61.2518 71.0312L69.1191 75.0701L53.0098 83.3458L45.1424 79.3015Z" fill="#E6E7E8"/>
<path d="M12.5227 78.9341L62.6172 53.21" stroke="white" stroke-width="0.82" stroke-miterlimit="10" stroke-linecap="round"/>
<path d="M17.436 81.15L67.5303 55.4258" stroke="white" stroke-width="0.82" stroke-miterlimit="10" stroke-linecap="round"/>
<path d="M22.4969 83.9732L72.5967 58.249" stroke="white" stroke-width="0.82" stroke-miterlimit="10" stroke-linecap="round"/>
<path d="M58.7034 55.2168L68.6045 60.3011" stroke="white" stroke-width="0.82" stroke-miterlimit="10" stroke-linecap="round"/>
<path d="M49.4565 54.6953L71.2549 65.8874" stroke="white" stroke-width="0.82" stroke-miterlimit="10" stroke-linecap="round"/>
<path d="M45.1961 56.7354L67 67.9274" stroke="white" stroke-width="0.82" stroke-miterlimit="10" stroke-linecap="round"/>
<path d="M40.9366 58.7764L56.2539 66.6394" stroke="white" stroke-width="0.82" stroke-miterlimit="10" stroke-linecap="round"/>
<path d="M36.6758 60.8184L52.1377 68.7585" stroke="white" stroke-width="0.82" stroke-miterlimit="10" stroke-linecap="round"/>
<path d="M32.4215 62.8604L48.0225 70.872" stroke="white" stroke-width="0.82" stroke-miterlimit="10" stroke-linecap="round"/>
<path d="M28.1598 64.9014L43.9053 72.9845" stroke="white" stroke-width="0.82" stroke-miterlimit="10" stroke-linecap="round"/>
<path d="M23.901 66.9434L39.791 75.0981" stroke="white" stroke-width="0.82" stroke-miterlimit="10" stroke-linecap="round"/>
<path d="M19.6404 68.9785L41.4443 80.1761" stroke="white" stroke-width="0.82" stroke-miterlimit="10" stroke-linecap="round"/>
<path d="M15.3806 71.0205L37.1846 82.2181" stroke="white" stroke-width="0.82" stroke-miterlimit="10" stroke-linecap="round"/>
<path d="M17.4366 76.3027L27.4395 81.4421" stroke="white" stroke-width="0.82" stroke-miterlimit="10" stroke-linecap="round"/>
<path d="M10.3711 82.3877L12.9668 83.7248" stroke="#231F20" stroke-width="0.84" stroke-miterlimit="10" stroke-linecap="round"/>
<path d="M6.21191 80.1777L8.80762 81.5093" stroke="#231F20" stroke-width="0.84" stroke-miterlimit="10" stroke-linecap="round"/>
<path d="M17.9008 28.8397C18.04 29.1424 17.9062 29.5055 17.6118 29.6431C17.3175 29.7807 16.9642 29.6486 16.8304 29.346C16.6966 29.0433 16.8251 28.6802 17.1194 28.5426C17.4138 28.405 17.7617 28.5316 17.9008 28.8397Z" fill="#E6E7E8"/>
<path d="M15.3696 30.037C15.5087 30.3396 15.3749 30.7028 15.0806 30.8404C14.7862 30.9779 14.433 30.8459 14.2992 30.5432C14.1654 30.2406 14.2938 29.8774 14.5882 29.7399C14.8825 29.6023 15.2304 29.7289 15.3696 30.037Z" fill="#E6E7E8"/>
<path d="M12.8383 31.2411C12.9775 31.5437 12.8437 31.9069 12.5493 32.0445C12.255 32.182 11.9017 32.05 11.7679 31.7473C11.6341 31.4447 11.7626 31.0815 12.0569 30.944C12.3513 30.8064 12.6992 30.933 12.8383 31.2411Z" fill="#E6E7E8"/>
<path d="M13.1691 28.3439C13.244 28.6795 13.0835 29.1472 12.8105 29.3838C12.5376 29.626 12.2593 29.5489 12.1843 29.2133C12.1094 28.8776 12.27 28.4099 12.5429 28.1733C12.5429 28.1733 12.5483 28.1678 12.5536 28.1623C12.6339 28.0908 12.7249 28.0467 12.8052 28.0302C12.9818 28.0027 13.1209 28.1238 13.1691 28.3384V28.3439Z" fill="#231F20"/>
<path d="M11.376 29.4539C11.376 29.8391 11.1458 30.2682 10.8675 30.4168C10.5892 30.5654 10.3591 30.3673 10.3591 29.9821C10.3591 29.5969 10.5892 29.1677 10.8675 29.0192C11.1458 28.8706 11.376 29.0687 11.376 29.4539Z" fill="#231F20"/>
<path d="M9.57324 30.3845C9.57324 30.7697 9.34311 31.1989 9.06481 31.3475C8.7865 31.496 8.55637 31.298 8.55637 30.9128C8.55637 30.5276 8.7865 30.0984 9.06481 29.9498C9.34311 29.8013 9.57324 29.9994 9.57324 30.3845Z" fill="#231F20"/>
<path d="M7.03111 34.4498L52.6514 10.8994" stroke="white" stroke-width="1.25" stroke-miterlimit="10" stroke-linecap="round"/>
<path d="M45.7147 16.9047L41.2779 19.1937C40.7801 19.4524 40.3734 20.2172 40.3734 20.8995V49.1769C40.3734 49.8647 40.7801 50.2059 41.2779 49.9528L45.7147 47.6637C46.2124 47.4051 46.6191 46.6403 46.6191 45.958V17.6806C46.6191 16.9927 46.2124 16.6516 45.7147 16.9047Z" fill="white"/>
<path d="M38.9656 20.3871L9.97398 35.3484C9.47624 35.607 9.06949 36.3719 9.06949 37.0542V65.3315C9.06949 66.0194 9.47624 66.3605 9.97398 66.1074L38.9656 51.1461C39.4634 50.8875 39.8701 50.1226 39.8701 49.4403V21.163C39.8701 20.4752 39.4634 20.134 38.9656 20.3871Z" fill="white"/>
<path d="M36.6717 32.7336L29.5161 36.4258C29.393 36.4918 29.2913 36.6789 29.2913 36.8495V43.8267C29.2913 43.9972 29.393 44.0798 29.5161 44.0193L36.6717 40.3271C36.7948 40.261 36.8965 40.074 36.8965 39.9034V32.9262C36.8965 32.7556 36.7948 32.6731 36.6717 32.7336Z" fill="#3DE286"/>
<path d="M36.6717 42.2092L29.5161 45.9014C29.393 45.9674 29.2913 46.1545 29.2913 46.3251V53.3022C29.2913 53.4728 29.393 53.5554 29.5161 53.4948L36.6717 49.8027C36.7948 49.7366 36.8965 49.5495 36.8965 49.379V42.4018C36.8965 42.2312 36.7948 42.1487 36.6717 42.2092Z" fill="#22C498"/>
<path d="M28.0379 37.1858L20.8823 40.878C20.7592 40.944 20.6575 41.1311 20.6575 41.3016V48.2788C20.6575 48.4494 20.7592 48.5319 20.8823 48.4714L28.0379 44.7792C28.161 44.7132 28.2627 44.5261 28.2627 44.3555V37.3784C28.2627 37.2078 28.161 37.1252 28.0379 37.1858Z" fill="#D1D3D4"/>
<path d="M28.0379 46.6604L20.8823 50.352C20.7592 50.418 20.6575 50.6057 20.6575 50.7763V57.7534C20.6575 57.924 20.7592 58.0065 20.8823 57.946L28.0379 54.2538C28.161 54.1878 28.2627 54.0007 28.2627 53.8301V46.853C28.2627 46.6824 28.161 46.5999 28.0379 46.6604Z" fill="#D1D3D4"/>
<path d="M19.3026 41.6926L12.147 45.3848C12.0239 45.4508 11.9222 45.6379 11.9222 45.8085V52.7857C11.9222 52.9562 12.0239 53.0388 12.147 52.9782L19.3026 49.2861C19.4257 49.22 19.5273 49.0329 19.5273 48.8624V41.8852C19.5273 41.7146 19.4257 41.6321 19.3026 41.6926Z" fill="#22C498"/>
<path d="M19.3026 51.1672L12.147 54.8594C12.0239 54.9254 11.9222 55.1125 11.9222 55.2831V62.2603C11.9222 62.4308 12.0239 62.5134 12.147 62.4528L19.3026 58.7607C19.4257 58.6946 19.5273 58.5076 19.5273 58.337V51.3598C19.5273 51.1892 19.4257 51.1067 19.3026 51.1672Z" fill="#3DE286"/>
<path d="M50.0535 14.6586L45.6167 16.9477C45.119 17.2063 44.7123 17.9711 44.7123 18.6534V46.9309C44.7123 47.6187 45.119 47.9598 45.6167 47.7067L50.0535 45.4177C50.5513 45.1591 50.958 44.3942 50.958 43.7119V15.4345C50.958 14.7467 50.5513 14.4055 50.0535 14.6586Z" fill="#071631"/>
<path d="M49.8633 28.4089C49.8633 28.8711 49.5903 29.3938 49.2478 29.5644C48.9053 29.735 48.6323 29.5039 48.6323 29.0417C48.6323 28.5795 48.9053 28.0567 49.2478 27.8862C49.5903 27.7156 49.8633 27.9467 49.8633 28.4089Z" fill="white"/>
<path d="M49.8633 42.5827C49.8633 43.0449 49.5903 43.5677 49.2478 43.7383C48.9053 43.9088 48.6323 43.6777 48.6323 43.2155C48.6323 42.7533 48.9053 42.2306 49.2478 42.06C49.5903 41.8894 49.8633 42.1205 49.8633 42.5827Z" fill="#22C498"/>
<path d="M22.6475 55.1784C22.6475 55.6406 22.3745 56.1634 22.032 56.334C21.6895 56.5045 21.4165 56.2734 21.4165 55.8112C21.4165 55.349 21.6895 54.8263 22.032 54.6557C22.3745 54.4851 22.6475 54.7162 22.6475 55.1784Z" fill="#231F20"/>
<path d="M49.8633 25.0857C49.8633 25.5479 49.5903 26.0706 49.2478 26.2412C48.9053 26.4118 48.6323 26.1807 48.6323 25.7184C48.6323 25.2562 48.9053 24.7335 49.2478 24.5629C49.5903 24.3923 49.8633 24.6234 49.8633 25.0857Z" fill="white"/>
<path d="M49.8633 21.7614C49.8633 22.2236 49.5903 22.7464 49.2478 22.917C48.9053 23.0875 48.6323 22.8564 48.6323 22.3942C48.6323 21.932 48.9053 21.4093 49.2478 21.2387C49.5903 21.0681 49.8633 21.2992 49.8633 21.7614Z" fill="white"/>
<path d="M50.0234 16.9209L45.9934 19.0008V20.7671L50.0234 18.6872V16.9209Z" fill="#3DE286"/>
<path d="M44.0312 20.4355L41.6336 21.6736" stroke="#221F1F" stroke-width="0.5" stroke-miterlimit="10"/>
<path d="M44.0312 22.8359L41.6336 24.0741" stroke="#221F1F" stroke-width="0.5" stroke-miterlimit="10"/>
<path d="M36.7676 24.1885L34.3699 25.421" stroke="#221F1F" stroke-width="0.5" stroke-miterlimit="10"/>
<path d="M36.7676 26.582L28.2633 30.973" stroke="#221F1F" stroke-width="0.5" stroke-miterlimit="10"/>
<path d="M14.2393 35.8096L11.8469 37.0476" stroke="#221F1F" stroke-width="0.5" stroke-miterlimit="10"/>
<path d="M14.2393 38.21L11.8469 39.448" stroke="#221F1F" stroke-width="0.5" stroke-miterlimit="10"/>
<path d="M44.0312 25.2344L41.6336 26.4724" stroke="#221F1F" stroke-width="0.5" stroke-miterlimit="10"/>
<path d="M36.7676 28.9863L32.5128 31.1818" stroke="#221F1F" stroke-width="0.5" stroke-miterlimit="10"/>
<path d="M26.6992 49.1523L22.4497 51.3478" stroke="#221F1F" stroke-width="0.5" stroke-miterlimit="10"/>
<path d="M35.5684 35.2012L31.3135 37.3967" stroke="#221F1F" stroke-width="0.5" stroke-miterlimit="10"/>
<path d="M35.5684 37.5156L31.3135 39.7111" stroke="#221F1F" stroke-width="0.5" stroke-miterlimit="10"/>
<path d="M35.5684 44.5742L31.3135 46.7697" stroke="#221F1F" stroke-width="0.5" stroke-miterlimit="10"/>
<path d="M18.0195 53.6318L13.7647 55.8273" stroke="#221F1F" stroke-width="0.5" stroke-miterlimit="10"/>
<path d="M18.0195 44.0068L13.7647 46.2023" stroke="#221F1F" stroke-width="0.5" stroke-miterlimit="10"/>
<path d="M26.4307 39.667L22.1812 41.857" stroke="#221F1F" stroke-width="0.5" stroke-miterlimit="10"/>
<path d="M44.0312 27.6328L41.6336 28.8709" stroke="#221F1F" stroke-width="0.5" stroke-miterlimit="10"/>
<path d="M19.0291 72.7264C18.526 72.2092 18.526 71.3673 19.0291 70.8445C19.5322 70.3218 20.351 70.3273 20.8595 70.8445L20.0567 70.0192C19.5536 69.5019 19.5536 68.66 20.0567 68.1373C20.5598 67.6146 21.3786 67.6201 21.8871 68.1373L21.1271 67.356C20.624 66.8387 20.624 65.9968 21.1271 65.4741C21.6302 64.9514 22.449 64.9569 22.9575 65.4741L18.6973 61.0941C18.1942 60.5769 18.1942 59.735 18.6973 59.2123C19.2004 58.6895 20.0192 58.695 20.5277 59.2123L28.7162 67.6311L28.7322 67.6146C28.09 66.9543 27.1588 64.4506 28.1703 62.6238C29.6314 60.2632 30.0221 62.4037 30.0756 63.3171C30.1559 64.6817 31.253 65.8923 31.9595 66.9158C32.6713 67.9392 32.2538 69.8046 32.4947 70.9326C32.7355 72.0606 33.2654 72.9245 33.2654 72.9245L35.1064 74.8173L29.337 80.749L27.4959 78.8562C26.5272 77.8602 23.407 77.2164 22.3527 76.1324C21.2983 75.0485 19.0398 72.7264 19.0398 72.7264" fill="white"/>
<path d="M19.0291 72.7264C18.526 72.2092 18.526 71.3673 19.0291 70.8445C19.5322 70.3218 20.351 70.3273 20.8595 70.8445L20.0567 70.0192C19.5536 69.5019 19.5536 68.66 20.0567 68.1373C20.5598 67.6146 21.3786 67.6201 21.8871 68.1373L21.1271 67.356C20.624 66.8387 20.624 65.9968 21.1271 65.4741C21.6302 64.9514 22.449 64.9569 22.9575 65.4741L18.6973 61.0941C18.1942 60.5769 18.1942 59.735 18.6973 59.2123C19.2004 58.6895 20.0192 58.695 20.5277 59.2123L28.7162 67.6311L28.7322 67.6146C28.09 66.9543 27.1588 64.4506 28.1703 62.6238C29.6314 60.2632 30.0221 62.4037 30.0756 63.3171C30.1559 64.6817 31.253 65.8923 31.9595 66.9158C32.6713 67.9392 32.2538 69.8046 32.4947 70.9326C32.7355 72.0606 33.2654 72.9245 33.2654 72.9245L35.1064 74.8173L29.337 80.749L27.4959 78.8562C26.5272 77.8602 23.407 77.2164 22.3527 76.1324C21.2983 75.0484 19.0398 72.7264 19.0398 72.7264" stroke="black" stroke-width="1.21" stroke-linecap="round" stroke-linejoin="round"/>
<path d="M27.4855 78.8575L33.2549 72.9258" stroke="black" stroke-width="0.63" stroke-linecap="round" stroke-linejoin="round"/>
</svg>
