<svg width="40" height="36" viewBox="0 0 40 36" fill="none" xmlns="http://www.w3.org/2000/svg">
<path d="M20.2348 16.5723H18.6816V18.1253H20.2348V16.5723Z" fill="black"/>
<path d="M20.2348 11.9805H18.6816V13.5335H20.2348V11.9805Z" fill="black"/>
<path d="M20.2348 21.6074H18.6816V23.1605H20.2348V21.6074Z" fill="black"/>
<path d="M20.2348 26.2139H18.6816V27.7669H20.2348V26.2139Z" fill="black"/>
<path d="M33.5979 12.457H22.6328V13.0588H33.5979V12.457Z" fill="black"/>
<path d="M33.5979 17.2695H22.6328V17.8713H33.5979V17.2695Z" fill="black"/>
<path d="M33.5979 22.084H22.6328V22.6857H33.5979V22.084Z" fill="black"/>
<path d="M33.5979 26.8975H22.6328V27.4992H33.5979V26.8975Z" fill="black"/>
<path d="M36.498 2.03236H28.9881C28.8698 1.38915 28.3069 0.899414 27.6296 0.899414H25.3112C24.6342 0.899414 24.0717 1.38915 23.9534 2.03236H16.8956C15.0403 2.03236 13.5312 3.5413 13.5312 5.39586V31.94C13.5312 33.7946 15.0403 35.3036 16.8956 35.3036H36.498C38.3533 35.3036 39.8624 33.7946 39.8624 31.94V5.39586C39.8624 3.54139 38.3533 2.03236 36.498 2.03236ZM16.8956 3.63694H36.498C37.468 3.63694 38.2577 4.42593 38.2577 5.39586V7.5348H15.1359V5.39586C15.1359 4.42593 15.9257 3.63694 16.8956 3.63694ZM36.498 33.6991H16.8956C15.9257 33.6991 15.1359 32.9101 15.1359 31.94V8.13654H38.2577V31.94C38.2577 32.9101 37.468 33.6991 36.498 33.6991Z" fill="black"/>
<path d="M6.64428 2.06641H3.31123C2.01693 2.06641 0.963867 3.11947 0.963867 4.41385V30.0045L4.97775 35.8909L8.99085 30.0045V4.41385C8.99085 3.11947 7.93779 2.06641 6.64428 2.06641ZM3.31123 3.67107H6.64428C7.05325 3.67107 7.38619 4.004 7.38619 4.41385V7.53445H2.56853V4.41385C2.56853 4.004 2.90147 3.67107 3.31123 3.67107ZM2.56853 29.3698V10.0072H7.38619V29.3698H2.56853ZM2.56853 9.40547V8.13619H7.38619V9.40547H2.56853ZM2.88388 29.9716H7.07128L4.97775 33.0421L2.88388 29.9716Z" fill="black"/>
</svg>
