<svg width="46" height="54" viewBox="0 0 46 54" fill="none" xmlns="http://www.w3.org/2000/svg">
<path fill-rule="evenodd" clip-rule="evenodd" d="M21.7438 53.292C21.5284 53.1954 16.431 50.8938 11.288 47.1702C8.19394 44.9321 5.7115 42.6292 3.9056 40.3262C1.47977 37.2308 0.250977 34.0953 0.250977 31.0067V8.9672C0.250977 7.86957 0.956496 6.92105 2.0058 6.60764L22.0434 0.596226C22.274 0.527192 22.5114 0.492676 22.7503 0.492676C22.9878 0.492676 23.2266 0.527192 23.4572 0.596226L43.4934 6.60764C44.5441 6.92105 45.2496 7.86957 45.2496 8.9672V31.0067C45.2496 34.0953 44.0194 37.2308 41.5936 40.3262C39.7891 42.6292 37.3052 44.9321 34.2112 47.1702C29.0682 50.8938 23.9708 53.1954 23.7554 53.292C23.4365 53.4343 23.0968 53.5074 22.7503 53.5074C22.4024 53.5074 22.0641 53.4343 21.7438 53.292Z" fill="white"/>
<path fill-rule="evenodd" clip-rule="evenodd" d="M23.1124 51.4604C23.1124 51.4604 28.4901 48.9255 33.0794 45.6036C36.0258 43.4719 38.3784 41.2946 40.0725 39.1324C42.2263 36.3877 43.3171 33.6526 43.3171 31.0058V8.9663C43.3171 8.73021 43.1652 8.52725 42.9388 8.45822L23.1124 2.51031V51.4604ZM22.3876 2.51031L2.56123 8.45822C2.3348 8.52725 2.18293 8.73021 2.18293 8.9663V31.0058C2.18293 33.6526 3.27504 36.3877 5.42749 39.1324C7.12157 41.2946 9.47422 43.4719 12.4206 45.6036C17.0099 48.9255 22.3876 51.4604 22.3876 51.4604V2.51031ZM21.7442 53.2925C21.5288 53.1945 16.4314 50.8929 11.2884 47.1693C8.19434 44.9312 5.71191 42.6283 3.906 40.3253C1.48017 37.2313 0.25 34.0958 0.25 31.0058V8.9663C0.25 7.87005 0.9569 6.92154 2.00621 6.60675L22.0438 0.595333C22.2744 0.5263 22.5118 0.493164 22.7507 0.493164C22.9882 0.493164 23.2256 0.5263 23.4576 0.595333L43.4938 6.60675C44.5431 6.92154 45.25 7.87005 45.25 8.9663V31.0058C45.25 34.0958 44.0198 37.2313 41.594 40.3253C39.7895 42.6283 37.3057 44.9312 34.2116 47.1693C29.0686 50.8929 23.9712 53.1945 23.7558 53.2925C23.4369 53.4347 23.0972 53.5065 22.7507 53.5065C22.4028 53.5065 22.0645 53.4347 21.7442 53.2925Z" fill="black"/>
</svg>
