<svg width="67" height="46" viewBox="0 0 67 46" fill="none" xmlns="http://www.w3.org/2000/svg">
<path fill-rule="evenodd" clip-rule="evenodd" d="M65.8619 36.1639L65.8495 36.1515C65.4389 35.7471 64.8718 35.5147 64.2939 35.5147H60.0529V4.88614C60.0529 3.65276 59.7957 2.70603 59.2689 1.99327C58.8335 1.40601 57.989 0.704102 56.4365 0.704102H56.4334H9.96763H9.96453C8.40731 0.704102 7.57369 1.41376 7.14604 2.00721C6.64246 2.70913 6.39919 3.65121 6.39919 4.88614V35.5147H2.21095C1.633 35.5147 1.06589 35.7471 0.645978 36.1608C0.235367 36.573 0.00139543 37.1432 0.00293726 37.7211V39.9632C0.00139543 41.7962 0.576252 43.1861 1.70892 44.0926C2.71918 44.9014 4.12456 45.295 6.00872 45.295H60.6479C64.5309 45.295 66.5003 43.5007 66.5003 39.9632V37.7211C66.5003 37.1447 66.2679 36.5776 65.8619 36.1639Z" fill="white"/>
<path fill-rule="evenodd" clip-rule="evenodd" d="M64.3235 37.7216V39.9622C64.3235 41.9114 63.7084 43.12 60.6451 43.12H6.00428C4.65469 43.12 3.66457 42.8767 3.06338 42.3964C2.46528 41.916 2.17398 41.1196 2.17398 39.9622L2.20652 37.6891H8.08058L29.8631 37.6906C30.1126 38.4344 30.8068 38.9767 31.6342 38.9767H34.775C35.6024 38.9767 36.2981 38.4344 36.546 37.6906L58.3596 37.6891H64.291C64.3003 37.6891 64.3142 37.6953 64.322 37.703L64.3235 37.7216ZM54.0458 36.8756H12.3633V7.99023C12.3633 7.40143 12.8421 6.92264 13.4309 6.92264H52.9782C53.567 6.92264 54.0458 7.40143 54.0458 7.99023V36.8756ZM8.57022 4.88663C8.57022 3.9461 8.75461 3.4921 8.90955 3.27517C8.98858 3.16671 9.19466 2.88006 9.96165 2.88006H9.9632H56.4305H56.432C57.1339 2.88006 57.3881 3.11248 57.5198 3.28912C57.7522 3.60366 57.8746 4.15528 57.8746 4.88663V36.8756H54.8609V7.99023C54.8609 6.95208 54.0164 6.10762 52.9782 6.10762H13.4309C12.3928 6.10762 11.5483 6.95208 11.5483 7.99023V36.8756H8.57022V4.88663ZM65.859 36.1644L65.8466 36.152C65.4345 35.7476 64.8689 35.5152 64.291 35.5152H60.0485V4.88663C60.0485 3.6517 59.7928 2.70651 59.266 1.99375C58.8306 1.4065 57.9846 0.70459 56.4336 0.70459H56.4289H9.96475H9.96165C8.40442 0.70459 7.56926 1.4127 7.14315 2.0077C6.63957 2.70961 6.39475 3.6517 6.39475 4.88663V35.5152H2.20652C1.63011 35.5152 1.063 35.7476 0.643093 36.1613C0.232481 36.5734 -0.00303913 37.1437 2.96198e-05 37.7216V39.9622C-0.00148966 41.7967 0.573366 43.1866 1.70603 44.0931C2.71629 44.9019 4.12167 45.2955 6.00428 45.2955H60.6451C64.528 45.2955 66.4974 43.5012 66.4974 39.9622V37.7216C66.4974 37.1452 66.265 36.5765 65.859 36.1644Z" fill="black"/>
<path fill-rule="evenodd" clip-rule="evenodd" d="M33.3119 27.1438C30.419 27.1438 28.0669 24.7917 28.0669 21.8988C28.0669 19.0059 30.419 16.6538 33.3119 16.6538C36.2048 16.6538 38.5569 19.0059 38.5569 21.8988C38.5569 24.7917 36.2048 27.1438 33.3119 27.1438ZM25.8403 28.5089L26.0681 28.7506C27.3309 30.0832 28.9315 31.0392 30.6979 31.518L31.0187 31.6047L30.997 33.3386C30.9892 33.946 31.4773 34.448 32.0847 34.4558L34.2091 34.4837C34.5097 34.5069 34.7824 34.3768 34.9931 34.1707C35.2038 33.9646 35.3216 33.6903 35.3262 33.3959L35.3495 31.6621L35.6718 31.5846C37.463 31.1492 39.0915 30.2366 40.3806 28.9427L40.6146 28.7072L42.1021 29.5827C42.6243 29.891 43.3014 29.7159 43.6113 29.1922L44.6897 27.3607C44.9981 26.837 44.823 26.1599 44.2993 25.8515L42.8087 24.973L42.9001 24.6538C43.1635 23.7412 43.2967 22.8115 43.2967 21.8926C43.2967 21.0265 43.1743 20.1402 42.9326 19.2585L42.8458 18.9378L44.3504 18.0778C44.606 17.9306 44.7889 17.6951 44.8664 17.41C44.9438 17.1264 44.9066 16.8289 44.7594 16.5748L43.7058 14.7278C43.4037 14.201 42.7296 14.0166 42.2013 14.3172L40.6998 15.1756L40.4674 14.9386C39.1922 13.6246 37.5776 12.6903 35.7988 12.2332L35.4765 12.1511V10.4156C35.4765 9.80825 34.9822 9.31396 34.3748 9.31396H32.249C31.6416 9.31396 31.1473 9.80825 31.1473 10.4156V12.1511L30.825 12.2332C29.1345 12.667 27.5835 13.5378 26.3408 14.7511L26.1037 14.9851L24.624 14.0879C24.1065 13.7718 23.4262 13.9376 23.1101 14.4567L22.0085 16.2742C21.6924 16.7948 21.8582 17.4735 22.3772 17.7881L23.8523 18.6837L23.7563 19.0013C23.4712 19.9434 23.3271 20.9165 23.3271 21.8926C23.3271 22.7092 23.4386 23.5521 23.6587 24.3997L23.7423 24.7204L22.2254 25.5618C21.9666 25.7043 21.7807 25.9383 21.7001 26.2219C21.618 26.5054 21.6521 26.8029 21.7946 27.0601L22.825 28.9195C22.9676 29.1767 23.2031 29.3627 23.4851 29.4448C23.7687 29.5254 24.0662 29.4913 24.3234 29.3487L25.8403 28.5089Z" fill="white"/>
<path fill-rule="evenodd" clip-rule="evenodd" d="M25.8388 28.5084L26.0681 28.7501C27.3294 30.0827 28.93 31.0403 30.6964 31.519L31.0187 31.6058L30.9955 33.3397C30.9877 33.9471 31.4758 34.4476 32.0832 34.4553L34.2091 34.4832C34.5081 34.5064 34.7809 34.3763 34.9916 34.1702C35.2023 33.9657 35.3216 33.6899 35.3247 33.3955L35.348 31.6632L35.6718 31.5841C37.4615 31.1487 39.0899 30.2361 40.3791 28.9423L40.6146 28.7067L42.1006 29.5822C42.6243 29.8921 43.2999 29.7155 43.6098 29.1917L44.6882 27.3603C44.9966 26.8365 44.8215 26.161 44.2977 25.8511L42.8071 24.9741L42.9001 24.6549C43.162 23.7407 43.2952 22.811 43.2952 21.8921C43.2952 21.026 43.1728 20.1397 42.9327 19.258L42.8443 18.9373L44.3489 18.0773C44.6045 17.9317 44.7874 17.6946 44.8664 17.4095C44.9439 17.126 44.9051 16.83 44.7595 16.5743L43.7043 14.7274C43.4037 14.2005 42.7281 14.0162 42.2013 14.3183L40.6983 15.1767L40.4674 14.9381C39.1907 13.6257 37.5761 12.6898 35.7989 12.2327L35.4766 12.1506V10.4167C35.4766 9.80777 34.9823 9.31349 34.3749 9.31349H32.249C31.6401 9.31349 31.1458 9.80777 31.1458 10.4167V12.1506L30.8235 12.2327C29.133 12.6666 27.582 13.5389 26.3393 14.7522L26.1022 14.9846L24.624 14.0874C24.105 13.7729 23.4263 13.9387 23.1102 14.4578L22.007 16.2737C21.6909 16.7944 21.8582 17.473 22.3773 17.7876L23.8508 18.6832L23.7548 19.0024C23.4712 19.9429 23.3271 20.916 23.3271 21.8921C23.3271 22.7087 23.4387 23.5516 23.6572 24.3992L23.7408 24.7215L22.2239 25.5613C21.9667 25.7039 21.7792 25.9394 21.6986 26.2214C21.618 26.5049 21.6506 26.8024 21.7947 27.0597L22.8251 28.919C22.9676 29.1762 23.2016 29.3637 23.4852 29.4443C23.7672 29.5249 24.0647 29.4923 24.3219 29.3482L25.8388 28.5084ZM34.2246 35.3416H34.1982L32.0724 35.3137C30.9908 35.2998 30.1231 34.4088 30.1371 33.3273L30.151 32.2535C28.4652 31.7406 26.9312 30.8233 25.6777 29.5791L24.7387 30.0997C24.2816 30.3523 23.7532 30.4143 23.2481 30.2686C22.7445 30.1245 22.3277 29.7929 22.0751 29.3343L21.0447 27.4765C20.7891 27.0178 20.7302 26.4879 20.8727 25.9859C21.0184 25.4823 21.35 25.0655 21.8071 24.8114L22.7476 24.2907C22.5617 23.4819 22.4687 22.6762 22.4687 21.8921C22.4687 20.9423 22.5942 19.9956 22.8421 19.0752L21.9326 18.522C21.0075 17.9611 20.7116 16.7525 21.2725 15.829L22.3757 14.0115C22.6484 13.5637 23.0777 13.2492 23.5859 13.1252C24.0957 12.9997 24.6209 13.0818 25.0687 13.353L25.9829 13.9077C27.2086 12.7843 28.6852 11.9553 30.2874 11.4905V10.4167C30.2874 9.33518 31.1675 8.45508 32.249 8.45508H34.3749C35.4549 8.45508 36.335 9.33518 36.335 10.4167V11.4905C38.0317 11.9817 39.5796 12.8788 40.8455 14.1045L41.7752 13.573C42.7126 13.0384 43.9135 13.3638 44.4496 14.3013L45.5048 16.1482C45.7636 16.6022 45.8317 17.1306 45.6938 17.6357C45.5559 18.1409 45.229 18.5623 44.775 18.8226L43.8437 19.3541C44.0498 20.2032 44.1536 21.0554 44.1536 21.8921C44.1536 22.7846 44.039 23.6833 43.8112 24.5696L44.7347 25.112C45.6644 25.6605 45.9758 26.8644 45.4273 27.7972L44.3489 29.6287C43.8004 30.5584 42.5964 30.8698 41.6652 30.3213L40.7479 29.7821C39.4665 30.9876 37.9062 31.863 36.1971 32.3341L36.1831 33.4063C36.1769 33.93 35.9662 34.4197 35.5912 34.7853C35.2225 35.1448 34.7375 35.3416 34.2246 35.3416Z" fill="black"/>
<path fill-rule="evenodd" clip-rule="evenodd" d="M33.3114 17.5479C30.9128 17.5479 28.9605 19.5002 28.9605 21.8988C28.9605 24.2989 30.9128 26.2497 33.3114 26.2497C35.7115 26.2497 37.6623 24.2989 37.6623 21.8988C37.6623 19.5002 35.7115 17.5479 33.3114 17.5479ZM33.3114 27.1438C30.4185 27.1438 28.0664 24.7917 28.0664 21.8988C28.0664 19.0075 30.4185 16.6538 33.3114 16.6538C36.2043 16.6538 38.5564 19.0075 38.5564 21.8988C38.5564 24.7917 36.2043 27.1438 33.3114 27.1438Z" fill="black"/>
</svg>
