<svg width="53" height="58" viewBox="0 0 53 58" fill="none" xmlns="http://www.w3.org/2000/svg">
<path fill-rule="evenodd" clip-rule="evenodd" d="M26.7504 53.5992C14.5388 53.5992 4.60471 43.6636 4.60471 31.4535C4.60471 19.2419 14.5388 9.30634 26.7504 9.30634C38.962 9.30634 48.8961 19.2419 48.8961 31.4535C48.8961 43.6636 38.962 53.5992 26.7504 53.5992ZM26.7504 7.75684C13.6855 7.75684 3.05664 18.3872 3.05664 31.4535C3.05664 44.5183 13.6855 55.1472 26.7504 55.1472C39.8153 55.1472 50.4442 44.5183 50.4442 31.4535C50.4442 18.3872 39.8153 7.75684 26.7504 7.75684Z" fill="white" fill-opacity="0.5"/>
<path fill-rule="evenodd" clip-rule="evenodd" d="M21.0388 44.1441H32.4042V43.2793H21.0388V44.1441ZM34.6153 18.2926L36.5021 19.6187L28.8454 30.5157C28.9751 30.8025 29.053 31.1182 29.053 31.4526C29.053 32.7095 28.0339 33.7271 26.7784 33.7271C25.5215 33.7271 24.5025 32.7095 24.5025 31.4526C24.5025 30.1971 25.5215 29.1781 26.7784 29.1781C26.839 29.1781 26.8952 29.191 26.9557 29.1954L34.6153 18.2926ZM21.0388 41.2873H32.4042V40.4224H21.0388V41.2873ZM41.7632 46.5196L40.8825 45.6418C41.0786 45.4457 41.2717 45.2454 41.4605 45.0421L42.3571 45.8738C43.0201 45.156 43.6428 44.4007 44.2035 43.5978L43.1873 42.893C43.3445 42.6638 43.4972 42.4332 43.6472 42.1997L44.685 42.8613C45.2096 42.0411 45.6781 41.1821 46.0874 40.2884L44.9617 39.7738C45.0756 39.523 45.1851 39.2693 45.2889 39.0142L46.4478 39.4826C46.8154 38.5832 47.1094 37.6492 47.3516 36.6935L46.1465 36.3894C46.2129 36.1227 46.2763 35.8532 46.331 35.5822L47.5721 35.8402C47.771 34.8932 47.8892 33.9188 47.9569 32.9315L46.7072 32.8536C46.7245 32.5783 46.7375 32.3001 46.7476 31.9946L47.4683 31.9571L48.0016 32.0349C48.0074 31.8403 48.0319 31.6501 48.0319 31.4526C48.0319 30.6353 47.9742 29.8325 47.8849 29.0382L46.6208 29.1838C46.5891 28.9085 46.5516 28.6347 46.5083 28.3622L47.7523 28.1676C47.5995 27.1918 47.3977 26.2304 47.118 25.3021L45.8943 25.6755C45.8136 25.4102 45.7271 25.1479 45.6363 24.8856L46.8312 24.4719C46.5069 23.5422 46.1249 22.6413 45.681 21.775L44.5466 22.3545C44.4226 22.108 44.29 21.8673 44.156 21.6266L45.2658 20.9981C44.7815 20.1434 44.2338 19.3318 43.6399 18.5564L42.6324 19.329C42.4638 19.1099 42.2922 18.8951 42.1149 18.6818L43.1052 17.8558C42.4782 17.1034 41.7863 16.4087 41.0627 15.75L40.2065 16.6898C40.0018 16.5038 39.7943 16.3208 39.581 16.1435L40.4098 15.1547C39.6617 14.5262 38.8603 13.9612 38.03 13.4394L37.3497 14.5233C37.1147 14.3777 36.8769 14.235 36.6362 14.0967L37.2776 12.981C36.4286 12.4967 35.5465 12.0686 34.6312 11.7011L34.1526 12.9018C33.8961 12.7994 33.6366 12.7014 33.3743 12.6091L33.7995 11.3969C32.8813 11.0726 31.9444 10.7915 30.9743 10.5955L30.712 11.8812C30.4439 11.825 30.1729 11.7775 29.9005 11.7357L30.1009 10.4615C29.1423 10.3087 28.1694 10.2121 27.1734 10.1934L27.1575 11.4892L27.0004 11.4877C26.7741 11.4892 26.5492 11.4849 26.3229 11.4906L26.2956 10.1948C25.3024 10.215 24.3309 10.3116 23.3753 10.4658L23.5728 11.7371C23.3003 11.7803 23.0308 11.8279 22.7627 11.8827L22.5004 10.5998C21.5288 10.7973 20.5919 11.0813 19.6738 11.4056L20.1019 12.6149C19.8438 12.7072 19.5844 12.8037 19.3293 12.9075L18.8478 11.7083C17.9354 12.0758 17.0562 12.5039 16.2101 12.9897L16.8472 14.1039C16.6079 14.2423 16.3715 14.3835 16.138 14.5305L15.4577 13.4466C14.6274 13.9684 13.8289 14.5349 13.0822 15.1633L13.9053 16.1564C13.6934 16.3308 13.4873 16.5125 13.2855 16.697L12.4264 15.7586C11.7028 16.4188 11.0124 17.1135 10.3868 17.8659L11.3756 18.6947C11.1983 18.9037 11.0268 19.12 10.8567 19.3405L9.85205 18.5679C9.25819 19.3434 8.71046 20.1563 8.22615 21.0111L9.33603 21.6381C9.1991 21.8802 9.06793 22.1224 8.94109 22.3703L7.81247 21.7894C7.36852 22.6572 6.9851 23.558 6.66223 24.4892L7.85427 24.9101C7.7649 25.1681 7.67986 25.4304 7.59914 25.6942L6.37683 25.3252C6.0972 26.2535 5.89685 27.2134 5.7455 28.1907L6.98655 28.381C6.94475 28.6519 6.90727 28.9258 6.877 29.2026L5.61145 29.0613C5.52352 29.8469 5.46875 30.644 5.46875 31.4526C5.46875 31.6356 5.49037 31.8115 5.49614 31.9917L6.75304 31.96C6.7588 32.2353 6.77034 32.512 6.78763 32.7873L5.53938 32.8695C5.60568 33.8554 5.71523 34.8284 5.91126 35.7739L7.15519 35.5217C7.20996 35.7927 7.27194 36.0622 7.33681 36.3303L6.13035 36.6272C6.37107 37.5829 6.66367 38.5169 7.02835 39.4178L8.18867 38.9551C8.29101 39.2117 8.39912 39.4625 8.51011 39.7104L7.38293 40.225C7.78797 41.1186 8.25498 41.9763 8.77677 42.7993L9.81746 42.1406C9.96736 42.3755 10.1187 42.6062 10.2744 42.8325L9.25243 43.5373C9.80881 44.3402 10.4301 45.094 11.0888 45.8133L11.9925 44.9917C12.1785 45.1949 12.3687 45.3953 12.5619 45.5884L11.6812 46.4662C12.3716 47.1581 13.1212 47.7851 13.8995 48.3775L14.6389 47.4089C14.8566 47.5775 15.08 47.739 15.3063 47.8961L14.6044 48.9051C15.4043 49.4629 16.2447 49.9602 17.1196 50.407L17.6731 49.3188C17.9196 49.4442 18.1689 49.5638 18.4226 49.6806L17.9095 50.7875C18.7945 51.194 19.7055 51.5501 20.6496 51.834L21.0027 50.6521C21.2651 50.7313 21.5332 50.8048 21.8027 50.8726L21.4986 52.0531C22.4384 52.2924 23.394 52.4841 24.3785 52.5951L24.5097 51.3656C24.785 51.3958 25.0617 51.4203 25.3399 51.4419L25.252 52.6585C25.7493 52.6945 26.2437 52.7349 26.7496 52.7349C27.2325 52.7349 27.7053 52.6945 28.1809 52.6628L28.0944 51.4477C28.3741 51.4275 28.6494 51.4045 28.9247 51.3756L29.0558 52.6052C30.0389 52.4985 30.9945 52.3068 31.9343 52.0704L31.6374 50.8899C31.9055 50.8236 32.1736 50.7501 32.4374 50.6722L32.7847 51.8499C33.7289 51.5702 34.6413 51.2214 35.5263 50.8178L35.0204 49.7065C35.2712 49.5926 35.5191 49.4744 35.7656 49.349L36.3162 50.4373C37.1911 49.9948 38.0358 49.5047 38.8358 48.9498L38.1338 47.9365C38.3615 47.7793 38.5835 47.6194 38.8026 47.4521L39.5406 48.4222C40.3204 47.8327 41.0728 47.2085 41.7632 46.5196Z" fill="white"/>
<path fill-rule="evenodd" clip-rule="evenodd" d="M26.75 55.1476C13.6851 55.1476 3.05624 44.5187 3.05624 31.4539C3.05624 18.3876 13.6851 7.75723 26.75 7.75723C39.8149 7.75723 50.4438 18.3876 50.4438 31.4539C50.4438 44.5187 39.8149 55.1476 26.75 55.1476ZM43.0148 11.1993L44.1477 9.63682L45.6626 10.7222L47.006 8.84693L42.1312 5.3573L40.7878 7.23256L42.2725 8.29487L41.1611 9.82852C37.3342 7.2686 32.7895 5.7263 27.9031 5.51009V2.85214H30.5971V0.545898H22.9029V2.85214H25.5969V5.51009C20.7105 5.7263 16.1658 7.2686 12.3389 9.82852L11.2275 8.29487L12.7122 7.23256L11.3688 5.3573L6.49399 8.84693L7.83737 10.7222L9.35228 9.63682L10.4852 11.1993C4.55818 15.9689 0.75 23.2696 0.75 31.4539C0.75 45.7901 12.4138 57.4539 26.75 57.4539C41.0862 57.4539 52.75 45.7901 52.75 31.4539C52.75 23.2696 48.9418 15.9689 43.0148 11.1993Z" fill="black" fill-opacity="0.7"/>
<path fill-rule="evenodd" clip-rule="evenodd" d="M39.5392 48.422L38.8012 47.4519C38.5821 47.6191 38.3602 47.7791 38.1324 47.9362L38.8344 48.9495C38.0344 49.5045 37.1898 49.9945 36.3148 50.437L35.7642 49.3488C35.5177 49.4742 35.2698 49.5924 35.019 49.7062L35.5249 50.8176C34.6399 51.2212 33.7275 51.57 32.7834 51.8496L32.436 50.672C32.1722 50.7498 31.9041 50.8233 31.636 50.8896L31.933 52.0701C30.9932 52.3065 30.0375 52.4982 29.0545 52.6049L28.9233 51.3754C28.648 51.4042 28.3713 51.4273 28.0931 51.4475L28.1795 52.6626C27.7039 52.6943 27.2311 52.7346 26.7482 52.7346C26.2423 52.7346 25.7479 52.6943 25.2506 52.6582L25.3385 51.4417C25.0604 51.4201 24.7822 51.3956 24.5083 51.3653L24.3771 52.5948C23.3927 52.4838 22.437 52.2921 21.4972 52.0528L21.8013 50.8723C21.5318 50.8046 21.2637 50.7311 21.0014 50.6518L20.6482 51.8338C19.7041 51.5498 18.7931 51.1938 17.9081 50.7873L18.4213 49.6803C18.1676 49.5635 17.9182 49.4439 17.6717 49.3185L17.1182 50.4068C16.2433 49.9599 15.403 49.4627 14.603 48.9048L15.3049 47.8958C15.0786 47.7387 14.8552 47.5773 14.6376 47.4086L13.8981 48.3773C13.1198 47.7849 12.3703 47.1579 11.6798 46.466L12.5605 45.5882C12.3674 45.395 12.1771 45.1947 11.9912 44.9914L11.0874 45.813C10.4272 45.0938 9.80744 44.3399 9.25106 43.537L10.273 42.8322C10.1173 42.6059 9.966 42.3753 9.81609 42.1403L8.7754 42.7991C8.25361 41.976 7.7866 41.1184 7.38012 40.2247L8.50874 39.7101C8.39775 39.4622 8.28964 39.2114 8.18731 38.9548L7.02698 39.4175C6.6623 38.5166 6.3697 37.5826 6.12898 36.627L7.33544 36.33C7.27057 36.0619 7.20859 35.7924 7.15382 35.5214L5.90989 35.7737C5.71386 34.8281 5.60431 33.8552 5.53801 32.8692L6.78626 32.7871C6.76897 32.5118 6.75744 32.235 6.75023 31.9597L5.49477 31.9914C5.489 31.8112 5.46738 31.6354 5.46738 31.4523C5.46738 30.6437 5.52215 29.8466 5.61008 29.0611L6.87563 29.2023C6.9059 28.9256 6.94338 28.6517 6.98518 28.3807L5.74269 28.1904C5.89403 27.2132 6.09583 26.2532 6.37546 25.3249L7.59777 25.6939C7.67849 25.4302 7.76353 25.1678 7.8529 24.9098L6.66086 24.4889C6.98373 23.5578 7.36715 22.6569 7.8111 21.7892L8.93972 22.3701C9.06656 22.1221 9.19773 21.88 9.33466 21.6378L8.22478 21.0108C8.70909 20.1561 9.25683 19.3431 9.85068 18.5676L10.8553 19.3402C11.0254 19.1197 11.197 18.9035 11.3742 18.6945L10.3854 17.8657C11.011 17.1133 11.7014 16.4185 12.425 15.7584L13.2841 16.6967C13.4859 16.5122 13.692 16.3306 13.9039 16.1562L13.0809 15.1631C13.8275 14.5346 14.626 13.9681 15.4563 13.4463L16.1366 14.5303C16.3701 14.3833 16.6065 14.242 16.8458 14.1036L16.2087 12.9894C17.0548 12.5037 17.9341 12.0756 18.8465 11.708L19.3279 12.9073C19.583 12.8035 19.841 12.7069 20.1005 12.6147L19.6724 11.4053C20.5906 11.081 21.5275 10.7971 22.499 10.5996L22.7613 11.8824C23.0294 11.8277 23.299 11.7801 23.5714 11.7368L23.3739 10.4655C24.3296 10.3113 25.3011 10.2147 26.2942 10.1945L26.3216 11.4904C26.5479 11.4846 26.7727 11.4889 26.999 11.4875L27.1547 11.4889L27.172 10.1931C28.168 10.2118 29.141 10.3084 30.0995 10.4612L29.8991 11.7354C30.1716 11.7772 30.4425 11.8248 30.7106 11.881L30.973 10.5953C31.943 10.7913 32.88 11.0724 33.7981 11.3967L33.3729 12.6089C33.6353 12.7011 33.8933 12.7992 34.1498 12.9015L34.6298 11.7008C35.5451 12.0684 36.4272 12.4965 37.2748 12.9808L36.6348 14.0964C36.8755 14.2348 37.1134 14.3775 37.3483 14.5231L38.0286 13.4391C38.8589 13.9609 39.6589 14.526 40.4084 15.1544L39.5796 16.1432C39.7929 16.3205 40.0005 16.5036 40.2052 16.6895L41.0614 15.7497C41.7849 16.4084 42.4768 17.1032 43.1038 17.8556L42.1136 18.6815C42.2909 18.8948 42.4624 19.1096 42.631 19.3287L43.6386 18.5561C44.2324 19.3316 44.7802 20.1431 45.2645 20.9979L44.1546 21.6263C44.2887 21.867 44.4213 22.1077 44.5452 22.3542L45.6796 21.7748C46.1236 22.641 46.5055 23.5419 46.8298 24.4716L45.6349 24.8853C45.7257 25.1476 45.8122 25.41 45.8929 25.6752L47.1167 25.3019C47.3963 26.2301 47.5981 27.1916 47.7509 28.1674L46.507 28.362C46.5502 28.6344 46.5877 28.9083 46.6194 29.1836L47.8835 29.038C47.9729 29.8322 48.0305 30.6351 48.0305 31.4523C48.0305 31.6498 48.006 31.8401 48.0003 32.0347L47.4669 31.9568L46.7462 31.9943C46.7362 32.2999 46.7232 32.5781 46.7059 32.8534L47.9556 32.9312C47.8878 33.9186 47.7696 34.893 47.5707 35.84L46.3297 35.582C46.2749 35.8529 46.2115 36.1225 46.1452 36.3891L47.3502 36.6933C47.1066 37.6489 46.814 38.583 46.4464 39.4824L45.2875 39.0139C45.1838 39.2691 45.0742 39.5227 44.9604 39.7736L46.0861 40.2881C45.6767 41.1818 45.2083 42.0409 44.6836 42.861L43.6458 42.1994C43.4959 42.4329 43.3431 42.6636 43.186 42.8927L44.2022 43.5976C43.64 44.4004 43.0188 45.1557 42.3557 45.8736L41.4592 45.0419C41.2704 45.2451 41.0772 45.4455 40.8812 45.6415L41.7619 46.5193C41.0714 47.2083 40.319 47.8324 39.5392 48.422ZM26.7482 9.30664C14.5381 9.30664 4.60254 19.2422 4.60254 31.4523C4.60254 43.6639 14.5381 53.5995 26.7482 53.5995C38.9598 53.5995 48.8939 43.6639 48.8939 31.4523C48.8939 19.2422 38.9598 9.30664 26.7482 9.30664Z" fill="black"/>
<path fill-rule="evenodd" clip-rule="evenodd" d="M24.5039 31.4535C24.5039 32.7104 25.523 33.728 26.7784 33.728C28.0353 33.728 29.053 32.7104 29.053 31.4535C29.053 31.119 28.9766 30.8034 28.8469 30.5165L36.5021 19.6195L34.6168 18.2935L26.9557 29.1962C26.8966 29.1919 26.839 29.1789 26.7784 29.1789C25.523 29.1789 24.5039 30.1966 24.5039 31.4535Z" fill="black"/>
<path fill-rule="evenodd" clip-rule="evenodd" d="M21.0381 41.2877H32.4035V40.4229H21.0381V41.2877Z" fill="black"/>
<path fill-rule="evenodd" clip-rule="evenodd" d="M21.0381 44.1441H32.4035V43.2793H21.0381V44.1441Z" fill="black"/>
</svg>
